<svg width="160" height="215" viewBox="0 0 160 215" fill="none" xmlns="http://www.w3.org/2000/svg">
<path d="M3.88539 208C3.06939 208 2.66139 207.592 2.66139 206.776V196.534C2.66139 195.718 3.06939 195.31 3.88539 195.31H10.3114C10.9354 195.31 11.2474 195.61 11.2474 196.21C11.2474 196.834 10.9354 197.146 10.3114 197.146H4.87539V200.638H9.91539C10.5394 200.638 10.8514 200.944 10.8514 201.556C10.8514 202.168 10.5394 202.474 9.91539 202.474H4.87539V206.164H10.3114C10.9354 206.164 11.2474 206.47 11.2474 207.082C11.2474 207.694 10.9354 208 10.3114 208H3.88539ZM14.3016 208.144C13.5576 208.144 13.1856 207.76 13.1856 206.992V200.188C13.1856 199.432 13.5516 199.054 14.2836 199.054C15.0156 199.054 15.3816 199.432 15.3816 200.188V200.566C15.6816 200.062 16.0836 199.678 16.5876 199.414C17.1036 199.15 17.6796 199.018 18.3156 199.018C20.3916 199.018 21.4296 200.224 21.4296 202.636V206.992C21.4296 207.76 21.0576 208.144 20.3136 208.144C19.5576 208.144 19.1796 207.76 19.1796 206.992V202.744C19.1796 202.06 19.0476 201.562 18.7836 201.25C18.5316 200.938 18.1356 200.782 17.5956 200.782C16.9356 200.782 16.4076 200.992 16.0116 201.412C15.6276 201.82 15.4356 202.366 15.4356 203.05V206.992C15.4356 207.76 15.0576 208.144 14.3016 208.144ZM27.7469 208.18C25.4189 208.18 24.2549 207.028 24.2549 204.724V200.89H23.3189C22.7189 200.89 22.4189 200.608 22.4189 200.044C22.4189 199.48 22.7189 199.198 23.3189 199.198H24.2549V197.56C24.2549 196.804 24.6329 196.426 25.3889 196.426C26.1329 196.426 26.5049 196.804 26.5049 197.56V199.198H28.4129C29.0129 199.198 29.3129 199.48 29.3129 200.044C29.3129 200.608 29.0129 200.89 28.4129 200.89H26.5049V204.598C26.5049 205.174 26.6309 205.606 26.8829 205.894C27.1349 206.182 27.5429 206.326 28.1069 206.326C28.3109 206.326 28.4909 206.308 28.6469 206.272C28.8029 206.236 28.9409 206.212 29.0609 206.2C29.2049 206.188 29.3249 206.236 29.4209 206.344C29.5169 206.44 29.5649 206.644 29.5649 206.956C29.5649 207.196 29.5229 207.412 29.4389 207.604C29.3669 207.784 29.2289 207.91 29.0249 207.982C28.8689 208.03 28.6649 208.072 28.4129 208.108C28.1609 208.156 27.9389 208.18 27.7469 208.18ZM31.7751 208.144C31.0071 208.144 30.6231 207.76 30.6231 206.992V200.188C30.6231 199.432 30.9891 199.054 31.7211 199.054C32.4531 199.054 32.8191 199.432 32.8191 200.188V200.746C33.2511 199.714 34.1751 199.138 35.5911 199.018C36.1071 198.958 36.3951 199.252 36.4551 199.9C36.5151 200.536 36.2031 200.89 35.5191 200.962L35.1231 200.998C33.6471 201.142 32.9091 201.898 32.9091 203.266V206.992C32.9091 207.76 32.5311 208.144 31.7751 208.144ZM41.8693 208.18C40.8733 208.18 40.0153 207.994 39.2953 207.622C38.5753 207.25 38.0173 206.722 37.6213 206.038C37.2373 205.354 37.0453 204.544 37.0453 203.608C37.0453 202.696 37.2313 201.898 37.6033 201.214C37.9873 200.53 38.5093 199.996 39.1693 199.612C39.8413 199.216 40.6033 199.018 41.4553 199.018C42.7033 199.018 43.6873 199.414 44.4073 200.206C45.1393 200.998 45.5053 202.078 45.5053 203.446C45.5053 203.89 45.2173 204.112 44.6413 204.112H39.2053C39.3733 205.684 40.2733 206.47 41.9053 206.47C42.2173 206.47 42.5653 206.434 42.9493 206.362C43.3453 206.278 43.7173 206.14 44.0653 205.948C44.3773 205.768 44.6413 205.714 44.8573 205.786C45.0733 205.846 45.2233 205.972 45.3073 206.164C45.4033 206.356 45.4153 206.572 45.3433 206.812C45.2833 207.04 45.1153 207.238 44.8393 207.406C44.4193 207.67 43.9333 207.868 43.3813 208C42.8413 208.12 42.3373 208.18 41.8693 208.18ZM41.5453 200.548C40.8853 200.548 40.3513 200.752 39.9433 201.16C39.5353 201.568 39.2893 202.12 39.2053 202.816H43.6333C43.5853 202.084 43.3813 201.526 43.0213 201.142C42.6733 200.746 42.1813 200.548 41.5453 200.548ZM51.3912 211.42C50.7432 211.42 50.1132 211.36 49.5012 211.24C48.9012 211.12 48.3552 210.934 47.8632 210.682C47.5752 210.538 47.4012 210.352 47.3412 210.124C47.2932 209.908 47.3172 209.698 47.4132 209.494C47.5092 209.29 47.6532 209.14 47.8452 209.044C48.0492 208.96 48.2652 208.972 48.4932 209.08C49.0212 209.344 49.5192 209.512 49.9872 209.584C50.4672 209.668 50.8752 209.71 51.2112 209.71C52.8192 209.71 53.6232 208.936 53.6232 207.388V206.182C53.3712 206.674 52.9812 207.064 52.4532 207.352C51.9372 207.64 51.3612 207.784 50.7252 207.784C49.9332 207.784 49.2432 207.604 48.6552 207.244C48.0672 206.872 47.6112 206.356 47.2872 205.696C46.9632 205.036 46.8012 204.268 46.8012 203.392C46.8012 202.516 46.9632 201.754 47.2872 201.106C47.6112 200.446 48.0672 199.936 48.6552 199.576C49.2432 199.204 49.9332 199.018 50.7252 199.018C51.3612 199.018 51.9372 199.156 52.4532 199.432C52.9692 199.708 53.3472 200.086 53.5872 200.566V200.188C53.5872 199.816 53.6832 199.534 53.8752 199.342C54.0792 199.15 54.3552 199.054 54.7032 199.054C55.4472 199.054 55.8192 199.432 55.8192 200.188V207.118C55.8192 208.546 55.4412 209.62 54.6852 210.34C53.9292 211.06 52.8312 211.42 51.3912 211.42ZM51.3372 206.074C52.0332 206.074 52.5852 205.834 52.9932 205.354C53.4012 204.874 53.6052 204.22 53.6052 203.392C53.6052 202.564 53.4012 201.916 52.9932 201.448C52.5852 200.968 52.0332 200.728 51.3372 200.728C50.6412 200.728 50.0892 200.968 49.6812 201.448C49.2732 201.916 49.0692 202.564 49.0692 203.392C49.0692 204.22 49.2732 204.874 49.6812 205.354C50.0892 205.834 50.6412 206.074 51.3372 206.074ZM61.0485 208.18C60.4125 208.18 59.8425 208.06 59.3385 207.82C58.8465 207.568 58.4565 207.232 58.1685 206.812C57.8925 206.392 57.7545 205.918 57.7545 205.39C57.7545 204.742 57.9225 204.232 58.2585 203.86C58.5945 203.476 59.1405 203.2 59.8965 203.032C60.6525 202.864 61.6665 202.78 62.9385 202.78H63.5685V202.402C63.5685 201.802 63.4365 201.37 63.1725 201.106C62.9085 200.842 62.4645 200.71 61.8405 200.71C61.4925 200.71 61.1145 200.752 60.7065 200.836C60.3105 200.92 59.8905 201.064 59.4465 201.268C59.1585 201.4 58.9185 201.418 58.7265 201.322C58.5345 201.214 58.4025 201.052 58.3305 200.836C58.2705 200.608 58.2825 200.38 58.3665 200.152C58.4625 199.924 58.6485 199.756 58.9245 199.648C59.4765 199.42 60.0045 199.258 60.5085 199.162C61.0245 199.066 61.4925 199.018 61.9125 199.018C63.1965 199.018 64.1505 199.318 64.7745 199.918C65.3985 200.506 65.7105 201.424 65.7105 202.672V206.992C65.7105 207.76 65.3625 208.144 64.6665 208.144C63.9585 208.144 63.6045 207.76 63.6045 206.992V206.596C63.4005 207.088 63.0765 207.478 62.6325 207.766C62.1885 208.042 61.6605 208.18 61.0485 208.18ZM61.5165 206.632C62.1045 206.632 62.5905 206.428 62.9745 206.02C63.3705 205.612 63.5685 205.096 63.5685 204.472V204.076H62.9565C61.8285 204.076 61.0425 204.166 60.5985 204.346C60.1665 204.514 59.9505 204.826 59.9505 205.282C59.9505 205.678 60.0885 206.002 60.3645 206.254C60.6405 206.506 61.0245 206.632 61.5165 206.632ZM74.2489 208.144C73.4809 208.144 73.0969 207.748 73.0969 206.956V196.354C73.0969 195.562 73.4809 195.166 74.2489 195.166C75.0169 195.166 75.4009 195.562 75.4009 196.354V206.956C75.4009 207.748 75.0169 208.144 74.2489 208.144ZM79.077 208.144C78.333 208.144 77.961 207.76 77.961 206.992V200.188C77.961 199.432 78.327 199.054 79.059 199.054C79.791 199.054 80.157 199.432 80.157 200.188V200.566C80.457 200.062 80.859 199.678 81.363 199.414C81.879 199.15 82.455 199.018 83.091 199.018C85.167 199.018 86.205 200.224 86.205 202.636V206.992C86.205 207.76 85.833 208.144 85.089 208.144C84.333 208.144 83.955 207.76 83.955 206.992V202.744C83.955 202.06 83.823 201.562 83.559 201.25C83.307 200.938 82.911 200.782 82.371 200.782C81.711 200.782 81.183 200.992 80.787 201.412C80.403 201.82 80.211 202.366 80.211 203.05V206.992C80.211 207.76 79.833 208.144 79.077 208.144ZM89.6423 208.144C88.8983 208.144 88.5263 207.76 88.5263 206.992V200.188C88.5263 199.432 88.8923 199.054 89.6243 199.054C90.3563 199.054 90.7223 199.432 90.7223 200.188V200.548C90.9863 200.068 91.3523 199.696 91.8203 199.432C92.2883 199.156 92.8283 199.018 93.4403 199.018C94.7603 199.018 95.6243 199.594 96.0323 200.746C96.3083 200.206 96.7043 199.786 97.2203 199.486C97.7363 199.174 98.3243 199.018 98.9843 199.018C100.964 199.018 101.954 200.224 101.954 202.636V206.992C101.954 207.76 101.576 208.144 100.82 208.144C100.076 208.144 99.7043 207.76 99.7043 206.992V202.726C99.7043 202.054 99.5903 201.562 99.3623 201.25C99.1463 200.938 98.7743 200.782 98.2463 200.782C97.6583 200.782 97.1963 200.992 96.8603 201.412C96.5243 201.82 96.3563 202.39 96.3563 203.122V206.992C96.3563 207.76 95.9843 208.144 95.2403 208.144C94.4843 208.144 94.1063 207.76 94.1063 206.992V202.726C94.1063 202.054 93.9923 201.562 93.7643 201.25C93.5483 200.938 93.1823 200.782 92.6663 200.782C92.0783 200.782 91.6163 200.992 91.2803 201.412C90.9443 201.82 90.7763 202.39 90.7763 203.122V206.992C90.7763 207.76 90.3983 208.144 89.6423 208.144ZM108.613 208.18C107.617 208.18 106.759 207.994 106.039 207.622C105.319 207.25 104.761 206.722 104.365 206.038C103.981 205.354 103.789 204.544 103.789 203.608C103.789 202.696 103.975 201.898 104.347 201.214C104.731 200.53 105.253 199.996 105.913 199.612C106.585 199.216 107.347 199.018 108.199 199.018C109.447 199.018 110.431 199.414 111.151 200.206C111.883 200.998 112.249 202.078 112.249 203.446C112.249 203.89 111.961 204.112 111.385 204.112H105.949C106.117 205.684 107.017 206.47 108.649 206.47C108.961 206.47 109.309 206.434 109.693 206.362C110.089 206.278 110.461 206.14 110.809 205.948C111.121 205.768 111.385 205.714 111.601 205.786C111.817 205.846 111.967 205.972 112.051 206.164C112.147 206.356 112.159 206.572 112.087 206.812C112.027 207.04 111.859 207.238 111.583 207.406C111.163 207.67 110.677 207.868 110.125 208C109.585 208.12 109.081 208.18 108.613 208.18ZM108.289 200.548C107.629 200.548 107.095 200.752 106.687 201.16C106.279 201.568 106.033 202.12 105.949 202.816H110.377C110.329 202.084 110.125 201.526 109.765 201.142C109.417 200.746 108.925 200.548 108.289 200.548ZM117.415 208.18C116.647 208.18 115.969 207.994 115.381 207.622C114.805 207.25 114.355 206.722 114.031 206.038C113.707 205.342 113.545 204.526 113.545 203.59C113.545 202.642 113.707 201.832 114.031 201.16C114.355 200.476 114.805 199.948 115.381 199.576C115.969 199.204 116.647 199.018 117.415 199.018C118.039 199.018 118.603 199.156 119.107 199.432C119.611 199.708 119.989 200.074 120.241 200.53V196.3C120.241 195.544 120.613 195.166 121.357 195.166C122.113 195.166 122.491 195.544 122.491 196.3V206.992C122.491 207.76 122.119 208.144 121.375 208.144C120.631 208.144 120.259 207.76 120.259 206.992V206.614C120.007 207.094 119.629 207.478 119.125 207.766C118.621 208.042 118.051 208.18 117.415 208.18ZM118.045 206.47C118.717 206.47 119.257 206.23 119.665 205.75C120.073 205.258 120.277 204.538 120.277 203.59C120.277 202.63 120.073 201.916 119.665 201.448C119.257 200.968 118.717 200.728 118.045 200.728C117.373 200.728 116.833 200.968 116.425 201.448C116.017 201.916 115.813 202.63 115.813 203.59C115.813 204.538 116.017 205.258 116.425 205.75C116.833 206.23 117.373 206.47 118.045 206.47ZM125.94 197.398C125.52 197.398 125.19 197.296 124.95 197.092C124.722 196.876 124.608 196.582 124.608 196.21C124.608 195.826 124.722 195.532 124.95 195.328C125.19 195.124 125.52 195.022 125.94 195.022C126.828 195.022 127.272 195.418 127.272 196.21C127.272 197.002 126.828 197.398 125.94 197.398ZM125.94 208.126C125.58 208.126 125.304 208.018 125.112 207.802C124.92 207.586 124.824 207.286 124.824 206.902V200.296C124.824 199.48 125.196 199.072 125.94 199.072C126.696 199.072 127.074 199.48 127.074 200.296V206.902C127.074 207.286 126.978 207.586 126.786 207.802C126.594 208.018 126.312 208.126 125.94 208.126ZM132.31 208.18C131.674 208.18 131.104 208.06 130.6 207.82C130.108 207.568 129.718 207.232 129.43 206.812C129.154 206.392 129.016 205.918 129.016 205.39C129.016 204.742 129.184 204.232 129.52 203.86C129.856 203.476 130.402 203.2 131.158 203.032C131.914 202.864 132.928 202.78 134.2 202.78H134.83V202.402C134.83 201.802 134.698 201.37 134.434 201.106C134.17 200.842 133.726 200.71 133.102 200.71C132.754 200.71 132.376 200.752 131.968 200.836C131.572 200.92 131.152 201.064 130.708 201.268C130.42 201.4 130.18 201.418 129.988 201.322C129.796 201.214 129.664 201.052 129.592 200.836C129.532 200.608 129.544 200.38 129.628 200.152C129.724 199.924 129.91 199.756 130.186 199.648C130.738 199.42 131.266 199.258 131.77 199.162C132.286 199.066 132.754 199.018 133.174 199.018C134.458 199.018 135.412 199.318 136.036 199.918C136.66 200.506 136.972 201.424 136.972 202.672V206.992C136.972 207.76 136.624 208.144 135.928 208.144C135.22 208.144 134.866 207.76 134.866 206.992V206.596C134.662 207.088 134.338 207.478 133.894 207.766C133.45 208.042 132.922 208.18 132.31 208.18ZM132.778 206.632C133.366 206.632 133.852 206.428 134.236 206.02C134.632 205.612 134.83 205.096 134.83 204.472V204.076H134.218C133.09 204.076 132.304 204.166 131.86 204.346C131.428 204.514 131.212 204.826 131.212 205.282C131.212 205.678 131.35 206.002 131.626 206.254C131.902 206.506 132.286 206.632 132.778 206.632ZM143.288 208.18C140.96 208.18 139.796 207.028 139.796 204.724V200.89H138.86C138.26 200.89 137.96 200.608 137.96 200.044C137.96 199.48 138.26 199.198 138.86 199.198H139.796V197.56C139.796 196.804 140.174 196.426 140.93 196.426C141.674 196.426 142.046 196.804 142.046 197.56V199.198H143.954C144.554 199.198 144.854 199.48 144.854 200.044C144.854 200.608 144.554 200.89 143.954 200.89H142.046V204.598C142.046 205.174 142.172 205.606 142.424 205.894C142.676 206.182 143.084 206.326 143.648 206.326C143.852 206.326 144.032 206.308 144.188 206.272C144.344 206.236 144.482 206.212 144.602 206.2C144.746 206.188 144.866 206.236 144.962 206.344C145.058 206.44 145.106 206.644 145.106 206.956C145.106 207.196 145.064 207.412 144.98 207.604C144.908 207.784 144.77 207.91 144.566 207.982C144.41 208.03 144.206 208.072 143.954 208.108C143.702 208.156 143.48 208.18 143.288 208.18ZM149.062 208.18C148.426 208.18 147.856 208.06 147.352 207.82C146.86 207.568 146.47 207.232 146.182 206.812C145.906 206.392 145.768 205.918 145.768 205.39C145.768 204.742 145.936 204.232 146.272 203.86C146.608 203.476 147.154 203.2 147.91 203.032C148.666 202.864 149.68 202.78 150.952 202.78H151.582V202.402C151.582 201.802 151.45 201.37 151.186 201.106C150.922 200.842 150.478 200.71 149.854 200.71C149.506 200.71 149.128 200.752 148.72 200.836C148.324 200.92 147.904 201.064 147.46 201.268C147.172 201.4 146.932 201.418 146.74 201.322C146.548 201.214 146.416 201.052 146.344 200.836C146.284 200.608 146.296 200.38 146.38 200.152C146.476 199.924 146.662 199.756 146.938 199.648C147.49 199.42 148.018 199.258 148.522 199.162C149.038 199.066 149.506 199.018 149.926 199.018C151.21 199.018 152.164 199.318 152.788 199.918C153.412 200.506 153.724 201.424 153.724 202.672V206.992C153.724 207.76 153.376 208.144 152.68 208.144C151.972 208.144 151.618 207.76 151.618 206.992V206.596C151.414 207.088 151.09 207.478 150.646 207.766C150.202 208.042 149.674 208.18 149.062 208.18ZM149.53 206.632C150.118 206.632 150.604 206.428 150.988 206.02C151.384 205.612 151.582 205.096 151.582 204.472V204.076H150.97C149.842 204.076 149.056 204.166 148.612 204.346C148.18 204.514 147.964 204.826 147.964 205.282C147.964 205.678 148.102 206.002 148.378 206.254C148.654 206.506 149.038 206.632 149.53 206.632Z" fill="black"/>
<circle cx="80" cy="80" r="79.5" fill="#F8F8F8" stroke="#444444"/>
<path fill-rule="evenodd" clip-rule="evenodd" d="M117.385 71.876C116.084 69.111 114.36 66.6063 112.246 64.4269C111.238 63.3535 110.099 62.3776 108.928 61.4994L111.01 58.7344C111.53 58.0188 111.4 57.0104 110.685 56.49C109.969 55.9695 108.961 56.0996 108.44 56.8152L106.228 59.7428C104.764 58.8645 103.203 58.1489 101.609 57.5634C100.21 57.0755 98.7791 56.6851 97.3154 56.3924C96.372 56.2297 95.3962 56.0996 94.4528 56.0346V51.1878H97.6732C98.5514 51.1878 99.2671 50.4722 99.2671 49.5939C99.2671 48.7156 98.5514 48 97.6732 48H88.0122C87.1339 48 86.4183 48.7156 86.4183 49.5939C86.4183 50.4722 87.1339 51.1878 88.0122 51.1878H91.2325V55.9044C87.5243 56.0346 83.8485 56.9128 80.4655 58.4742C77.7006 59.7753 75.1959 61.4668 72.984 63.5812C69.8938 66.5088 67.5192 70.1845 66.0554 74.1855C65.5349 75.5842 65.1446 77.0805 64.8518 78.5769C64.5591 80.0732 64.429 81.5695 64.3639 83.0658C64.2663 87.3596 65.1771 91.6533 67.0312 95.5568C68.3324 98.2892 70.0239 100.761 72.1382 102.941C75.0983 106.031 78.7741 108.406 82.7751 109.837C84.1738 110.325 85.6051 110.715 87.0689 111.008C88.5326 111.268 89.9964 111.431 91.4927 111.463H92.2084C96.2419 111.463 100.275 110.585 103.919 108.861C106.651 107.592 109.156 105.901 111.335 103.819C114.458 100.859 116.865 97.1832 118.329 93.1497C118.849 91.7509 119.24 90.2546 119.5 88.7908C119.793 87.2945 119.955 85.7657 119.988 84.2694C120.118 80.0081 119.207 75.7143 117.385 71.876ZM116.377 88.1728C116.117 89.5065 115.792 90.7751 115.336 92.0437C114.035 95.5893 111.921 98.8747 109.156 101.477C107.237 103.299 105.025 104.827 102.585 105.933C99.1695 107.527 95.3311 108.341 91.6229 108.21C90.3217 108.178 89.0206 108.048 87.7194 107.788C86.4183 107.56 85.1497 107.202 83.9136 106.779C80.368 105.511 77.1151 103.396 74.5128 100.664C72.6587 98.7446 71.1298 96.5326 69.9913 94.1255C68.3649 90.71 67.5517 86.8716 67.6493 83.0983C67.6818 81.7647 67.8119 80.431 68.0722 79.1298C68.3324 77.7962 68.6902 76.495 69.1131 75.2589C70.3817 71.7133 72.4961 68.493 75.2285 65.8907C77.1802 64.0366 79.3921 62.5077 81.8643 61.3692C85.0846 59.8729 88.6628 59.0922 92.2084 59.0922H92.8264C94.1276 59.1248 95.4287 59.2549 96.7298 59.5151C98.031 59.7428 99.2996 60.1006 100.536 60.556C104.081 61.8246 107.334 63.9065 109.936 66.6389C111.791 68.5906 113.319 70.8025 114.49 73.2422C116.084 76.6577 116.898 80.431 116.8 84.2043C116.767 85.5055 116.637 86.8716 116.377 88.1728ZM58.8991 72.6567H41.5939C40.7156 72.6567 40 73.3723 40 74.2506C40 75.1288 40.7156 75.8445 41.5939 75.8445H58.8991C59.7774 75.8445 60.493 75.1288 60.493 74.2506C60.493 73.3723 59.7774 72.6567 58.8991 72.6567ZM58.8991 82.0574H50.9296C50.0513 82.0574 49.3357 82.773 49.3357 83.6513C49.3357 84.5296 50.0513 85.2452 50.9296 85.2452H58.8991C59.7774 85.2452 60.493 84.5296 60.493 83.6513C60.493 82.773 59.7774 82.0574 58.8991 82.0574ZM45.7576 91.4582H58.8991C59.7774 91.4582 60.493 92.1738 60.493 93.0521C60.493 93.9303 59.7774 94.646 58.8991 94.646H45.7576C44.8793 94.646 44.1637 93.9303 44.1637 93.0521C44.1637 92.1738 44.8793 91.4582 45.7576 91.4582ZM95.2986 78.7395L102.162 72.5265C102.845 71.941 103.854 72.0061 104.504 72.6241C105.09 73.2747 105.025 74.3156 104.374 74.9011L97.478 81.1141C97.478 81.1303 97.4861 81.1385 97.4943 81.1466C97.5024 81.1547 97.5105 81.1629 97.5105 81.1791C97.9009 81.9923 98.096 82.9031 98.0635 83.7814C98.0635 84.1067 98.031 84.3995 97.9659 84.7247C97.9009 85.05 97.8033 85.3428 97.7057 85.6355C97.3804 86.4488 96.8925 87.2294 96.2419 87.8475C95.7865 88.2704 95.2335 88.6282 94.6805 88.8884C93.9324 89.2462 93.0866 89.4414 92.2409 89.4414H92.0783C91.7855 89.4414 91.4602 89.4089 91.1675 89.3438C90.8747 89.3113 90.582 89.2137 90.2893 89.1161L90.2892 89.1161C89.476 88.8233 88.6953 88.3354 88.0772 87.6848C87.6218 87.2294 87.264 86.7415 87.0038 86.156C86.6134 85.3428 86.4183 84.4645 86.4508 83.5537C86.4508 83.2284 86.4833 82.9357 86.5484 82.6104C86.6135 82.2851 86.711 81.9923 86.8086 81.6996C87.1014 80.8538 87.5893 80.1057 88.2399 79.4876C88.6953 79.0322 89.2157 78.6744 89.8013 78.4142C90.6145 78.0239 91.5253 77.8287 92.4035 77.8612C92.6963 77.8612 92.9891 77.8937 93.3143 77.9588C93.6071 77.9913 93.8999 78.0889 94.1926 78.1865C94.583 78.3491 94.9408 78.5118 95.2986 78.7395ZM94.7293 84.3507C94.7456 84.2775 94.7619 84.2043 94.7781 84.1392C94.7781 84.098 94.7814 84.0536 94.7848 84.0069C94.7922 83.9061 94.8004 83.795 94.7781 83.6838C94.8106 83.2935 94.7131 82.9031 94.5504 82.5453C94.4203 82.3176 94.2577 82.0574 94.0625 81.8622C93.8023 81.5695 93.477 81.3418 93.0866 81.2117L92.6963 81.1141C92.6104 81.1141 92.5337 81.105 92.4611 81.0965C92.3963 81.0888 92.3349 81.0815 92.2734 81.0815H92.2084C91.8506 81.0815 91.4927 81.1466 91.1349 81.3092C90.8747 81.4394 90.647 81.602 90.4518 81.7972C90.1591 82.0574 89.9314 82.4152 89.8013 82.773C89.785 82.8381 89.7687 82.9113 89.7525 82.9845C89.7362 83.0577 89.7199 83.1308 89.7037 83.1959C89.7037 83.261 89.6955 83.3342 89.6874 83.4073C89.6793 83.4805 89.6711 83.5537 89.6711 83.6188C89.6711 84.0091 89.7687 84.3995 89.9314 84.7573C90.0615 85.0175 90.2241 85.2452 90.4193 85.4404C90.6795 85.7331 91.0373 85.9608 91.3952 86.091L91.7855 86.1885C91.8505 86.1885 91.9237 86.1967 91.9969 86.2048C92.0701 86.2129 92.1433 86.2211 92.2084 86.2211C92.5987 86.2211 92.9891 86.156 93.3469 85.9934C93.6071 85.8958 93.8348 85.7331 94.03 85.538C94.3227 85.2777 94.5504 84.9199 94.6805 84.5621C94.6968 84.497 94.7131 84.4239 94.7293 84.3507Z" fill="#D96581"/>
</svg>
