<svg width="255" height="215" viewBox="0 0 255 215" fill="none" xmlns="http://www.w3.org/2000/svg">
<path d="M2.48726 204.076C2.22326 204.076 2.00126 203.992 1.82126 203.824C1.65326 203.644 1.56926 203.428 1.56926 203.176C1.56926 202.912 1.65326 202.696 1.82126 202.528C2.00126 202.36 2.22326 202.276 2.48726 202.276H6.32126C6.57326 202.276 6.78326 202.36 6.95126 202.528C7.13126 202.696 7.22126 202.912 7.22126 203.176C7.22126 203.428 7.13126 203.644 6.95126 203.824C6.78326 203.992 6.57326 204.076 6.32126 204.076H2.48726ZM13.7024 208.18C13.1744 208.18 12.6464 208.138 12.1184 208.054C11.5904 207.982 11.0924 207.868 10.6244 207.712C10.1564 207.544 9.73638 207.34 9.36438 207.1C9.14838 206.956 8.99838 206.782 8.91438 206.578C8.83038 206.374 8.80038 206.176 8.82438 205.984C8.86038 205.78 8.93838 205.606 9.05838 205.462C9.19038 205.306 9.35238 205.21 9.54438 205.174C9.73638 205.138 9.94638 205.192 10.1744 205.336C10.7024 205.648 11.2604 205.876 11.8484 206.02C12.4364 206.164 13.0544 206.236 13.7024 206.236C14.6504 206.236 15.3404 206.08 15.7724 205.768C16.2044 205.444 16.4204 205.03 16.4204 204.526C16.4204 204.106 16.2644 203.776 15.9524 203.536C15.6524 203.296 15.1304 203.098 14.3864 202.942L12.4064 202.528C11.2664 202.288 10.4144 201.886 9.85038 201.322C9.29838 200.746 9.02238 199.99 9.02238 199.054C9.02238 198.466 9.14238 197.932 9.38238 197.452C9.62238 196.972 9.95838 196.558 10.3904 196.21C10.8344 195.862 11.3564 195.598 11.9564 195.418C12.5684 195.226 13.2404 195.13 13.9724 195.13C14.6924 195.13 15.3764 195.22 16.0244 195.4C16.6724 195.58 17.2544 195.844 17.7704 196.192C17.9624 196.324 18.0884 196.486 18.1484 196.678C18.2204 196.87 18.2384 197.062 18.2024 197.254C18.1664 197.434 18.0824 197.59 17.9504 197.722C17.8184 197.854 17.6504 197.932 17.4464 197.956C17.2544 197.98 17.0324 197.92 16.7804 197.776C16.3364 197.524 15.8864 197.344 15.4304 197.236C14.9744 197.128 14.4824 197.074 13.9544 197.074C13.4024 197.074 12.9284 197.152 12.5324 197.308C12.1364 197.464 11.8304 197.686 11.6144 197.974C11.4104 198.25 11.3084 198.58 11.3084 198.964C11.3084 199.396 11.4524 199.744 11.7404 200.008C12.0284 200.26 12.5204 200.458 13.2164 200.602L15.1784 201.016C16.3664 201.268 17.2484 201.664 17.8244 202.204C18.4124 202.744 18.7064 203.464 18.7064 204.364C18.7064 204.94 18.5864 205.462 18.3464 205.93C18.1184 206.398 17.7824 206.8 17.3384 207.136C16.9064 207.472 16.3844 207.73 15.7724 207.91C15.1604 208.09 14.4704 208.18 13.7024 208.18ZM24.8059 208.18C23.8099 208.18 22.9519 207.994 22.2319 207.622C21.5119 207.25 20.9539 206.722 20.5579 206.038C20.1739 205.354 19.9819 204.544 19.9819 203.608C19.9819 202.696 20.1679 201.898 20.5399 201.214C20.9239 200.53 21.4459 199.996 22.1059 199.612C22.7779 199.216 23.5399 199.018 24.3919 199.018C25.0159 199.018 25.5739 199.12 26.0659 199.324C26.5699 199.528 26.9959 199.822 27.3439 200.206C27.7039 200.59 27.9739 201.058 28.1539 201.61C28.3459 202.15 28.4419 202.762 28.4419 203.446C28.4419 203.662 28.3639 203.83 28.2079 203.95C28.0639 204.058 27.8539 204.112 27.5779 204.112H21.7999V202.816H26.8579L26.5699 203.086C26.5699 202.534 26.4859 202.072 26.3179 201.7C26.1619 201.328 25.9279 201.046 25.6159 200.854C25.3159 200.65 24.9379 200.548 24.4819 200.548C23.9779 200.548 23.5459 200.668 23.1859 200.908C22.8379 201.136 22.5679 201.466 22.3759 201.898C22.1959 202.318 22.1059 202.822 22.1059 203.41V203.536C22.1059 204.52 22.3339 205.258 22.7899 205.75C23.2579 206.23 23.9419 206.47 24.8419 206.47C25.1539 206.47 25.5019 206.434 25.8859 206.362C26.2819 206.278 26.6539 206.14 27.0019 205.948C27.2539 205.804 27.4759 205.744 27.6679 205.768C27.8599 205.78 28.0099 205.846 28.1179 205.966C28.2379 206.086 28.3099 206.236 28.3339 206.416C28.3579 206.584 28.3219 206.758 28.2259 206.938C28.1419 207.118 27.9919 207.274 27.7759 207.406C27.3559 207.67 26.8699 207.868 26.3179 208C25.7779 208.12 25.2739 208.18 24.8059 208.18ZM34.3277 211.42C33.6797 211.42 33.0497 211.36 32.4377 211.24C31.8377 211.12 31.2917 210.934 30.7997 210.682C30.5717 210.562 30.4157 210.418 30.3317 210.25C30.2597 210.082 30.2357 209.908 30.2597 209.728C30.2957 209.56 30.3677 209.41 30.4757 209.278C30.5957 209.146 30.7397 209.056 30.9077 209.008C31.0757 208.96 31.2497 208.984 31.4297 209.08C31.9577 209.344 32.4557 209.512 32.9237 209.584C33.4037 209.668 33.8117 209.71 34.1477 209.71C34.9517 209.71 35.5517 209.512 35.9477 209.116C36.3557 208.732 36.5597 208.156 36.5597 207.388V205.768H36.7217C36.5417 206.38 36.1637 206.872 35.5877 207.244C35.0237 207.604 34.3817 207.784 33.6617 207.784C32.8697 207.784 32.1797 207.604 31.5917 207.244C31.0037 206.872 30.5477 206.356 30.2237 205.696C29.8997 205.036 29.7377 204.268 29.7377 203.392C29.7377 202.732 29.8277 202.138 30.0077 201.61C30.1997 201.07 30.4637 200.608 30.7997 200.224C31.1477 199.84 31.5617 199.546 32.0417 199.342C32.5337 199.126 33.0737 199.018 33.6617 199.018C34.4057 199.018 35.0537 199.204 35.6057 199.576C36.1697 199.936 36.5357 200.416 36.7037 201.016L36.5237 201.466V200.188C36.5237 199.816 36.6197 199.534 36.8117 199.342C37.0157 199.15 37.2917 199.054 37.6397 199.054C37.9997 199.054 38.2757 199.15 38.4677 199.342C38.6597 199.534 38.7557 199.816 38.7557 200.188V207.118C38.7557 208.546 38.3777 209.62 37.6217 210.34C36.8657 211.06 35.7677 211.42 34.3277 211.42ZM34.2737 206.074C34.7417 206.074 35.1437 205.966 35.4797 205.75C35.8157 205.534 36.0737 205.228 36.2537 204.832C36.4457 204.424 36.5417 203.944 36.5417 203.392C36.5417 202.564 36.3377 201.916 35.9297 201.448C35.5217 200.968 34.9697 200.728 34.2737 200.728C33.8057 200.728 33.4037 200.836 33.0677 201.052C32.7317 201.268 32.4677 201.574 32.2757 201.97C32.0957 202.366 32.0057 202.84 32.0057 203.392C32.0057 204.22 32.2097 204.874 32.6177 205.354C33.0257 205.834 33.5777 206.074 34.2737 206.074ZM44.273 208.18C43.541 208.18 42.935 208.048 42.455 207.784C41.975 207.508 41.615 207.1 41.375 206.56C41.147 206.02 41.033 205.348 41.033 204.544V200.188C41.033 199.804 41.129 199.522 41.321 199.342C41.513 199.15 41.789 199.054 42.149 199.054C42.509 199.054 42.785 199.15 42.977 199.342C43.181 199.522 43.283 199.804 43.283 200.188V204.58C43.283 205.204 43.409 205.666 43.661 205.966C43.913 206.266 44.315 206.416 44.867 206.416C45.467 206.416 45.959 206.212 46.343 205.804C46.727 205.384 46.919 204.832 46.919 204.148V200.188C46.919 199.804 47.015 199.522 47.207 199.342C47.399 199.15 47.675 199.054 48.035 199.054C48.395 199.054 48.671 199.15 48.863 199.342C49.067 199.522 49.169 199.804 49.169 200.188V206.992C49.169 207.76 48.803 208.144 48.071 208.144C47.723 208.144 47.453 208.048 47.261 207.856C47.069 207.652 46.973 207.364 46.973 206.992V205.624L47.225 206.164C46.973 206.812 46.589 207.31 46.073 207.658C45.569 208.006 44.969 208.18 44.273 208.18ZM52.6268 208.126C52.2668 208.126 51.9908 208.018 51.7988 207.802C51.6068 207.586 51.5108 207.286 51.5108 206.902V200.296C51.5108 199.9 51.6068 199.6 51.7988 199.396C51.9908 199.18 52.2668 199.072 52.6268 199.072C52.9868 199.072 53.2628 199.18 53.4548 199.396C53.6588 199.6 53.7608 199.9 53.7608 200.296V206.902C53.7608 207.286 53.6648 207.586 53.4728 207.802C53.2808 208.018 52.9988 208.126 52.6268 208.126ZM52.6268 197.398C52.2068 197.398 51.8768 197.296 51.6368 197.092C51.4088 196.876 51.2948 196.582 51.2948 196.21C51.2948 195.826 51.4088 195.532 51.6368 195.328C51.8768 195.124 52.2068 195.022 52.6268 195.022C53.0588 195.022 53.3888 195.124 53.6168 195.328C53.8448 195.532 53.9588 195.826 53.9588 196.21C53.9588 196.582 53.8448 196.876 53.6168 197.092C53.3888 197.296 53.0588 197.398 52.6268 197.398ZM57.2507 208.144C56.8907 208.144 56.6147 208.048 56.4227 207.856C56.2307 207.652 56.1347 207.364 56.1347 206.992V200.188C56.1347 199.816 56.2307 199.534 56.4227 199.342C56.6147 199.15 56.8847 199.054 57.2327 199.054C57.5807 199.054 57.8507 199.15 58.0427 199.342C58.2347 199.534 58.3307 199.816 58.3307 200.188V201.502L58.1327 200.962C58.3727 200.362 58.7447 199.888 59.2487 199.54C59.7527 199.192 60.3527 199.018 61.0487 199.018C61.7567 199.018 62.3387 199.186 62.7947 199.522C63.2507 199.858 63.5687 200.374 63.7487 201.07H63.4967C63.7367 200.434 64.1327 199.936 64.6847 199.576C65.2367 199.204 65.8727 199.018 66.5927 199.018C67.2647 199.018 67.8167 199.15 68.2487 199.414C68.6927 199.678 69.0227 200.08 69.2387 200.62C69.4547 201.148 69.5627 201.82 69.5627 202.636V206.992C69.5627 207.364 69.4607 207.652 69.2567 207.856C69.0647 208.048 68.7887 208.144 68.4287 208.144C68.0687 208.144 67.7927 208.048 67.6007 207.856C67.4087 207.652 67.3127 207.364 67.3127 206.992V202.726C67.3127 202.054 67.1987 201.562 66.9707 201.25C66.7547 200.938 66.3827 200.782 65.8547 200.782C65.2667 200.782 64.8047 200.992 64.4687 201.412C64.1327 201.82 63.9647 202.39 63.9647 203.122V206.992C63.9647 207.364 63.8687 207.652 63.6767 207.856C63.4847 208.048 63.2087 208.144 62.8487 208.144C62.4887 208.144 62.2067 208.048 62.0027 207.856C61.8107 207.652 61.7147 207.364 61.7147 206.992V202.726C61.7147 202.054 61.6007 201.562 61.3727 201.25C61.1567 200.938 60.7907 200.782 60.2747 200.782C59.6867 200.782 59.2247 200.992 58.8887 201.412C58.5527 201.82 58.3847 202.39 58.3847 203.122V206.992C58.3847 207.76 58.0067 208.144 57.2507 208.144ZM72.9999 208.126C72.6399 208.126 72.3639 208.018 72.1719 207.802C71.9799 207.586 71.8839 207.286 71.8839 206.902V200.296C71.8839 199.9 71.9799 199.6 72.1719 199.396C72.3639 199.18 72.6399 199.072 72.9999 199.072C73.3599 199.072 73.6359 199.18 73.8279 199.396C74.0319 199.6 74.1339 199.9 74.1339 200.296V206.902C74.1339 207.286 74.0379 207.586 73.8459 207.802C73.6539 208.018 73.3719 208.126 72.9999 208.126ZM72.9999 197.398C72.5799 197.398 72.2499 197.296 72.0099 197.092C71.7819 196.876 71.6679 196.582 71.6679 196.21C71.6679 195.826 71.7819 195.532 72.0099 195.328C72.2499 195.124 72.5799 195.022 72.9999 195.022C73.4319 195.022 73.7619 195.124 73.9899 195.328C74.2179 195.532 74.3319 195.826 74.3319 196.21C74.3319 196.582 74.2179 196.876 73.9899 197.092C73.7619 197.296 73.4319 197.398 72.9999 197.398ZM80.8098 208.18C79.8138 208.18 78.9558 207.994 78.2358 207.622C77.5158 207.25 76.9578 206.722 76.5618 206.038C76.1778 205.354 75.9858 204.544 75.9858 203.608C75.9858 202.696 76.1718 201.898 76.5438 201.214C76.9278 200.53 77.4498 199.996 78.1098 199.612C78.7818 199.216 79.5438 199.018 80.3958 199.018C81.0198 199.018 81.5778 199.12 82.0698 199.324C82.5738 199.528 82.9998 199.822 83.3478 200.206C83.7078 200.59 83.9778 201.058 84.1578 201.61C84.3498 202.15 84.4458 202.762 84.4458 203.446C84.4458 203.662 84.3678 203.83 84.2118 203.95C84.0678 204.058 83.8578 204.112 83.5818 204.112H77.8038V202.816H82.8618L82.5738 203.086C82.5738 202.534 82.4898 202.072 82.3218 201.7C82.1658 201.328 81.9318 201.046 81.6198 200.854C81.3198 200.65 80.9418 200.548 80.4858 200.548C79.9818 200.548 79.5498 200.668 79.1898 200.908C78.8418 201.136 78.5718 201.466 78.3798 201.898C78.1998 202.318 78.1098 202.822 78.1098 203.41V203.536C78.1098 204.52 78.3378 205.258 78.7938 205.75C79.2618 206.23 79.9458 206.47 80.8458 206.47C81.1578 206.47 81.5058 206.434 81.8898 206.362C82.2858 206.278 82.6578 206.14 83.0058 205.948C83.2578 205.804 83.4798 205.744 83.6718 205.768C83.8638 205.78 84.0138 205.846 84.1218 205.966C84.2418 206.086 84.3138 206.236 84.3378 206.416C84.3618 206.584 84.3258 206.758 84.2298 206.938C84.1458 207.118 83.9958 207.274 83.7798 207.406C83.3598 207.67 82.8738 207.868 82.3218 208C81.7818 208.12 81.2778 208.18 80.8098 208.18ZM87.3436 208.144C86.9836 208.144 86.7076 208.048 86.5156 207.856C86.3236 207.652 86.2276 207.364 86.2276 206.992V200.188C86.2276 199.816 86.3236 199.534 86.5156 199.342C86.7076 199.15 86.9776 199.054 87.3256 199.054C87.6736 199.054 87.9436 199.15 88.1356 199.342C88.3276 199.534 88.4236 199.816 88.4236 200.188V201.412L88.2256 200.962C88.4896 200.326 88.8976 199.846 89.4496 199.522C90.0136 199.186 90.6496 199.018 91.3576 199.018C92.0656 199.018 92.6476 199.15 93.1036 199.414C93.5596 199.678 93.9016 200.08 94.1296 200.62C94.3576 201.148 94.4716 201.82 94.4716 202.636V206.992C94.4716 207.364 94.3756 207.652 94.1836 207.856C93.9916 208.048 93.7156 208.144 93.3556 208.144C92.9956 208.144 92.7136 208.048 92.5096 207.856C92.3176 207.652 92.2216 207.364 92.2216 206.992V202.744C92.2216 202.06 92.0896 201.562 91.8256 201.25C91.5736 200.938 91.1776 200.782 90.6376 200.782C89.9776 200.782 89.4496 200.992 89.0536 201.412C88.6696 201.82 88.4776 202.366 88.4776 203.05V206.992C88.4776 207.76 88.0996 208.144 87.3436 208.144ZM100.789 208.18C100.009 208.18 99.3549 208.048 98.8269 207.784C98.3109 207.52 97.9269 207.136 97.6749 206.632C97.4229 206.116 97.2969 205.48 97.2969 204.724V200.89H96.3609C96.0729 200.89 95.8509 200.818 95.6949 200.674C95.5389 200.518 95.4609 200.308 95.4609 200.044C95.4609 199.768 95.5389 199.558 95.6949 199.414C95.8509 199.27 96.0729 199.198 96.3609 199.198H97.2969V197.56C97.2969 197.188 97.3929 196.906 97.5849 196.714C97.7889 196.522 98.0709 196.426 98.4309 196.426C98.7909 196.426 99.0669 196.522 99.2589 196.714C99.4509 196.906 99.5469 197.188 99.5469 197.56V199.198H101.455C101.743 199.198 101.965 199.27 102.121 199.414C102.277 199.558 102.355 199.768 102.355 200.044C102.355 200.308 102.277 200.518 102.121 200.674C101.965 200.818 101.743 200.89 101.455 200.89H99.5469V204.598C99.5469 205.174 99.6729 205.606 99.9249 205.894C100.177 206.182 100.585 206.326 101.149 206.326C101.353 206.326 101.533 206.308 101.689 206.272C101.845 206.236 101.983 206.212 102.103 206.2C102.247 206.188 102.367 206.236 102.463 206.344C102.559 206.44 102.607 206.644 102.607 206.956C102.607 207.196 102.565 207.412 102.481 207.604C102.409 207.784 102.271 207.91 102.067 207.982C101.911 208.03 101.707 208.072 101.455 208.108C101.203 208.156 100.981 208.18 100.789 208.18ZM107.591 208.18C106.679 208.18 105.887 207.994 105.215 207.622C104.543 207.25 104.021 206.722 103.649 206.038C103.277 205.342 103.091 204.526 103.091 203.59C103.091 202.882 103.193 202.252 103.397 201.7C103.613 201.136 103.919 200.656 104.315 200.26C104.711 199.852 105.185 199.546 105.737 199.342C106.289 199.126 106.907 199.018 107.591 199.018C108.503 199.018 109.295 199.204 109.967 199.576C110.639 199.948 111.161 200.476 111.533 201.16C111.905 201.844 112.091 202.654 112.091 203.59C112.091 204.298 111.983 204.934 111.767 205.498C111.563 206.062 111.263 206.548 110.867 206.956C110.471 207.352 109.997 207.658 109.445 207.874C108.893 208.078 108.275 208.18 107.591 208.18ZM107.591 206.47C108.035 206.47 108.425 206.362 108.761 206.146C109.097 205.93 109.355 205.612 109.535 205.192C109.727 204.76 109.823 204.226 109.823 203.59C109.823 202.63 109.619 201.916 109.211 201.448C108.803 200.968 108.263 200.728 107.591 200.728C107.147 200.728 106.757 200.836 106.421 201.052C106.085 201.256 105.821 201.574 105.629 202.006C105.449 202.426 105.359 202.954 105.359 203.59C105.359 204.538 105.563 205.258 105.971 205.75C106.379 206.23 106.919 206.47 107.591 206.47ZM120.275 208C119.879 208 119.573 207.898 119.357 207.694C119.153 207.478 119.051 207.172 119.051 206.776V196.534C119.051 196.138 119.153 195.838 119.357 195.634C119.573 195.418 119.879 195.31 120.275 195.31H126.701C127.001 195.31 127.229 195.388 127.385 195.544C127.553 195.7 127.637 195.922 127.637 196.21C127.637 196.51 127.553 196.744 127.385 196.912C127.229 197.068 127.001 197.146 126.701 197.146H121.265V200.638H126.305C126.617 200.638 126.851 200.716 127.007 200.872C127.163 201.028 127.241 201.256 127.241 201.556C127.241 201.856 127.163 202.084 127.007 202.24C126.851 202.396 126.617 202.474 126.305 202.474H121.265V206.164H126.701C127.001 206.164 127.229 206.242 127.385 206.398C127.553 206.554 127.637 206.782 127.637 207.082C127.637 207.382 127.553 207.61 127.385 207.766C127.229 207.922 127.001 208 126.701 208H120.275ZM130.691 208.144C130.331 208.144 130.055 208.048 129.863 207.856C129.671 207.652 129.575 207.364 129.575 206.992V200.188C129.575 199.816 129.671 199.534 129.863 199.342C130.055 199.15 130.325 199.054 130.673 199.054C131.021 199.054 131.291 199.15 131.483 199.342C131.675 199.534 131.771 199.816 131.771 200.188V201.412L131.573 200.962C131.837 200.326 132.245 199.846 132.797 199.522C133.361 199.186 133.997 199.018 134.705 199.018C135.413 199.018 135.995 199.15 136.451 199.414C136.907 199.678 137.249 200.08 137.477 200.62C137.705 201.148 137.819 201.82 137.819 202.636V206.992C137.819 207.364 137.723 207.652 137.531 207.856C137.339 208.048 137.063 208.144 136.703 208.144C136.343 208.144 136.061 208.048 135.857 207.856C135.665 207.652 135.569 207.364 135.569 206.992V202.744C135.569 202.06 135.437 201.562 135.173 201.25C134.921 200.938 134.525 200.782 133.985 200.782C133.325 200.782 132.797 200.992 132.401 201.412C132.017 201.82 131.825 202.366 131.825 203.05V206.992C131.825 207.76 131.447 208.144 130.691 208.144ZM149.419 208.144C149.047 208.144 148.759 208.042 148.555 207.838C148.363 207.622 148.267 207.328 148.267 206.956V197.236H144.757C144.445 197.236 144.199 197.152 144.019 196.984C143.851 196.804 143.767 196.564 143.767 196.264C143.767 195.952 143.851 195.718 144.019 195.562C144.199 195.394 144.445 195.31 144.757 195.31H154.081C154.393 195.31 154.633 195.394 154.801 195.562C154.981 195.718 155.071 195.952 155.071 196.264C155.071 196.564 154.981 196.804 154.801 196.984C154.633 197.152 154.393 197.236 154.081 197.236H150.571V206.956C150.571 207.328 150.475 207.622 150.283 207.838C150.091 208.042 149.803 208.144 149.419 208.144ZM158.271 208.126C157.911 208.126 157.635 208.018 157.443 207.802C157.251 207.586 157.155 207.286 157.155 206.902V200.296C157.155 199.9 157.251 199.6 157.443 199.396C157.635 199.18 157.911 199.072 158.271 199.072C158.631 199.072 158.907 199.18 159.099 199.396C159.303 199.6 159.405 199.9 159.405 200.296V206.902C159.405 207.286 159.309 207.586 159.117 207.802C158.925 208.018 158.643 208.126 158.271 208.126ZM158.271 197.398C157.851 197.398 157.521 197.296 157.281 197.092C157.053 196.876 156.939 196.582 156.939 196.21C156.939 195.826 157.053 195.532 157.281 195.328C157.521 195.124 157.851 195.022 158.271 195.022C158.703 195.022 159.033 195.124 159.261 195.328C159.489 195.532 159.603 195.826 159.603 196.21C159.603 196.582 159.489 196.876 159.261 197.092C159.033 197.296 158.703 197.398 158.271 197.398ZM166.081 208.18C165.085 208.18 164.227 207.994 163.507 207.622C162.787 207.25 162.229 206.722 161.833 206.038C161.449 205.354 161.257 204.544 161.257 203.608C161.257 202.696 161.443 201.898 161.815 201.214C162.199 200.53 162.721 199.996 163.381 199.612C164.053 199.216 164.815 199.018 165.667 199.018C166.291 199.018 166.849 199.12 167.341 199.324C167.845 199.528 168.271 199.822 168.619 200.206C168.979 200.59 169.249 201.058 169.429 201.61C169.621 202.15 169.717 202.762 169.717 203.446C169.717 203.662 169.639 203.83 169.483 203.95C169.339 204.058 169.129 204.112 168.853 204.112H163.075V202.816H168.133L167.845 203.086C167.845 202.534 167.761 202.072 167.593 201.7C167.437 201.328 167.203 201.046 166.891 200.854C166.591 200.65 166.213 200.548 165.757 200.548C165.253 200.548 164.821 200.668 164.461 200.908C164.113 201.136 163.843 201.466 163.651 201.898C163.471 202.318 163.381 202.822 163.381 203.41V203.536C163.381 204.52 163.609 205.258 164.065 205.75C164.533 206.23 165.217 206.47 166.117 206.47C166.429 206.47 166.777 206.434 167.161 206.362C167.557 206.278 167.929 206.14 168.277 205.948C168.529 205.804 168.751 205.744 168.943 205.768C169.135 205.78 169.285 205.846 169.393 205.966C169.513 206.086 169.585 206.236 169.609 206.416C169.633 206.584 169.597 206.758 169.501 206.938C169.417 207.118 169.267 207.274 169.051 207.406C168.631 207.67 168.145 207.868 167.593 208C167.053 208.12 166.549 208.18 166.081 208.18ZM172.651 208.144C172.291 208.144 172.015 208.048 171.823 207.856C171.631 207.652 171.535 207.364 171.535 206.992V200.188C171.535 199.816 171.631 199.534 171.823 199.342C172.015 199.15 172.285 199.054 172.633 199.054C172.981 199.054 173.251 199.15 173.443 199.342C173.635 199.534 173.731 199.816 173.731 200.188V201.502L173.533 200.962C173.773 200.362 174.145 199.888 174.649 199.54C175.153 199.192 175.753 199.018 176.449 199.018C177.157 199.018 177.739 199.186 178.195 199.522C178.651 199.858 178.969 200.374 179.149 201.07H178.897C179.137 200.434 179.533 199.936 180.085 199.576C180.637 199.204 181.273 199.018 181.993 199.018C182.665 199.018 183.217 199.15 183.649 199.414C184.093 199.678 184.423 200.08 184.639 200.62C184.855 201.148 184.963 201.82 184.963 202.636V206.992C184.963 207.364 184.861 207.652 184.657 207.856C184.465 208.048 184.189 208.144 183.829 208.144C183.469 208.144 183.193 208.048 183.001 207.856C182.809 207.652 182.713 207.364 182.713 206.992V202.726C182.713 202.054 182.599 201.562 182.371 201.25C182.155 200.938 181.783 200.782 181.255 200.782C180.667 200.782 180.205 200.992 179.869 201.412C179.533 201.82 179.365 202.39 179.365 203.122V206.992C179.365 207.364 179.269 207.652 179.077 207.856C178.885 208.048 178.609 208.144 178.249 208.144C177.889 208.144 177.607 208.048 177.403 207.856C177.211 207.652 177.115 207.364 177.115 206.992V202.726C177.115 202.054 177.001 201.562 176.773 201.25C176.557 200.938 176.191 200.782 175.675 200.782C175.087 200.782 174.625 200.992 174.289 201.412C173.953 201.82 173.785 202.39 173.785 203.122V206.992C173.785 207.76 173.407 208.144 172.651 208.144ZM188.4 211.384C188.04 211.384 187.764 211.288 187.572 211.096C187.38 210.904 187.284 210.622 187.284 210.25V200.188C187.284 199.816 187.38 199.534 187.572 199.342C187.764 199.15 188.034 199.054 188.382 199.054C188.742 199.054 189.018 199.15 189.21 199.342C189.402 199.534 189.498 199.816 189.498 200.188V201.592L189.3 201.052C189.48 200.44 189.846 199.948 190.398 199.576C190.962 199.204 191.616 199.018 192.36 199.018C193.128 199.018 193.8 199.204 194.376 199.576C194.964 199.948 195.42 200.476 195.744 201.16C196.068 201.832 196.23 202.642 196.23 203.59C196.23 204.526 196.068 205.342 195.744 206.038C195.42 206.722 194.97 207.25 194.394 207.622C193.818 207.994 193.14 208.18 192.36 208.18C191.628 208.18 190.986 208 190.434 207.64C189.882 207.268 189.51 206.788 189.318 206.2H189.534V210.25C189.534 210.622 189.432 210.904 189.228 211.096C189.036 211.288 188.76 211.384 188.4 211.384ZM191.73 206.47C192.174 206.47 192.564 206.362 192.9 206.146C193.236 205.93 193.494 205.612 193.674 205.192C193.866 204.76 193.962 204.226 193.962 203.59C193.962 202.63 193.758 201.916 193.35 201.448C192.942 200.968 192.402 200.728 191.73 200.728C191.286 200.728 190.896 200.836 190.56 201.052C190.224 201.256 189.96 201.574 189.768 202.006C189.588 202.426 189.498 202.954 189.498 203.59C189.498 204.538 189.702 205.258 190.11 205.75C190.518 206.23 191.058 206.47 191.73 206.47ZM202.091 208.18C201.179 208.18 200.387 207.994 199.715 207.622C199.043 207.25 198.521 206.722 198.149 206.038C197.777 205.342 197.591 204.526 197.591 203.59C197.591 202.882 197.693 202.252 197.897 201.7C198.113 201.136 198.419 200.656 198.815 200.26C199.211 199.852 199.685 199.546 200.237 199.342C200.789 199.126 201.407 199.018 202.091 199.018C203.003 199.018 203.795 199.204 204.467 199.576C205.139 199.948 205.661 200.476 206.033 201.16C206.405 201.844 206.591 202.654 206.591 203.59C206.591 204.298 206.483 204.934 206.267 205.498C206.063 206.062 205.763 206.548 205.367 206.956C204.971 207.352 204.497 207.658 203.945 207.874C203.393 208.078 202.775 208.18 202.091 208.18ZM202.091 206.47C202.535 206.47 202.925 206.362 203.261 206.146C203.597 205.93 203.855 205.612 204.035 205.192C204.227 204.76 204.323 204.226 204.323 203.59C204.323 202.63 204.119 201.916 203.711 201.448C203.303 200.968 202.763 200.728 202.091 200.728C201.647 200.728 201.257 200.836 200.921 201.052C200.585 201.256 200.321 201.574 200.129 202.006C199.949 202.426 199.859 202.954 199.859 203.59C199.859 204.538 200.063 205.258 200.471 205.75C200.879 206.23 201.419 206.47 202.091 206.47ZM214.703 208.144C214.331 208.144 214.043 208.042 213.839 207.838C213.647 207.622 213.551 207.328 213.551 206.956V196.48C213.551 196.096 213.653 195.808 213.857 195.616C214.061 195.412 214.349 195.31 214.721 195.31H219.059C220.451 195.31 221.525 195.646 222.281 196.318C223.037 196.978 223.415 197.908 223.415 199.108C223.415 199.888 223.241 200.56 222.893 201.124C222.557 201.688 222.065 202.12 221.417 202.42C220.769 202.72 219.983 202.87 219.059 202.87L219.221 202.6H219.815C220.307 202.6 220.733 202.72 221.093 202.96C221.465 203.2 221.789 203.578 222.065 204.094L223.415 206.596C223.559 206.848 223.625 207.094 223.613 207.334C223.601 207.574 223.511 207.772 223.343 207.928C223.175 208.072 222.929 208.144 222.605 208.144C222.281 208.144 222.017 208.078 221.813 207.946C221.609 207.802 221.429 207.586 221.273 207.298L219.455 203.95C219.239 203.542 218.981 203.272 218.681 203.14C218.393 202.996 218.021 202.924 217.565 202.924H215.855V206.956C215.855 207.328 215.759 207.622 215.567 207.838C215.375 208.042 215.087 208.144 214.703 208.144ZM215.855 201.214H218.663C219.491 201.214 220.115 201.046 220.535 200.71C220.967 200.362 221.183 199.846 221.183 199.162C221.183 198.49 220.967 197.986 220.535 197.65C220.115 197.302 219.491 197.128 218.663 197.128H215.855V201.214ZM229.784 208.18C228.788 208.18 227.93 207.994 227.21 207.622C226.49 207.25 225.932 206.722 225.536 206.038C225.152 205.354 224.96 204.544 224.96 203.608C224.96 202.696 225.146 201.898 225.518 201.214C225.902 200.53 226.424 199.996 227.084 199.612C227.756 199.216 228.518 199.018 229.37 199.018C229.994 199.018 230.552 199.12 231.044 199.324C231.548 199.528 231.974 199.822 232.322 200.206C232.682 200.59 232.952 201.058 233.132 201.61C233.324 202.15 233.42 202.762 233.42 203.446C233.42 203.662 233.342 203.83 233.186 203.95C233.042 204.058 232.832 204.112 232.556 204.112H226.778V202.816H231.836L231.548 203.086C231.548 202.534 231.464 202.072 231.296 201.7C231.14 201.328 230.906 201.046 230.594 200.854C230.294 200.65 229.916 200.548 229.46 200.548C228.956 200.548 228.524 200.668 228.164 200.908C227.816 201.136 227.546 201.466 227.354 201.898C227.174 202.318 227.084 202.822 227.084 203.41V203.536C227.084 204.52 227.312 205.258 227.768 205.75C228.236 206.23 228.92 206.47 229.82 206.47C230.132 206.47 230.48 206.434 230.864 206.362C231.26 206.278 231.632 206.14 231.98 205.948C232.232 205.804 232.454 205.744 232.646 205.768C232.838 205.78 232.988 205.846 233.096 205.966C233.216 206.086 233.288 206.236 233.312 206.416C233.336 206.584 233.3 206.758 233.204 206.938C233.12 207.118 232.97 207.274 232.754 207.406C232.334 207.67 231.848 207.868 231.296 208C230.756 208.12 230.252 208.18 229.784 208.18ZM238.1 208.18C237.464 208.18 236.894 208.06 236.39 207.82C235.898 207.568 235.508 207.232 235.22 206.812C234.944 206.392 234.806 205.918 234.806 205.39C234.806 204.742 234.974 204.232 235.31 203.86C235.646 203.476 236.192 203.2 236.948 203.032C237.704 202.864 238.718 202.78 239.99 202.78H240.89V204.076H240.008C239.264 204.076 238.67 204.112 238.226 204.184C237.782 204.256 237.464 204.382 237.272 204.562C237.092 204.73 237.002 204.97 237.002 205.282C237.002 205.678 237.14 206.002 237.416 206.254C237.692 206.506 238.076 206.632 238.568 206.632C238.964 206.632 239.312 206.542 239.612 206.362C239.924 206.17 240.17 205.912 240.35 205.588C240.53 205.264 240.62 204.892 240.62 204.472V202.402C240.62 201.802 240.488 201.37 240.224 201.106C239.96 200.842 239.516 200.71 238.892 200.71C238.544 200.71 238.166 200.752 237.758 200.836C237.362 200.92 236.942 201.064 236.498 201.268C236.27 201.376 236.066 201.406 235.886 201.358C235.718 201.31 235.586 201.214 235.49 201.07C235.394 200.914 235.346 200.746 235.346 200.566C235.346 200.386 235.394 200.212 235.49 200.044C235.586 199.864 235.748 199.732 235.976 199.648C236.528 199.42 237.056 199.258 237.56 199.162C238.076 199.066 238.544 199.018 238.964 199.018C239.828 199.018 240.536 199.15 241.088 199.414C241.652 199.678 242.072 200.08 242.348 200.62C242.624 201.148 242.762 201.832 242.762 202.672V206.992C242.762 207.364 242.672 207.652 242.492 207.856C242.312 208.048 242.054 208.144 241.718 208.144C241.382 208.144 241.118 208.048 240.926 207.856C240.746 207.652 240.656 207.364 240.656 206.992V206.128H240.8C240.716 206.548 240.548 206.914 240.296 207.226C240.056 207.526 239.75 207.76 239.378 207.928C239.006 208.096 238.58 208.18 238.1 208.18ZM248.052 208.18C247.056 208.18 246.306 207.898 245.802 207.334C245.298 206.758 245.046 205.918 245.046 204.814V196.3C245.046 195.928 245.142 195.646 245.334 195.454C245.526 195.262 245.802 195.166 246.162 195.166C246.522 195.166 246.798 195.262 246.99 195.454C247.194 195.646 247.296 195.928 247.296 196.3V204.706C247.296 205.258 247.41 205.666 247.638 205.93C247.878 206.194 248.214 206.326 248.646 206.326C248.742 206.326 248.832 206.326 248.916 206.326C249 206.314 249.084 206.302 249.168 206.29C249.336 206.266 249.45 206.314 249.51 206.434C249.57 206.542 249.6 206.77 249.6 207.118C249.6 207.418 249.54 207.652 249.42 207.82C249.3 207.988 249.102 208.09 248.826 208.126C248.706 208.138 248.58 208.15 248.448 208.162C248.316 208.174 248.184 208.18 248.052 208.18Z" fill="black"/>
<circle cx="127" cy="80" r="79.5" fill="#F8F8F8" stroke="#444444"/>
<path fill-rule="evenodd" clip-rule="evenodd" d="M127.233 40.6469C133.763 41.9458 139.762 45.1521 144.47 49.8603C150.783 56.1737 154.33 64.7365 154.33 73.6651C154.33 82.5936 150.783 91.1564 144.47 97.4699C139.762 102.178 133.763 105.384 127.233 106.683C120.702 107.982 113.933 107.316 107.782 104.768C101.631 102.219 96.3727 97.9046 92.6736 92.3684C88.9744 86.8322 87 80.3234 87 73.6651C87 67.0068 88.9744 60.498 92.6736 54.9618C96.3727 49.4256 101.631 45.1106 107.782 42.5626C113.933 40.0146 120.702 39.3479 127.233 40.6469ZM108.426 91.6684C112.049 94.0893 116.309 95.3814 120.666 95.3814C123.559 95.3814 126.424 94.8116 129.097 93.7044C131.77 92.5972 134.199 90.9743 136.245 88.9285C138.291 86.8827 139.914 84.454 141.021 81.781C142.128 79.108 142.698 76.2431 142.698 73.3498C142.698 68.9924 141.406 64.7328 138.985 61.1097C136.564 57.4867 133.123 54.6628 129.097 52.9953C125.072 51.3278 120.642 50.8915 116.368 51.7416C112.094 52.5917 108.169 54.69 105.088 57.7712C102.006 60.8523 99.908 64.778 99.0579 69.0517C98.2078 73.3254 98.6441 77.7552 100.312 81.781C101.979 85.8067 104.803 89.2476 108.426 91.6684ZM108.502 63.717C108.502 62.4229 109.561 61.3641 110.855 61.3641H129.679C130.303 61.3641 130.901 61.6119 131.342 62.0532C131.784 62.4945 132.032 63.093 132.032 63.717V66.0699H108.502V63.717ZM109.679 67.2464H130.855V82.5405C130.855 83.1646 130.607 83.7631 130.166 84.2043C129.725 84.6456 129.126 84.8935 128.502 84.8935H112.032C111.408 84.8935 110.809 84.6456 110.368 84.2043C109.927 83.7631 109.679 83.1646 109.679 82.5405V67.2464ZM116.737 69.5993V71.9523H123.796V69.5993H116.737ZM165.35 110.455L150.719 95.8247C149.61 97.3282 148.389 98.7466 147.068 100.068C145.747 101.389 144.33 102.611 142.829 103.723L157.455 118.349C157.972 118.871 158.588 119.285 159.266 119.569C159.944 119.852 160.671 119.999 161.406 120C162.141 120.002 162.869 119.858 163.549 119.577C164.228 119.297 164.845 118.885 165.365 118.365C165.884 117.846 166.296 117.229 166.577 116.549C166.858 115.87 167.001 115.142 167 114.407C166.999 113.672 166.852 112.945 166.569 112.267C166.286 111.589 165.871 110.973 165.35 110.455Z" fill="#D96581"/>
</svg>
