<svg width="225" height="215" viewBox="0 0 225 215" fill="none" xmlns="http://www.w3.org/2000/svg">
<path d="M12.4872 208.144C12.1152 208.144 11.8272 208.042 11.6232 207.838C11.4312 207.622 11.3352 207.328 11.3352 206.956V196.48C11.3352 196.096 11.4372 195.808 11.6412 195.616C11.8452 195.412 12.1332 195.31 12.5052 195.31H16.8432C18.2352 195.31 19.3092 195.658 20.0652 196.354C20.8212 197.05 21.1992 198.022 21.1992 199.27C21.1992 200.518 20.8212 201.496 20.0652 202.204C19.3092 202.9 18.2352 203.248 16.8432 203.248H13.6392V206.956C13.6392 207.328 13.5432 207.622 13.3512 207.838C13.1592 208.042 12.8712 208.144 12.4872 208.144ZM13.6392 201.43H16.4832C17.2992 201.43 17.9172 201.25 18.3372 200.89C18.7572 200.518 18.9672 199.978 18.9672 199.27C18.9672 198.562 18.7572 198.028 18.3372 197.668C17.9172 197.308 17.2992 197.128 16.4832 197.128H13.6392V201.43ZM25.9068 208.18C25.1748 208.18 24.5688 208.048 24.0888 207.784C23.6088 207.508 23.2488 207.1 23.0088 206.56C22.7808 206.02 22.6668 205.348 22.6668 204.544V200.188C22.6668 199.804 22.7628 199.522 22.9548 199.342C23.1468 199.15 23.4228 199.054 23.7828 199.054C24.1428 199.054 24.4188 199.15 24.6108 199.342C24.8148 199.522 24.9168 199.804 24.9168 200.188V204.58C24.9168 205.204 25.0428 205.666 25.2948 205.966C25.5468 206.266 25.9488 206.416 26.5008 206.416C27.1008 206.416 27.5928 206.212 27.9768 205.804C28.3608 205.384 28.5528 204.832 28.5528 204.148V200.188C28.5528 199.804 28.6488 199.522 28.8408 199.342C29.0328 199.15 29.3088 199.054 29.6688 199.054C30.0288 199.054 30.3048 199.15 30.4968 199.342C30.7008 199.522 30.8028 199.804 30.8028 200.188V206.992C30.8028 207.76 30.4368 208.144 29.7048 208.144C29.3568 208.144 29.0868 208.048 28.8948 207.856C28.7028 207.652 28.6068 207.364 28.6068 206.992V205.624L28.8588 206.164C28.6068 206.812 28.2228 207.31 27.7068 207.658C27.2028 208.006 26.6028 208.18 25.9068 208.18ZM34.2606 208.144C33.9006 208.144 33.6246 208.048 33.4326 207.856C33.2406 207.652 33.1446 207.364 33.1446 206.992V200.188C33.1446 199.816 33.2406 199.534 33.4326 199.342C33.6246 199.15 33.8946 199.054 34.2426 199.054C34.5906 199.054 34.8606 199.15 35.0526 199.342C35.2446 199.534 35.3406 199.816 35.3406 200.188V201.412L35.1426 200.962C35.4066 200.326 35.8146 199.846 36.3666 199.522C36.9306 199.186 37.5666 199.018 38.2746 199.018C38.9826 199.018 39.5646 199.15 40.0206 199.414C40.4766 199.678 40.8186 200.08 41.0466 200.62C41.2746 201.148 41.3886 201.82 41.3886 202.636V206.992C41.3886 207.364 41.2926 207.652 41.1006 207.856C40.9086 208.048 40.6326 208.144 40.2726 208.144C39.9126 208.144 39.6306 208.048 39.4266 207.856C39.2346 207.652 39.1386 207.364 39.1386 206.992V202.744C39.1386 202.06 39.0066 201.562 38.7426 201.25C38.4906 200.938 38.0946 200.782 37.5546 200.782C36.8946 200.782 36.3666 200.992 35.9706 201.412C35.5866 201.82 35.3946 202.366 35.3946 203.05V206.992C35.3946 207.76 35.0166 208.144 34.2606 208.144ZM47.7059 208.18C46.9259 208.18 46.2719 208.048 45.7439 207.784C45.2279 207.52 44.8439 207.136 44.5919 206.632C44.3399 206.116 44.2139 205.48 44.2139 204.724V200.89H43.2779C42.9899 200.89 42.7679 200.818 42.6119 200.674C42.4559 200.518 42.3779 200.308 42.3779 200.044C42.3779 199.768 42.4559 199.558 42.6119 199.414C42.7679 199.27 42.9899 199.198 43.2779 199.198H44.2139V197.56C44.2139 197.188 44.3099 196.906 44.5019 196.714C44.7059 196.522 44.9879 196.426 45.3479 196.426C45.7079 196.426 45.9839 196.522 46.1759 196.714C46.3679 196.906 46.4639 197.188 46.4639 197.56V199.198H48.3719C48.6599 199.198 48.8819 199.27 49.0379 199.414C49.1939 199.558 49.2719 199.768 49.2719 200.044C49.2719 200.308 49.1939 200.518 49.0379 200.674C48.8819 200.818 48.6599 200.89 48.3719 200.89H46.4639V204.598C46.4639 205.174 46.5899 205.606 46.8419 205.894C47.0939 206.182 47.5019 206.326 48.0659 206.326C48.2699 206.326 48.4499 206.308 48.6059 206.272C48.7619 206.236 48.8999 206.212 49.0199 206.2C49.1639 206.188 49.2839 206.236 49.3799 206.344C49.4759 206.44 49.5239 206.644 49.5239 206.956C49.5239 207.196 49.4819 207.412 49.3979 207.604C49.3259 207.784 49.1879 207.91 48.9839 207.982C48.8279 208.03 48.6239 208.072 48.3719 208.108C48.1199 208.156 47.8979 208.18 47.7059 208.18ZM54.5082 208.18C53.5962 208.18 52.8042 207.994 52.1322 207.622C51.4602 207.25 50.9382 206.722 50.5662 206.038C50.1942 205.342 50.0082 204.526 50.0082 203.59C50.0082 202.882 50.1102 202.252 50.3142 201.7C50.5302 201.136 50.8362 200.656 51.2322 200.26C51.6282 199.852 52.1022 199.546 52.6542 199.342C53.2062 199.126 53.8242 199.018 54.5082 199.018C55.4202 199.018 56.2122 199.204 56.8842 199.576C57.5562 199.948 58.0782 200.476 58.4502 201.16C58.8222 201.844 59.0082 202.654 59.0082 203.59C59.0082 204.298 58.9002 204.934 58.6842 205.498C58.4802 206.062 58.1802 206.548 57.7842 206.956C57.3882 207.352 56.9142 207.658 56.3622 207.874C55.8102 208.078 55.1922 208.18 54.5082 208.18ZM54.5082 206.47C54.9522 206.47 55.3422 206.362 55.6782 206.146C56.0142 205.93 56.2722 205.612 56.4522 205.192C56.6442 204.76 56.7402 204.226 56.7402 203.59C56.7402 202.63 56.5362 201.916 56.1282 201.448C55.7202 200.968 55.1802 200.728 54.5082 200.728C54.0642 200.728 53.6742 200.836 53.3382 201.052C53.0022 201.256 52.7382 201.574 52.5462 202.006C52.3662 202.426 52.2762 202.954 52.2762 203.59C52.2762 204.538 52.4802 205.258 52.8882 205.75C53.2962 206.23 53.8362 206.47 54.5082 206.47ZM64.0873 208.18C63.5713 208.18 63.0253 208.126 62.4493 208.018C61.8733 207.91 61.3573 207.724 60.9013 207.46C60.7093 207.34 60.5713 207.202 60.4873 207.046C60.4153 206.878 60.3853 206.716 60.3973 206.56C60.4213 206.392 60.4813 206.248 60.5773 206.128C60.6853 206.008 60.8173 205.93 60.9733 205.894C61.1413 205.858 61.3213 205.888 61.5133 205.984C61.9933 206.212 62.4433 206.374 62.8633 206.47C63.2833 206.554 63.6973 206.596 64.1053 206.596C64.6813 206.596 65.1073 206.5 65.3833 206.308C65.6713 206.104 65.8153 205.84 65.8153 205.516C65.8153 205.24 65.7193 205.03 65.5273 204.886C65.3473 204.73 65.0713 204.616 64.6993 204.544L62.8993 204.202C62.1553 204.058 61.5853 203.788 61.1893 203.392C60.8053 202.984 60.6133 202.462 60.6133 201.826C60.6133 201.25 60.7693 200.752 61.0813 200.332C61.4053 199.912 61.8493 199.588 62.4133 199.36C62.9773 199.132 63.6253 199.018 64.3573 199.018C64.8853 199.018 65.3773 199.078 65.8333 199.198C66.3013 199.306 66.7513 199.48 67.1833 199.72C67.3633 199.816 67.4833 199.942 67.5433 200.098C67.6153 200.254 67.6333 200.416 67.5973 200.584C67.5613 200.74 67.4893 200.884 67.3813 201.016C67.2733 201.136 67.1353 201.214 66.9673 201.25C66.8113 201.274 66.6313 201.238 66.4273 201.142C66.0553 200.95 65.6953 200.812 65.3473 200.728C65.0113 200.644 64.6873 200.602 64.3753 200.602C63.7873 200.602 63.3493 200.704 63.0613 200.908C62.7853 201.112 62.6473 201.382 62.6473 201.718C62.6473 201.97 62.7313 202.18 62.8993 202.348C63.0673 202.516 63.3253 202.63 63.6733 202.69L65.4733 203.032C66.2533 203.176 66.8413 203.44 67.2373 203.824C67.6453 204.208 67.8493 204.724 67.8493 205.372C67.8493 206.248 67.5073 206.938 66.8233 207.442C66.1393 207.934 65.2273 208.18 64.0873 208.18ZM75.9091 208.144C75.5371 208.144 75.2491 208.042 75.0451 207.838C74.8531 207.622 74.7571 207.328 74.7571 206.956V196.48C74.7571 196.096 74.8591 195.808 75.0631 195.616C75.2671 195.412 75.5551 195.31 75.9271 195.31H80.2651C81.6571 195.31 82.7311 195.658 83.4871 196.354C84.2431 197.05 84.6211 198.022 84.6211 199.27C84.6211 200.518 84.2431 201.496 83.4871 202.204C82.7311 202.9 81.6571 203.248 80.2651 203.248H77.0611V206.956C77.0611 207.328 76.9651 207.622 76.7731 207.838C76.5811 208.042 76.2931 208.144 75.9091 208.144ZM77.0611 201.43H79.9051C80.7211 201.43 81.3391 201.25 81.7591 200.89C82.1791 200.518 82.3891 199.978 82.3891 199.27C82.3891 198.562 82.1791 198.028 81.7591 197.668C81.3391 197.308 80.7211 197.128 79.9051 197.128H77.0611V201.43ZM89.8578 208.18C88.9458 208.18 88.1538 207.994 87.4818 207.622C86.8098 207.25 86.2878 206.722 85.9158 206.038C85.5438 205.342 85.3578 204.526 85.3578 203.59C85.3578 202.882 85.4598 202.252 85.6638 201.7C85.8798 201.136 86.1858 200.656 86.5818 200.26C86.9778 199.852 87.4518 199.546 88.0038 199.342C88.5558 199.126 89.1738 199.018 89.8578 199.018C90.7698 199.018 91.5618 199.204 92.2338 199.576C92.9058 199.948 93.4278 200.476 93.7998 201.16C94.1718 201.844 94.3578 202.654 94.3578 203.59C94.3578 204.298 94.2498 204.934 94.0338 205.498C93.8298 206.062 93.5298 206.548 93.1338 206.956C92.7378 207.352 92.2638 207.658 91.7118 207.874C91.1598 208.078 90.5418 208.18 89.8578 208.18ZM89.8578 206.47C90.3018 206.47 90.6918 206.362 91.0278 206.146C91.3638 205.93 91.6218 205.612 91.8018 205.192C91.9938 204.76 92.0898 204.226 92.0898 203.59C92.0898 202.63 91.8858 201.916 91.4778 201.448C91.0698 200.968 90.5298 200.728 89.8578 200.728C89.4138 200.728 89.0238 200.836 88.6878 201.052C88.3518 201.256 88.0878 201.574 87.8958 202.006C87.7158 202.426 87.6258 202.954 87.6258 203.59C87.6258 204.538 87.8298 205.258 88.2378 205.75C88.6458 206.23 89.1858 206.47 89.8578 206.47ZM97.3669 208.144C96.9949 208.144 96.7069 208.048 96.5029 207.856C96.3109 207.652 96.2149 207.364 96.2149 206.992V200.188C96.2149 199.816 96.3109 199.534 96.5029 199.342C96.6949 199.15 96.9649 199.054 97.3129 199.054C97.6609 199.054 97.9309 199.15 98.1229 199.342C98.3149 199.534 98.4109 199.816 98.4109 200.188V201.322H98.2309C98.3989 200.602 98.7289 200.056 99.2209 199.684C99.7129 199.312 100.367 199.09 101.183 199.018C101.435 198.994 101.633 199.06 101.777 199.216C101.933 199.36 102.023 199.588 102.047 199.9C102.071 200.2 101.999 200.446 101.831 200.638C101.675 200.818 101.435 200.926 101.111 200.962L100.715 200.998C99.9829 201.07 99.4309 201.298 99.0589 201.682C98.6869 202.054 98.5009 202.582 98.5009 203.266V206.992C98.5009 207.364 98.4049 207.652 98.2129 207.856C98.0209 208.048 97.7389 208.144 97.3669 208.144ZM112.578 208.144C112.206 208.144 111.918 208.042 111.714 207.838C111.522 207.622 111.426 207.328 111.426 206.956V197.236H107.916C107.604 197.236 107.358 197.152 107.178 196.984C107.01 196.804 106.926 196.564 106.926 196.264C106.926 195.952 107.01 195.718 107.178 195.562C107.358 195.394 107.604 195.31 107.916 195.31H117.24C117.552 195.31 117.792 195.394 117.96 195.562C118.14 195.718 118.23 195.952 118.23 196.264C118.23 196.564 118.14 196.804 117.96 196.984C117.792 197.152 117.552 197.236 117.24 197.236H113.73V206.956C113.73 207.328 113.634 207.622 113.442 207.838C113.25 208.042 112.962 208.144 112.578 208.144ZM121.163 208.18C120.431 208.18 119.825 208.048 119.345 207.784C118.865 207.508 118.505 207.1 118.265 206.56C118.037 206.02 117.923 205.348 117.923 204.544V200.188C117.923 199.804 118.019 199.522 118.211 199.342C118.403 199.15 118.679 199.054 119.039 199.054C119.399 199.054 119.675 199.15 119.867 199.342C120.071 199.522 120.173 199.804 120.173 200.188V204.58C120.173 205.204 120.299 205.666 120.551 205.966C120.803 206.266 121.205 206.416 121.757 206.416C122.357 206.416 122.849 206.212 123.233 205.804C123.617 205.384 123.809 204.832 123.809 204.148V200.188C123.809 199.804 123.905 199.522 124.097 199.342C124.289 199.15 124.565 199.054 124.925 199.054C125.285 199.054 125.561 199.15 125.753 199.342C125.957 199.522 126.059 199.804 126.059 200.188V206.992C126.059 207.76 125.693 208.144 124.961 208.144C124.613 208.144 124.343 208.048 124.151 207.856C123.959 207.652 123.863 207.364 123.863 206.992V205.624L124.115 206.164C123.863 206.812 123.479 207.31 122.963 207.658C122.459 208.006 121.859 208.18 121.163 208.18ZM131.622 208.18C131.106 208.18 130.56 208.126 129.984 208.018C129.408 207.91 128.892 207.724 128.436 207.46C128.244 207.34 128.106 207.202 128.022 207.046C127.95 206.878 127.92 206.716 127.932 206.56C127.956 206.392 128.016 206.248 128.112 206.128C128.22 206.008 128.352 205.93 128.508 205.894C128.676 205.858 128.856 205.888 129.048 205.984C129.528 206.212 129.978 206.374 130.398 206.47C130.818 206.554 131.232 206.596 131.64 206.596C132.216 206.596 132.642 206.5 132.918 206.308C133.206 206.104 133.35 205.84 133.35 205.516C133.35 205.24 133.254 205.03 133.062 204.886C132.882 204.73 132.606 204.616 132.234 204.544L130.434 204.202C129.69 204.058 129.12 203.788 128.724 203.392C128.34 202.984 128.148 202.462 128.148 201.826C128.148 201.25 128.304 200.752 128.616 200.332C128.94 199.912 129.384 199.588 129.948 199.36C130.512 199.132 131.16 199.018 131.892 199.018C132.42 199.018 132.912 199.078 133.368 199.198C133.836 199.306 134.286 199.48 134.718 199.72C134.898 199.816 135.018 199.942 135.078 200.098C135.15 200.254 135.168 200.416 135.132 200.584C135.096 200.74 135.024 200.884 134.916 201.016C134.808 201.136 134.67 201.214 134.502 201.25C134.346 201.274 134.166 201.238 133.962 201.142C133.59 200.95 133.23 200.812 132.882 200.728C132.546 200.644 132.222 200.602 131.91 200.602C131.322 200.602 130.884 200.704 130.596 200.908C130.32 201.112 130.182 201.382 130.182 201.718C130.182 201.97 130.266 202.18 130.434 202.348C130.602 202.516 130.86 202.63 131.208 202.69L133.008 203.032C133.788 203.176 134.376 203.44 134.772 203.824C135.18 204.208 135.384 204.724 135.384 205.372C135.384 206.248 135.042 206.938 134.358 207.442C133.674 207.934 132.762 208.18 131.622 208.18ZM148.196 208.18C146.876 208.18 145.742 207.916 144.794 207.388C143.858 206.848 143.138 206.092 142.634 205.12C142.13 204.136 141.878 202.978 141.878 201.646C141.878 200.65 142.022 199.756 142.31 198.964C142.598 198.16 143.012 197.476 143.552 196.912C144.092 196.336 144.752 195.898 145.532 195.598C146.324 195.286 147.212 195.13 148.196 195.13C148.856 195.13 149.504 195.214 150.14 195.382C150.776 195.55 151.334 195.79 151.814 196.102C152.066 196.258 152.234 196.45 152.318 196.678C152.402 196.894 152.42 197.11 152.372 197.326C152.324 197.53 152.222 197.704 152.066 197.848C151.922 197.992 151.736 198.076 151.508 198.1C151.292 198.112 151.052 198.034 150.788 197.866C150.416 197.626 150.014 197.452 149.582 197.344C149.15 197.236 148.712 197.182 148.268 197.182C147.416 197.182 146.696 197.356 146.108 197.704C145.52 198.052 145.076 198.556 144.776 199.216C144.476 199.876 144.326 200.686 144.326 201.646C144.326 202.594 144.476 203.404 144.776 204.076C145.076 204.748 145.52 205.258 146.108 205.606C146.696 205.954 147.416 206.128 148.268 206.128C148.724 206.128 149.174 206.074 149.618 205.966C150.062 205.846 150.482 205.666 150.878 205.426C151.142 205.27 151.376 205.204 151.58 205.228C151.796 205.24 151.976 205.312 152.12 205.444C152.264 205.576 152.36 205.744 152.408 205.948C152.456 206.14 152.444 206.344 152.372 206.56C152.3 206.764 152.156 206.944 151.94 207.1C151.46 207.448 150.884 207.718 150.212 207.91C149.552 208.09 148.88 208.18 148.196 208.18ZM157.692 208.18C156.78 208.18 155.988 207.994 155.316 207.622C154.644 207.25 154.122 206.722 153.75 206.038C153.378 205.342 153.192 204.526 153.192 203.59C153.192 202.882 153.294 202.252 153.498 201.7C153.714 201.136 154.02 200.656 154.416 200.26C154.812 199.852 155.286 199.546 155.838 199.342C156.39 199.126 157.008 199.018 157.692 199.018C158.604 199.018 159.396 199.204 160.068 199.576C160.74 199.948 161.262 200.476 161.634 201.16C162.006 201.844 162.192 202.654 162.192 203.59C162.192 204.298 162.084 204.934 161.868 205.498C161.664 206.062 161.364 206.548 160.968 206.956C160.572 207.352 160.098 207.658 159.546 207.874C158.994 208.078 158.376 208.18 157.692 208.18ZM157.692 206.47C158.136 206.47 158.526 206.362 158.862 206.146C159.198 205.93 159.456 205.612 159.636 205.192C159.828 204.76 159.924 204.226 159.924 203.59C159.924 202.63 159.72 201.916 159.312 201.448C158.904 200.968 158.364 200.728 157.692 200.728C157.248 200.728 156.858 200.836 156.522 201.052C156.186 201.256 155.922 201.574 155.73 202.006C155.55 202.426 155.46 202.954 155.46 203.59C155.46 204.538 155.664 205.258 156.072 205.75C156.48 206.23 157.02 206.47 157.692 206.47ZM165.201 208.144C164.841 208.144 164.565 208.048 164.373 207.856C164.181 207.652 164.085 207.364 164.085 206.992V200.188C164.085 199.816 164.181 199.534 164.373 199.342C164.565 199.15 164.835 199.054 165.183 199.054C165.531 199.054 165.801 199.15 165.993 199.342C166.185 199.534 166.281 199.816 166.281 200.188V201.502L166.083 200.962C166.323 200.362 166.695 199.888 167.199 199.54C167.703 199.192 168.303 199.018 168.999 199.018C169.707 199.018 170.289 199.186 170.745 199.522C171.201 199.858 171.519 200.374 171.699 201.07H171.447C171.687 200.434 172.083 199.936 172.635 199.576C173.187 199.204 173.823 199.018 174.543 199.018C175.215 199.018 175.767 199.15 176.199 199.414C176.643 199.678 176.973 200.08 177.189 200.62C177.405 201.148 177.513 201.82 177.513 202.636V206.992C177.513 207.364 177.411 207.652 177.207 207.856C177.015 208.048 176.739 208.144 176.379 208.144C176.019 208.144 175.743 208.048 175.551 207.856C175.359 207.652 175.263 207.364 175.263 206.992V202.726C175.263 202.054 175.149 201.562 174.921 201.25C174.705 200.938 174.333 200.782 173.805 200.782C173.217 200.782 172.755 200.992 172.419 201.412C172.083 201.82 171.915 202.39 171.915 203.122V206.992C171.915 207.364 171.819 207.652 171.627 207.856C171.435 208.048 171.159 208.144 170.799 208.144C170.439 208.144 170.157 208.048 169.953 207.856C169.761 207.652 169.665 207.364 169.665 206.992V202.726C169.665 202.054 169.551 201.562 169.323 201.25C169.107 200.938 168.741 200.782 168.225 200.782C167.637 200.782 167.175 200.992 166.839 201.412C166.503 201.82 166.335 202.39 166.335 203.122V206.992C166.335 207.76 165.957 208.144 165.201 208.144ZM180.95 211.384C180.59 211.384 180.314 211.288 180.122 211.096C179.93 210.904 179.834 210.622 179.834 210.25V200.188C179.834 199.816 179.93 199.534 180.122 199.342C180.314 199.15 180.584 199.054 180.932 199.054C181.292 199.054 181.568 199.15 181.76 199.342C181.952 199.534 182.048 199.816 182.048 200.188V201.592L181.85 201.052C182.03 200.44 182.396 199.948 182.948 199.576C183.512 199.204 184.166 199.018 184.91 199.018C185.678 199.018 186.35 199.204 186.926 199.576C187.514 199.948 187.97 200.476 188.294 201.16C188.618 201.832 188.78 202.642 188.78 203.59C188.78 204.526 188.618 205.342 188.294 206.038C187.97 206.722 187.52 207.25 186.944 207.622C186.368 207.994 185.69 208.18 184.91 208.18C184.178 208.18 183.536 208 182.984 207.64C182.432 207.268 182.06 206.788 181.868 206.2H182.084V210.25C182.084 210.622 181.982 210.904 181.778 211.096C181.586 211.288 181.31 211.384 180.95 211.384ZM184.28 206.47C184.724 206.47 185.114 206.362 185.45 206.146C185.786 205.93 186.044 205.612 186.224 205.192C186.416 204.76 186.512 204.226 186.512 203.59C186.512 202.63 186.308 201.916 185.9 201.448C185.492 200.968 184.952 200.728 184.28 200.728C183.836 200.728 183.446 200.836 183.11 201.052C182.774 201.256 182.51 201.574 182.318 202.006C182.138 202.426 182.048 202.954 182.048 203.59C182.048 204.538 182.252 205.258 182.66 205.75C183.068 206.23 183.608 206.47 184.28 206.47ZM191.779 208.144C191.407 208.144 191.119 208.048 190.915 207.856C190.723 207.652 190.627 207.364 190.627 206.992V200.188C190.627 199.816 190.723 199.534 190.915 199.342C191.107 199.15 191.377 199.054 191.725 199.054C192.073 199.054 192.343 199.15 192.535 199.342C192.727 199.534 192.823 199.816 192.823 200.188V201.322H192.643C192.811 200.602 193.141 200.056 193.633 199.684C194.125 199.312 194.779 199.09 195.595 199.018C195.847 198.994 196.045 199.06 196.189 199.216C196.345 199.36 196.435 199.588 196.459 199.9C196.483 200.2 196.411 200.446 196.243 200.638C196.087 200.818 195.847 200.926 195.523 200.962L195.127 200.998C194.395 201.07 193.843 201.298 193.471 201.682C193.099 202.054 192.913 202.582 192.913 203.266V206.992C192.913 207.364 192.817 207.652 192.625 207.856C192.433 208.048 192.151 208.144 191.779 208.144ZM200.486 208.18C199.85 208.18 199.28 208.06 198.776 207.82C198.284 207.568 197.894 207.232 197.606 206.812C197.33 206.392 197.192 205.918 197.192 205.39C197.192 204.742 197.36 204.232 197.696 203.86C198.032 203.476 198.578 203.2 199.334 203.032C200.09 202.864 201.104 202.78 202.376 202.78H203.276V204.076H202.394C201.65 204.076 201.056 204.112 200.612 204.184C200.168 204.256 199.85 204.382 199.658 204.562C199.478 204.73 199.388 204.97 199.388 205.282C199.388 205.678 199.526 206.002 199.802 206.254C200.078 206.506 200.462 206.632 200.954 206.632C201.35 206.632 201.698 206.542 201.998 206.362C202.31 206.17 202.556 205.912 202.736 205.588C202.916 205.264 203.006 204.892 203.006 204.472V202.402C203.006 201.802 202.874 201.37 202.61 201.106C202.346 200.842 201.902 200.71 201.278 200.71C200.93 200.71 200.552 200.752 200.144 200.836C199.748 200.92 199.328 201.064 198.884 201.268C198.656 201.376 198.452 201.406 198.272 201.358C198.104 201.31 197.972 201.214 197.876 201.07C197.78 200.914 197.732 200.746 197.732 200.566C197.732 200.386 197.78 200.212 197.876 200.044C197.972 199.864 198.134 199.732 198.362 199.648C198.914 199.42 199.442 199.258 199.946 199.162C200.462 199.066 200.93 199.018 201.35 199.018C202.214 199.018 202.922 199.15 203.474 199.414C204.038 199.678 204.458 200.08 204.734 200.62C205.01 201.148 205.148 201.832 205.148 202.672V206.992C205.148 207.364 205.058 207.652 204.878 207.856C204.698 208.048 204.44 208.144 204.104 208.144C203.768 208.144 203.504 208.048 203.312 207.856C203.132 207.652 203.042 207.364 203.042 206.992V206.128H203.186C203.102 206.548 202.934 206.914 202.682 207.226C202.442 207.526 202.136 207.76 201.764 207.928C201.392 208.096 200.966 208.18 200.486 208.18ZM210.654 208.18C210.138 208.18 209.592 208.126 209.016 208.018C208.44 207.91 207.924 207.724 207.468 207.46C207.276 207.34 207.138 207.202 207.054 207.046C206.982 206.878 206.952 206.716 206.964 206.56C206.988 206.392 207.048 206.248 207.144 206.128C207.252 206.008 207.384 205.93 207.54 205.894C207.708 205.858 207.888 205.888 208.08 205.984C208.56 206.212 209.01 206.374 209.43 206.47C209.85 206.554 210.264 206.596 210.672 206.596C211.248 206.596 211.674 206.5 211.95 206.308C212.238 206.104 212.382 205.84 212.382 205.516C212.382 205.24 212.286 205.03 212.094 204.886C211.914 204.73 211.638 204.616 211.266 204.544L209.466 204.202C208.722 204.058 208.152 203.788 207.756 203.392C207.372 202.984 207.18 202.462 207.18 201.826C207.18 201.25 207.336 200.752 207.648 200.332C207.972 199.912 208.416 199.588 208.98 199.36C209.544 199.132 210.192 199.018 210.924 199.018C211.452 199.018 211.944 199.078 212.4 199.198C212.868 199.306 213.318 199.48 213.75 199.72C213.93 199.816 214.05 199.942 214.11 200.098C214.182 200.254 214.2 200.416 214.164 200.584C214.128 200.74 214.056 200.884 213.948 201.016C213.84 201.136 213.702 201.214 213.534 201.25C213.378 201.274 213.198 201.238 212.994 201.142C212.622 200.95 212.262 200.812 211.914 200.728C211.578 200.644 211.254 200.602 210.942 200.602C210.354 200.602 209.916 200.704 209.628 200.908C209.352 201.112 209.214 201.382 209.214 201.718C209.214 201.97 209.298 202.18 209.466 202.348C209.634 202.516 209.892 202.63 210.24 202.69L212.04 203.032C212.82 203.176 213.408 203.44 213.804 203.824C214.212 204.208 214.416 204.724 214.416 205.372C214.416 206.248 214.074 206.938 213.39 207.442C212.706 207.934 211.794 208.18 210.654 208.18Z" fill="black"/>
<circle cx="112" cy="80" r="79.5" fill="#F8F8F8" stroke="#444444"/>
<path d="M150.075 47.2755H138.019C138.437 45.2392 138.034 43.1229 136.893 41.3848C136.102 40.4721 134.94 39.9667 133.734 40.003C128.004 40.8394 122.655 43.3738 118.373 47.2755H105.954C101.538 43.3156 96.0327 40.7812 90.1571 40.003C88.9369 39.9558 87.764 40.4648 86.9614 41.3848C85.8357 43.1265 85.4435 45.2465 85.872 47.2755H73.8157C72.8134 47.2755 72 48.09 72 49.0936V63.6385C72 64.6421 72.8134 65.4566 73.8157 65.4566H98.473L96.512 69.0928H77.4471C76.4448 69.0928 75.6314 69.9073 75.6314 70.9109V118.182C75.6314 119.185 76.4448 120 77.4471 120H106.498C107.501 120 108.314 119.185 108.314 118.182V71.9291L111.946 64.6566L115.577 74.1835V118.182C115.577 119.185 116.39 120 117.393 120H146.444C147.446 120 148.26 119.185 148.26 118.182V70.9109C148.26 69.9073 147.446 69.0928 146.444 69.0928H126.217L124.764 65.4566H150.184C151.187 65.4566 152 64.6421 152 63.6385V49.0936C152 48.09 151.19 47.2755 150.188 47.2718C150.152 47.2718 150.112 47.2718 150.075 47.2755ZM123.276 71.5655L121.532 70.9837C120.581 70.6746 119.557 71.1946 119.245 72.1473L118.99 72.8745L114.379 61.2386C115.203 60.9295 115.966 60.475 116.63 59.8932L119.099 61.0931L120.334 64.1839L123.276 71.5655ZM103.557 73.4199L102.576 71.7836C102.141 71.0418 101.247 70.711 100.434 70.9837L99.3445 71.3473L104.683 61.4204L107.334 60.2204C107.904 60.6786 108.543 61.0459 109.222 61.3113L103.557 73.4199ZM115.577 54.5479C115.577 56.5551 113.95 58.1842 111.946 58.1842C109.941 58.1842 108.314 56.5551 108.314 54.5479C108.314 52.5407 109.941 50.9117 111.946 50.9117C113.95 50.9117 115.577 52.5407 115.577 54.5479ZM134.17 43.6392C134.751 44.3301 134.46 46.9119 134.17 48.6936V49.2754C134.17 49.9299 133.988 50.5481 133.916 51.1299C133.887 51.6135 133.887 52.1007 133.916 52.5844V53.748C133.916 55.8206 133.916 60.1114 132.79 61.384C131.664 62.6567 126.072 60.3295 121.315 58.1842L118.809 57.0206C119.466 55.3624 119.466 53.5152 118.809 51.8571C123.602 47.2755 130.103 43.6392 133.734 43.6392C133.872 43.5811 134.032 43.5811 134.17 43.6392ZM89.7213 43.6392C89.8593 43.5811 90.0191 43.5811 90.1571 43.6392C95.9128 44.6501 101.215 47.4209 105.336 51.5662C104.57 53.3807 104.57 55.4243 105.336 57.2387C100.035 59.6023 92.2996 62.584 91.2465 61.5295C90.1934 60.475 90.1571 55.9661 90.1571 53.8934V52.7298C90.1861 52.2462 90.1861 51.7589 90.1571 51.2753C90.1571 50.6935 90.1571 50.0754 89.9029 49.4208V48.8391C89.4308 46.9846 89.1403 44.4392 89.7213 43.6392Z" fill="#D96581"/>
</svg>
