<svg width="211" height="215" viewBox="0 0 211 215" fill="none" xmlns="http://www.w3.org/2000/svg">
<path d="M2.3896 204.076C2.1256 204.076 1.9036 203.992 1.7236 203.824C1.5556 203.644 1.4716 203.428 1.4716 203.176C1.4716 202.912 1.5556 202.696 1.7236 202.528C1.9036 202.36 2.1256 202.276 2.3896 202.276H6.2236C6.4756 202.276 6.6856 202.36 6.8536 202.528C7.0336 202.696 7.1236 202.912 7.1236 203.176C7.1236 203.428 7.0336 203.644 6.8536 203.824C6.6856 203.992 6.4756 204.076 6.2236 204.076H2.3896ZM10.6623 208.144C10.3143 208.144 10.0443 208.048 9.85229 207.856C9.67229 207.664 9.58229 207.388 9.58229 207.028V196.318C9.58229 195.946 9.67229 195.664 9.85229 195.472C10.0443 195.268 10.2903 195.166 10.5903 195.166C10.8663 195.166 11.0703 195.22 11.2023 195.328C11.3463 195.424 11.5143 195.592 11.7063 195.832L18.6003 204.778H18.1323V196.264C18.1323 195.916 18.2223 195.646 18.4023 195.454C18.5943 195.262 18.8643 195.166 19.2123 195.166C19.5603 195.166 19.8243 195.262 20.0043 195.454C20.1843 195.646 20.2743 195.916 20.2743 196.264V207.064C20.2743 207.4 20.1903 207.664 20.0223 207.856C19.8543 208.048 19.6263 208.144 19.3383 208.144C19.0623 208.144 18.8403 208.09 18.6723 207.982C18.5163 207.874 18.3423 207.7 18.1503 207.46L11.2743 198.514H11.7243V207.028C11.7243 207.388 11.6343 207.664 11.4543 207.856C11.2743 208.048 11.0103 208.144 10.6623 208.144ZM26.8451 208.18C25.9331 208.18 25.1411 207.994 24.4691 207.622C23.7971 207.25 23.2751 206.722 22.9031 206.038C22.5311 205.342 22.3451 204.526 22.3451 203.59C22.3451 202.882 22.4471 202.252 22.6511 201.7C22.8671 201.136 23.1731 200.656 23.5691 200.26C23.9651 199.852 24.4391 199.546 24.9911 199.342C25.5431 199.126 26.1611 199.018 26.8451 199.018C27.7571 199.018 28.5491 199.204 29.2211 199.576C29.8931 199.948 30.4151 200.476 30.7871 201.16C31.1591 201.844 31.3451 202.654 31.3451 203.59C31.3451 204.298 31.2371 204.934 31.0211 205.498C30.8171 206.062 30.5171 206.548 30.1211 206.956C29.7251 207.352 29.2511 207.658 28.6991 207.874C28.1471 208.078 27.5291 208.18 26.8451 208.18ZM26.8451 206.47C27.2891 206.47 27.6791 206.362 28.0151 206.146C28.3511 205.93 28.6091 205.612 28.7891 205.192C28.9811 204.76 29.0771 204.226 29.0771 203.59C29.0771 202.63 28.8731 201.916 28.4651 201.448C28.0571 200.968 27.5171 200.728 26.8451 200.728C26.4011 200.728 26.0111 200.836 25.6751 201.052C25.3391 201.256 25.0751 201.574 24.8831 202.006C24.7031 202.426 24.6131 202.954 24.6131 203.59C24.6131 204.538 24.8171 205.258 25.2251 205.75C25.6331 206.23 26.1731 206.47 26.8451 206.47ZM37.1463 208.18C36.3663 208.18 35.7123 208.048 35.1843 207.784C34.6683 207.52 34.2843 207.136 34.0323 206.632C33.7803 206.116 33.6543 205.48 33.6543 204.724V200.89H32.7183C32.4303 200.89 32.2083 200.818 32.0523 200.674C31.8963 200.518 31.8183 200.308 31.8183 200.044C31.8183 199.768 31.8963 199.558 32.0523 199.414C32.2083 199.27 32.4303 199.198 32.7183 199.198H33.6543V197.56C33.6543 197.188 33.7503 196.906 33.9423 196.714C34.1463 196.522 34.4283 196.426 34.7883 196.426C35.1483 196.426 35.4243 196.522 35.6163 196.714C35.8083 196.906 35.9043 197.188 35.9043 197.56V199.198H37.8123C38.1003 199.198 38.3223 199.27 38.4783 199.414C38.6343 199.558 38.7123 199.768 38.7123 200.044C38.7123 200.308 38.6343 200.518 38.4783 200.674C38.3223 200.818 38.1003 200.89 37.8123 200.89H35.9043V204.598C35.9043 205.174 36.0303 205.606 36.2823 205.894C36.5343 206.182 36.9423 206.326 37.5063 206.326C37.7103 206.326 37.8903 206.308 38.0463 206.272C38.2023 206.236 38.3403 206.212 38.4603 206.2C38.6043 206.188 38.7243 206.236 38.8203 206.344C38.9163 206.44 38.9643 206.644 38.9643 206.956C38.9643 207.196 38.9223 207.412 38.8383 207.604C38.7663 207.784 38.6283 207.91 38.4243 207.982C38.2683 208.03 38.0643 208.072 37.8123 208.108C37.5603 208.156 37.3383 208.18 37.1463 208.18ZM41.3671 208.126C41.0071 208.126 40.7311 208.018 40.5391 207.802C40.3471 207.586 40.2511 207.286 40.2511 206.902V200.296C40.2511 199.9 40.3471 199.6 40.5391 199.396C40.7311 199.18 41.0071 199.072 41.3671 199.072C41.7271 199.072 42.0031 199.18 42.1951 199.396C42.3991 199.6 42.5011 199.9 42.5011 200.296V206.902C42.5011 207.286 42.4051 207.586 42.2131 207.802C42.0211 208.018 41.7391 208.126 41.3671 208.126ZM41.3671 197.398C40.9471 197.398 40.6171 197.296 40.3771 197.092C40.1491 196.876 40.0351 196.582 40.0351 196.21C40.0351 195.826 40.1491 195.532 40.3771 195.328C40.6171 195.124 40.9471 195.022 41.3671 195.022C41.7991 195.022 42.1291 195.124 42.3571 195.328C42.5851 195.532 42.6991 195.826 42.6991 196.21C42.6991 196.582 42.5851 196.876 42.3571 197.092C42.1291 197.296 41.7991 197.398 41.3671 197.398ZM46.5669 208.144C46.2069 208.144 45.9249 208.048 45.7209 207.856C45.5289 207.652 45.4329 207.364 45.4329 206.992V200.89H44.6049C44.3169 200.89 44.0949 200.818 43.9389 200.674C43.7829 200.518 43.7049 200.308 43.7049 200.044C43.7049 199.768 43.7829 199.558 43.9389 199.414C44.0949 199.27 44.3169 199.198 44.6049 199.198H46.0809L45.4329 199.792V199.18C45.4329 197.968 45.7389 197.05 46.3509 196.426C46.9629 195.802 47.8509 195.43 49.0149 195.31L49.5549 195.256C49.8309 195.232 50.0469 195.268 50.2029 195.364C50.3709 195.46 50.4789 195.592 50.5269 195.76C50.5869 195.916 50.5989 196.084 50.5629 196.264C50.5269 196.432 50.4549 196.582 50.3469 196.714C50.2389 196.834 50.1009 196.9 49.9329 196.912L49.5009 196.948C48.8649 196.996 48.4029 197.17 48.1149 197.47C47.8269 197.77 47.6829 198.22 47.6829 198.82V199.486L47.3949 199.198H52.3809C52.7409 199.198 53.0169 199.306 53.2089 199.522C53.4009 199.726 53.4969 200.02 53.4969 200.404V206.902C53.4969 207.286 53.4009 207.586 53.2089 207.802C53.0289 208.018 52.7529 208.126 52.3809 208.126C52.0209 208.126 51.7389 208.018 51.5349 207.802C51.3429 207.586 51.2469 207.286 51.2469 206.902V200.89H47.6829V206.992C47.6829 207.76 47.3109 208.144 46.5669 208.144ZM52.4169 197.398C52.0089 197.398 51.6909 197.296 51.4629 197.092C51.2469 196.876 51.1389 196.582 51.1389 196.21C51.1389 195.826 51.2469 195.532 51.4629 195.328C51.6909 195.124 52.0089 195.022 52.4169 195.022C52.8369 195.022 53.1549 195.124 53.3709 195.328C53.5989 195.532 53.7129 195.826 53.7129 196.21C53.7129 196.582 53.5989 196.876 53.3709 197.092C53.1549 197.296 52.8369 197.398 52.4169 197.398ZM59.9109 208.18C58.9869 208.18 58.1829 207.994 57.4989 207.622C56.8149 207.238 56.2869 206.698 55.9149 206.002C55.5429 205.306 55.3569 204.49 55.3569 203.554C55.3569 202.846 55.4589 202.216 55.6629 201.664C55.8789 201.1 56.1849 200.626 56.5809 200.242C56.9769 199.846 57.4569 199.546 58.0209 199.342C58.5849 199.126 59.2149 199.018 59.9109 199.018C60.3069 199.018 60.7329 199.072 61.1889 199.18C61.6569 199.288 62.0949 199.468 62.5029 199.72C62.6949 199.84 62.8209 199.984 62.8809 200.152C62.9409 200.32 62.9529 200.494 62.9169 200.674C62.8809 200.842 62.8029 200.992 62.6829 201.124C62.5749 201.244 62.4369 201.322 62.2689 201.358C62.1009 201.382 61.9149 201.34 61.7109 201.232C61.4469 201.076 61.1769 200.962 60.9009 200.89C60.6249 200.806 60.3609 200.764 60.1089 200.764C59.7129 200.764 59.3649 200.83 59.0649 200.962C58.7649 201.082 58.5069 201.262 58.2909 201.502C58.0869 201.73 57.9309 202.018 57.8229 202.366C57.7149 202.714 57.6609 203.116 57.6609 203.572C57.6609 204.46 57.8709 205.162 58.2909 205.678C58.7229 206.182 59.3289 206.434 60.1089 206.434C60.3609 206.434 60.6189 206.398 60.8829 206.326C61.1589 206.254 61.4349 206.14 61.7109 205.984C61.9149 205.876 62.0949 205.84 62.2509 205.876C62.4189 205.912 62.5569 205.996 62.6649 206.128C62.7729 206.248 62.8389 206.398 62.8629 206.578C62.8869 206.746 62.8629 206.914 62.7909 207.082C62.7309 207.25 62.6109 207.388 62.4309 207.496C62.0349 207.736 61.6149 207.91 61.1709 208.018C60.7269 208.126 60.3069 208.18 59.9109 208.18ZM67.1784 208.18C66.5424 208.18 65.9724 208.06 65.4684 207.82C64.9764 207.568 64.5864 207.232 64.2984 206.812C64.0224 206.392 63.8844 205.918 63.8844 205.39C63.8844 204.742 64.0524 204.232 64.3884 203.86C64.7244 203.476 65.2704 203.2 66.0264 203.032C66.7824 202.864 67.7964 202.78 69.0684 202.78H69.9684V204.076H69.0864C68.3424 204.076 67.7484 204.112 67.3044 204.184C66.8604 204.256 66.5424 204.382 66.3504 204.562C66.1704 204.73 66.0804 204.97 66.0804 205.282C66.0804 205.678 66.2184 206.002 66.4944 206.254C66.7704 206.506 67.1544 206.632 67.6464 206.632C68.0424 206.632 68.3904 206.542 68.6904 206.362C69.0024 206.17 69.2484 205.912 69.4284 205.588C69.6084 205.264 69.6984 204.892 69.6984 204.472V202.402C69.6984 201.802 69.5664 201.37 69.3024 201.106C69.0384 200.842 68.5944 200.71 67.9704 200.71C67.6224 200.71 67.2444 200.752 66.8364 200.836C66.4404 200.92 66.0204 201.064 65.5764 201.268C65.3484 201.376 65.1444 201.406 64.9644 201.358C64.7964 201.31 64.6644 201.214 64.5684 201.07C64.4724 200.914 64.4244 200.746 64.4244 200.566C64.4244 200.386 64.4724 200.212 64.5684 200.044C64.6644 199.864 64.8264 199.732 65.0544 199.648C65.6064 199.42 66.1344 199.258 66.6384 199.162C67.1544 199.066 67.6224 199.018 68.0424 199.018C68.9064 199.018 69.6144 199.15 70.1664 199.414C70.7304 199.678 71.1504 200.08 71.4264 200.62C71.7024 201.148 71.8404 201.832 71.8404 202.672V206.992C71.8404 207.364 71.7504 207.652 71.5704 207.856C71.3904 208.048 71.1324 208.144 70.7964 208.144C70.4604 208.144 70.1964 208.048 70.0044 207.856C69.8244 207.652 69.7344 207.364 69.7344 206.992V206.128H69.8784C69.7944 206.548 69.6264 206.914 69.3744 207.226C69.1344 207.526 68.8284 207.76 68.4564 207.928C68.0844 208.096 67.6584 208.18 67.1784 208.18ZM78.1921 208.18C77.2681 208.18 76.4641 207.994 75.7801 207.622C75.0961 207.238 74.5681 206.698 74.1961 206.002C73.8241 205.306 73.6381 204.49 73.6381 203.554C73.6381 202.846 73.7401 202.216 73.9441 201.664C74.1601 201.1 74.4661 200.626 74.8621 200.242C75.2581 199.846 75.7381 199.546 76.3021 199.342C76.8661 199.126 77.4961 199.018 78.1921 199.018C78.5881 199.018 79.0141 199.072 79.4701 199.18C79.9381 199.288 80.3761 199.468 80.7841 199.72C80.9761 199.84 81.1021 199.984 81.1621 200.152C81.2221 200.32 81.2341 200.494 81.1981 200.674C81.1621 200.842 81.0841 200.992 80.9641 201.124C80.8561 201.244 80.7181 201.322 80.5501 201.358C80.3821 201.382 80.1961 201.34 79.9921 201.232C79.7281 201.076 79.4581 200.962 79.1821 200.89C78.9061 200.806 78.6421 200.764 78.3901 200.764C77.9941 200.764 77.6461 200.83 77.3461 200.962C77.0461 201.082 76.7881 201.262 76.5721 201.502C76.3681 201.73 76.2121 202.018 76.1041 202.366C75.9961 202.714 75.9421 203.116 75.9421 203.572C75.9421 204.46 76.1521 205.162 76.5721 205.678C77.0041 206.182 77.6101 206.434 78.3901 206.434C78.6421 206.434 78.9001 206.398 79.1641 206.326C79.4401 206.254 79.7161 206.14 79.9921 205.984C80.1961 205.876 80.3761 205.84 80.5321 205.876C80.7001 205.912 80.8381 205.996 80.9461 206.128C81.0541 206.248 81.1201 206.398 81.1441 206.578C81.1681 206.746 81.1441 206.914 81.0721 207.082C81.0121 207.25 80.8921 207.388 80.7121 207.496C80.3161 207.736 79.8961 207.91 79.4521 208.018C79.0081 208.126 78.5881 208.18 78.1921 208.18ZM83.7303 208.126C83.3703 208.126 83.0943 208.018 82.9023 207.802C82.7103 207.586 82.6143 207.286 82.6143 206.902V200.296C82.6143 199.9 82.7103 199.6 82.9023 199.396C83.0943 199.18 83.3703 199.072 83.7303 199.072C84.0903 199.072 84.3663 199.18 84.5583 199.396C84.7623 199.6 84.8643 199.9 84.8643 200.296V206.902C84.8643 207.286 84.7683 207.586 84.5763 207.802C84.3843 208.018 84.1023 208.126 83.7303 208.126ZM83.7303 197.398C83.3103 197.398 82.9803 197.296 82.7403 197.092C82.5123 196.876 82.3983 196.582 82.3983 196.21C82.3983 195.826 82.5123 195.532 82.7403 195.328C82.9803 195.124 83.3103 195.022 83.7303 195.022C84.1623 195.022 84.4923 195.124 84.7203 195.328C84.9483 195.532 85.0623 195.826 85.0623 196.21C85.0623 196.582 84.9483 196.876 84.7203 197.092C84.4923 197.296 84.1623 197.398 83.7303 197.398ZM91.2162 208.18C90.3042 208.18 89.5122 207.994 88.8402 207.622C88.1682 207.25 87.6462 206.722 87.2742 206.038C86.9022 205.342 86.7162 204.526 86.7162 203.59C86.7162 202.882 86.8182 202.252 87.0222 201.7C87.2382 201.136 87.5442 200.656 87.9402 200.26C88.3362 199.852 88.8102 199.546 89.3622 199.342C89.9142 199.126 90.5322 199.018 91.2162 199.018C92.1282 199.018 92.9202 199.204 93.5922 199.576C94.2642 199.948 94.7862 200.476 95.1582 201.16C95.5302 201.844 95.7162 202.654 95.7162 203.59C95.7162 204.298 95.6082 204.934 95.3922 205.498C95.1882 206.062 94.8882 206.548 94.4922 206.956C94.0962 207.352 93.6222 207.658 93.0702 207.874C92.5182 208.078 91.9002 208.18 91.2162 208.18ZM91.2162 206.47C91.6602 206.47 92.0502 206.362 92.3862 206.146C92.7222 205.93 92.9802 205.612 93.1602 205.192C93.3522 204.76 93.4482 204.226 93.4482 203.59C93.4482 202.63 93.2442 201.916 92.8362 201.448C92.4282 200.968 91.8882 200.728 91.2162 200.728C90.7722 200.728 90.3822 200.836 90.0462 201.052C89.7102 201.256 89.4462 201.574 89.2542 202.006C89.0742 202.426 88.9842 202.954 88.9842 203.59C88.9842 204.538 89.1882 205.258 89.5962 205.75C90.0042 206.23 90.5442 206.47 91.2162 206.47ZM92.0622 197.92C91.9422 198.088 91.7982 198.184 91.6302 198.208C91.4622 198.232 91.3002 198.202 91.1442 198.118C90.9882 198.034 90.8742 197.914 90.8022 197.758C90.7422 197.602 90.7602 197.428 90.8562 197.236L92.2242 194.554C92.3322 194.326 92.4762 194.182 92.6562 194.122C92.8362 194.05 93.0222 194.038 93.2142 194.086C93.4062 194.134 93.5682 194.224 93.7002 194.356C93.8442 194.488 93.9282 194.65 93.9522 194.842C93.9882 195.022 93.9402 195.208 93.8082 195.4L92.0622 197.92ZM98.6893 208.144C98.3293 208.144 98.0533 208.048 97.8613 207.856C97.6693 207.652 97.5733 207.364 97.5733 206.992V200.188C97.5733 199.816 97.6693 199.534 97.8613 199.342C98.0533 199.15 98.3233 199.054 98.6713 199.054C99.0193 199.054 99.2893 199.15 99.4813 199.342C99.6733 199.534 99.7693 199.816 99.7693 200.188V201.412L99.5713 200.962C99.8353 200.326 100.243 199.846 100.795 199.522C101.359 199.186 101.995 199.018 102.703 199.018C103.411 199.018 103.993 199.15 104.449 199.414C104.905 199.678 105.247 200.08 105.475 200.62C105.703 201.148 105.817 201.82 105.817 202.636V206.992C105.817 207.364 105.721 207.652 105.529 207.856C105.337 208.048 105.061 208.144 104.701 208.144C104.341 208.144 104.059 208.048 103.855 207.856C103.663 207.652 103.567 207.364 103.567 206.992V202.744C103.567 202.06 103.435 201.562 103.171 201.25C102.919 200.938 102.523 200.782 101.983 200.782C101.323 200.782 100.795 200.992 100.399 201.412C100.015 201.82 99.8233 202.366 99.8233 203.05V206.992C99.8233 207.76 99.4453 208.144 98.6893 208.144ZM114.429 208C114.033 208 113.727 207.898 113.511 207.694C113.307 207.478 113.205 207.172 113.205 206.776V196.534C113.205 196.138 113.307 195.838 113.511 195.634C113.727 195.418 114.033 195.31 114.429 195.31H117.921C120.045 195.31 121.683 195.856 122.835 196.948C123.999 198.04 124.581 199.606 124.581 201.646C124.581 202.666 124.431 203.572 124.131 204.364C123.843 205.144 123.411 205.804 122.835 206.344C122.271 206.884 121.575 207.298 120.747 207.586C119.931 207.862 118.989 208 117.921 208H114.429ZM115.509 206.092H117.777C118.521 206.092 119.163 206.002 119.703 205.822C120.255 205.63 120.711 205.354 121.071 204.994C121.443 204.622 121.719 204.16 121.899 203.608C122.079 203.044 122.169 202.39 122.169 201.646C122.169 200.158 121.803 199.048 121.071 198.316C120.339 197.584 119.241 197.218 117.777 197.218H115.509V206.092ZM131.038 208.18C130.042 208.18 129.184 207.994 128.464 207.622C127.744 207.25 127.186 206.722 126.79 206.038C126.406 205.354 126.214 204.544 126.214 203.608C126.214 202.696 126.4 201.898 126.772 201.214C127.156 200.53 127.678 199.996 128.338 199.612C129.01 199.216 129.772 199.018 130.624 199.018C131.248 199.018 131.806 199.12 132.298 199.324C132.802 199.528 133.228 199.822 133.576 200.206C133.936 200.59 134.206 201.058 134.386 201.61C134.578 202.15 134.674 202.762 134.674 203.446C134.674 203.662 134.596 203.83 134.44 203.95C134.296 204.058 134.086 204.112 133.81 204.112H128.032V202.816H133.09L132.802 203.086C132.802 202.534 132.718 202.072 132.55 201.7C132.394 201.328 132.16 201.046 131.848 200.854C131.548 200.65 131.17 200.548 130.714 200.548C130.21 200.548 129.778 200.668 129.418 200.908C129.07 201.136 128.8 201.466 128.608 201.898C128.428 202.318 128.338 202.822 128.338 203.41V203.536C128.338 204.52 128.566 205.258 129.022 205.75C129.49 206.23 130.174 206.47 131.074 206.47C131.386 206.47 131.734 206.434 132.118 206.362C132.514 206.278 132.886 206.14 133.234 205.948C133.486 205.804 133.708 205.744 133.9 205.768C134.092 205.78 134.242 205.846 134.35 205.966C134.47 206.086 134.542 206.236 134.566 206.416C134.59 206.584 134.554 206.758 134.458 206.938C134.374 207.118 134.224 207.274 134.008 207.406C133.588 207.67 133.102 207.868 132.55 208C132.01 208.12 131.506 208.18 131.038 208.18ZM142.783 208C142.387 208 142.081 207.898 141.865 207.694C141.661 207.478 141.559 207.172 141.559 206.776V196.534C141.559 196.138 141.661 195.838 141.865 195.634C142.081 195.418 142.387 195.31 142.783 195.31H149.209C149.509 195.31 149.737 195.388 149.893 195.544C150.061 195.7 150.145 195.922 150.145 196.21C150.145 196.51 150.061 196.744 149.893 196.912C149.737 197.068 149.509 197.146 149.209 197.146H143.773V200.638H148.813C149.125 200.638 149.359 200.716 149.515 200.872C149.671 201.028 149.749 201.256 149.749 201.556C149.749 201.856 149.671 202.084 149.515 202.24C149.359 202.396 149.125 202.474 148.813 202.474H143.773V206.164H149.209C149.509 206.164 149.737 206.242 149.893 206.398C150.061 206.554 150.145 206.782 150.145 207.082C150.145 207.382 150.061 207.61 149.893 207.766C149.737 207.922 149.509 208 149.209 208H142.783ZM153.199 208.144C152.839 208.144 152.563 208.048 152.371 207.856C152.179 207.652 152.083 207.364 152.083 206.992V200.188C152.083 199.816 152.179 199.534 152.371 199.342C152.563 199.15 152.833 199.054 153.181 199.054C153.529 199.054 153.799 199.15 153.991 199.342C154.183 199.534 154.279 199.816 154.279 200.188V201.412L154.081 200.962C154.345 200.326 154.753 199.846 155.305 199.522C155.869 199.186 156.505 199.018 157.213 199.018C157.921 199.018 158.503 199.15 158.959 199.414C159.415 199.678 159.757 200.08 159.985 200.62C160.213 201.148 160.327 201.82 160.327 202.636V206.992C160.327 207.364 160.231 207.652 160.039 207.856C159.847 208.048 159.571 208.144 159.211 208.144C158.851 208.144 158.569 208.048 158.365 207.856C158.173 207.652 158.077 207.364 158.077 206.992V202.744C158.077 202.06 157.945 201.562 157.681 201.25C157.429 200.938 157.033 200.782 156.493 200.782C155.833 200.782 155.305 200.992 154.909 201.412C154.525 201.82 154.333 202.366 154.333 203.05V206.992C154.333 207.76 153.955 208.144 153.199 208.144ZM166.644 208.18C165.864 208.18 165.21 208.048 164.682 207.784C164.166 207.52 163.782 207.136 163.53 206.632C163.278 206.116 163.152 205.48 163.152 204.724V200.89H162.216C161.928 200.89 161.706 200.818 161.55 200.674C161.394 200.518 161.316 200.308 161.316 200.044C161.316 199.768 161.394 199.558 161.55 199.414C161.706 199.27 161.928 199.198 162.216 199.198H163.152V197.56C163.152 197.188 163.248 196.906 163.44 196.714C163.644 196.522 163.926 196.426 164.286 196.426C164.646 196.426 164.922 196.522 165.114 196.714C165.306 196.906 165.402 197.188 165.402 197.56V199.198H167.31C167.598 199.198 167.82 199.27 167.976 199.414C168.132 199.558 168.21 199.768 168.21 200.044C168.21 200.308 168.132 200.518 167.976 200.674C167.82 200.818 167.598 200.89 167.31 200.89H165.402V204.598C165.402 205.174 165.528 205.606 165.78 205.894C166.032 206.182 166.44 206.326 167.004 206.326C167.208 206.326 167.388 206.308 167.544 206.272C167.7 206.236 167.838 206.212 167.958 206.2C168.102 206.188 168.222 206.236 168.318 206.344C168.414 206.44 168.462 206.644 168.462 206.956C168.462 207.196 168.42 207.412 168.336 207.604C168.264 207.784 168.126 207.91 167.922 207.982C167.766 208.03 167.562 208.072 167.31 208.108C167.058 208.156 166.836 208.18 166.644 208.18ZM170.673 208.144C170.301 208.144 170.013 208.048 169.809 207.856C169.617 207.652 169.521 207.364 169.521 206.992V200.188C169.521 199.816 169.617 199.534 169.809 199.342C170.001 199.15 170.271 199.054 170.619 199.054C170.967 199.054 171.237 199.15 171.429 199.342C171.621 199.534 171.717 199.816 171.717 200.188V201.322H171.537C171.705 200.602 172.035 200.056 172.527 199.684C173.019 199.312 173.673 199.09 174.489 199.018C174.741 198.994 174.939 199.06 175.083 199.216C175.239 199.36 175.329 199.588 175.353 199.9C175.377 200.2 175.305 200.446 175.137 200.638C174.981 200.818 174.741 200.926 174.417 200.962L174.021 200.998C173.289 201.07 172.737 201.298 172.365 201.682C171.993 202.054 171.807 202.582 171.807 203.266V206.992C171.807 207.364 171.711 207.652 171.519 207.856C171.327 208.048 171.045 208.144 170.673 208.144ZM180.767 208.18C179.771 208.18 178.913 207.994 178.193 207.622C177.473 207.25 176.915 206.722 176.519 206.038C176.135 205.354 175.943 204.544 175.943 203.608C175.943 202.696 176.129 201.898 176.501 201.214C176.885 200.53 177.407 199.996 178.067 199.612C178.739 199.216 179.501 199.018 180.353 199.018C180.977 199.018 181.535 199.12 182.027 199.324C182.531 199.528 182.957 199.822 183.305 200.206C183.665 200.59 183.935 201.058 184.115 201.61C184.307 202.15 184.403 202.762 184.403 203.446C184.403 203.662 184.325 203.83 184.169 203.95C184.025 204.058 183.815 204.112 183.539 204.112H177.761V202.816H182.819L182.531 203.086C182.531 202.534 182.447 202.072 182.279 201.7C182.123 201.328 181.889 201.046 181.577 200.854C181.277 200.65 180.899 200.548 180.443 200.548C179.939 200.548 179.507 200.668 179.147 200.908C178.799 201.136 178.529 201.466 178.337 201.898C178.157 202.318 178.067 202.822 178.067 203.41V203.536C178.067 204.52 178.295 205.258 178.751 205.75C179.219 206.23 179.903 206.47 180.803 206.47C181.115 206.47 181.463 206.434 181.847 206.362C182.243 206.278 182.615 206.14 182.963 205.948C183.215 205.804 183.437 205.744 183.629 205.768C183.821 205.78 183.971 205.846 184.079 205.966C184.199 206.086 184.271 206.236 184.295 206.416C184.319 206.584 184.283 206.758 184.187 206.938C184.103 207.118 183.953 207.274 183.737 207.406C183.317 207.67 182.831 207.868 182.279 208C181.739 208.12 181.235 208.18 180.767 208.18ZM190.289 211.42C189.641 211.42 189.011 211.36 188.399 211.24C187.799 211.12 187.253 210.934 186.761 210.682C186.533 210.562 186.377 210.418 186.293 210.25C186.221 210.082 186.197 209.908 186.221 209.728C186.257 209.56 186.329 209.41 186.437 209.278C186.557 209.146 186.701 209.056 186.869 209.008C187.037 208.96 187.211 208.984 187.391 209.08C187.919 209.344 188.417 209.512 188.885 209.584C189.365 209.668 189.773 209.71 190.109 209.71C190.913 209.71 191.513 209.512 191.909 209.116C192.317 208.732 192.521 208.156 192.521 207.388V205.768H192.683C192.503 206.38 192.125 206.872 191.549 207.244C190.985 207.604 190.343 207.784 189.623 207.784C188.831 207.784 188.141 207.604 187.553 207.244C186.965 206.872 186.509 206.356 186.185 205.696C185.861 205.036 185.699 204.268 185.699 203.392C185.699 202.732 185.789 202.138 185.969 201.61C186.161 201.07 186.425 200.608 186.761 200.224C187.109 199.84 187.523 199.546 188.003 199.342C188.495 199.126 189.035 199.018 189.623 199.018C190.367 199.018 191.015 199.204 191.567 199.576C192.131 199.936 192.497 200.416 192.665 201.016L192.485 201.466V200.188C192.485 199.816 192.581 199.534 192.773 199.342C192.977 199.15 193.253 199.054 193.601 199.054C193.961 199.054 194.237 199.15 194.429 199.342C194.621 199.534 194.717 199.816 194.717 200.188V207.118C194.717 208.546 194.339 209.62 193.583 210.34C192.827 211.06 191.729 211.42 190.289 211.42ZM190.235 206.074C190.703 206.074 191.105 205.966 191.441 205.75C191.777 205.534 192.035 205.228 192.215 204.832C192.407 204.424 192.503 203.944 192.503 203.392C192.503 202.564 192.299 201.916 191.891 201.448C191.483 200.968 190.931 200.728 190.235 200.728C189.767 200.728 189.365 200.836 189.029 201.052C188.693 201.268 188.429 201.574 188.237 201.97C188.057 202.366 187.967 202.84 187.967 203.392C187.967 204.22 188.171 204.874 188.579 205.354C188.987 205.834 189.539 206.074 190.235 206.074ZM199.946 208.18C199.31 208.18 198.74 208.06 198.236 207.82C197.744 207.568 197.354 207.232 197.066 206.812C196.79 206.392 196.652 205.918 196.652 205.39C196.652 204.742 196.82 204.232 197.156 203.86C197.492 203.476 198.038 203.2 198.794 203.032C199.55 202.864 200.564 202.78 201.836 202.78H202.736V204.076H201.854C201.11 204.076 200.516 204.112 200.072 204.184C199.628 204.256 199.31 204.382 199.118 204.562C198.938 204.73 198.848 204.97 198.848 205.282C198.848 205.678 198.986 206.002 199.262 206.254C199.538 206.506 199.922 206.632 200.414 206.632C200.81 206.632 201.158 206.542 201.458 206.362C201.77 206.17 202.016 205.912 202.196 205.588C202.376 205.264 202.466 204.892 202.466 204.472V202.402C202.466 201.802 202.334 201.37 202.07 201.106C201.806 200.842 201.362 200.71 200.738 200.71C200.39 200.71 200.012 200.752 199.604 200.836C199.208 200.92 198.788 201.064 198.344 201.268C198.116 201.376 197.912 201.406 197.732 201.358C197.564 201.31 197.432 201.214 197.336 201.07C197.24 200.914 197.192 200.746 197.192 200.566C197.192 200.386 197.24 200.212 197.336 200.044C197.432 199.864 197.594 199.732 197.822 199.648C198.374 199.42 198.902 199.258 199.406 199.162C199.922 199.066 200.39 199.018 200.81 199.018C201.674 199.018 202.382 199.15 202.934 199.414C203.498 199.678 203.918 200.08 204.194 200.62C204.47 201.148 204.608 201.832 204.608 202.672V206.992C204.608 207.364 204.518 207.652 204.338 207.856C204.158 208.048 203.9 208.144 203.564 208.144C203.228 208.144 202.964 208.048 202.772 207.856C202.592 207.652 202.502 207.364 202.502 206.992V206.128H202.646C202.562 206.548 202.394 206.914 202.142 207.226C201.902 207.526 201.596 207.76 201.224 207.928C200.852 208.096 200.426 208.18 199.946 208.18Z" fill="black"/>
<circle cx="105" cy="80" r="79.5" fill="#F8F8F8" stroke="#444444"/>
<path d="M134.454 78.9002V75.2647C131.151 76.4325 127.616 76.7876 124.147 76.3002C120.678 75.8128 117.377 74.497 114.525 72.4643C111.672 70.4316 109.35 67.7417 107.757 64.6221C106.163 61.5026 105.344 58.0451 105.37 54.5421C105.375 49.3898 107.204 44.4056 110.532 40.4726C108.828 40.1678 107.101 40.0097 105.37 40C97.6559 40 90.2582 43.0642 84.8038 48.5186C79.3495 53.9729 76.2852 61.3707 76.2852 69.0843V78.9002L71.0137 86.7893C69.8089 88.5972 69.1177 90.6983 69.0137 92.8683C68.9098 95.0383 69.397 97.1959 70.4235 99.1106C71.4499 101.025 72.977 102.625 74.8417 103.74C76.7065 104.855 78.8389 105.442 81.0114 105.44H87.5554C88.3898 109.549 90.6192 113.243 93.8657 115.897C97.1123 118.55 101.176 120 105.37 120C109.563 120 113.627 118.55 116.873 115.897C120.12 113.243 122.349 109.549 123.184 105.44H129.728C132.909 105.44 135.961 104.176 138.211 101.926C140.461 99.6758 141.725 96.6242 141.725 93.4424C141.738 91.0693 141.028 88.7484 139.689 86.7893L134.454 78.9002ZM105.37 112.711C103.113 112.712 100.912 112.013 99.0692 110.711C97.2265 109.409 95.8331 107.567 95.081 105.44H115.658C114.906 107.567 113.513 109.409 111.67 110.711C109.827 112.013 107.626 112.712 105.37 112.711ZM141.725 54.5421C141.725 57.4183 140.872 60.2299 139.274 62.6213C137.676 65.0128 135.405 66.8767 132.748 67.9773C130.091 69.078 127.167 69.366 124.346 68.8049C121.525 68.2437 118.934 66.8587 116.9 64.825C114.866 62.7912 113.481 60.2001 112.92 57.3792C112.359 54.5583 112.647 51.6343 113.748 48.9771C114.848 46.3199 116.712 44.0487 119.104 42.4508C121.495 40.8529 124.307 40 127.183 40C131.04 40 134.738 41.5321 137.466 44.2593C140.193 46.9865 141.725 50.6853 141.725 54.5421Z" fill="#D96581"/>
</svg>
