<svg width="249" height="215" viewBox="0 0 249 215" fill="none" xmlns="http://www.w3.org/2000/svg">
<path d="M2.99965 208C2.18365 208 1.77565 207.592 1.77565 206.776V196.534C1.77565 195.718 2.18365 195.31 2.99965 195.31H9.42565C10.0496 195.31 10.3616 195.61 10.3616 196.21C10.3616 196.834 10.0496 197.146 9.42565 197.146H3.98965V200.638H9.02965C9.65365 200.638 9.96565 200.944 9.96565 201.556C9.96565 202.168 9.65365 202.474 9.02965 202.474H3.98965V206.164H9.42565C10.0496 206.164 10.3616 206.47 10.3616 207.082C10.3616 207.694 10.0496 208 9.42565 208H2.99965ZM13.4159 208.144C12.6719 208.144 12.2999 207.76 12.2999 206.992V200.188C12.2999 199.432 12.6659 199.054 13.3979 199.054C14.1299 199.054 14.4959 199.432 14.4959 200.188V200.566C14.7959 200.062 15.1979 199.678 15.7019 199.414C16.2179 199.15 16.7939 199.018 17.4299 199.018C19.5059 199.018 20.5439 200.224 20.5439 202.636V206.992C20.5439 207.76 20.1719 208.144 19.4279 208.144C18.6719 208.144 18.2939 207.76 18.2939 206.992V202.744C18.2939 202.06 18.1619 201.562 17.8979 201.25C17.6459 200.938 17.2499 200.782 16.7099 200.782C16.0499 200.782 15.5219 200.992 15.1259 201.412C14.7419 201.82 14.5499 202.366 14.5499 203.05V206.992C14.5499 207.76 14.1719 208.144 13.4159 208.144ZM26.8612 208.18C24.5332 208.18 23.3692 207.028 23.3692 204.724V200.89H22.4332C21.8332 200.89 21.5332 200.608 21.5332 200.044C21.5332 199.48 21.8332 199.198 22.4332 199.198H23.3692V197.56C23.3692 196.804 23.7472 196.426 24.5032 196.426C25.2472 196.426 25.6192 196.804 25.6192 197.56V199.198H27.5272C28.1272 199.198 28.4272 199.48 28.4272 200.044C28.4272 200.608 28.1272 200.89 27.5272 200.89H25.6192V204.598C25.6192 205.174 25.7452 205.606 25.9972 205.894C26.2492 206.182 26.6572 206.326 27.2212 206.326C27.4252 206.326 27.6052 206.308 27.7612 206.272C27.9172 206.236 28.0552 206.212 28.1752 206.2C28.3192 206.188 28.4392 206.236 28.5352 206.344C28.6312 206.44 28.6792 206.644 28.6792 206.956C28.6792 207.196 28.6372 207.412 28.5532 207.604C28.4812 207.784 28.3432 207.91 28.1392 207.982C27.9832 208.03 27.7792 208.072 27.5272 208.108C27.2752 208.156 27.0532 208.18 26.8612 208.18ZM30.8894 208.144C30.1214 208.144 29.7374 207.76 29.7374 206.992V200.188C29.7374 199.432 30.1034 199.054 30.8354 199.054C31.5674 199.054 31.9334 199.432 31.9334 200.188V200.746C32.3654 199.714 33.2894 199.138 34.7054 199.018C35.2214 198.958 35.5094 199.252 35.5694 199.9C35.6294 200.536 35.3174 200.89 34.6334 200.962L34.2374 200.998C32.7614 201.142 32.0234 201.898 32.0234 203.266V206.992C32.0234 207.76 31.6454 208.144 30.8894 208.144ZM40.9836 208.18C39.9876 208.18 39.1296 207.994 38.4096 207.622C37.6896 207.25 37.1316 206.722 36.7356 206.038C36.3516 205.354 36.1596 204.544 36.1596 203.608C36.1596 202.696 36.3456 201.898 36.7176 201.214C37.1016 200.53 37.6236 199.996 38.2836 199.612C38.9556 199.216 39.7176 199.018 40.5696 199.018C41.8176 199.018 42.8016 199.414 43.5216 200.206C44.2536 200.998 44.6196 202.078 44.6196 203.446C44.6196 203.89 44.3316 204.112 43.7556 204.112H38.3196C38.4876 205.684 39.3876 206.47 41.0196 206.47C41.3316 206.47 41.6796 206.434 42.0636 206.362C42.4596 206.278 42.8316 206.14 43.1796 205.948C43.4916 205.768 43.7556 205.714 43.9716 205.786C44.1876 205.846 44.3376 205.972 44.4216 206.164C44.5176 206.356 44.5296 206.572 44.4576 206.812C44.3976 207.04 44.2296 207.238 43.9536 207.406C43.5336 207.67 43.0476 207.868 42.4956 208C41.9556 208.12 41.4516 208.18 40.9836 208.18ZM40.6596 200.548C39.9996 200.548 39.4656 200.752 39.0576 201.16C38.6496 201.568 38.4036 202.12 38.3196 202.816H42.7476C42.6996 202.084 42.4956 201.526 42.1356 201.142C41.7876 200.746 41.2956 200.548 40.6596 200.548ZM50.5054 211.42C49.8574 211.42 49.2274 211.36 48.6154 211.24C48.0154 211.12 47.4694 210.934 46.9774 210.682C46.6894 210.538 46.5154 210.352 46.4554 210.124C46.4074 209.908 46.4314 209.698 46.5274 209.494C46.6234 209.29 46.7674 209.14 46.9594 209.044C47.1634 208.96 47.3794 208.972 47.6074 209.08C48.1354 209.344 48.6334 209.512 49.1014 209.584C49.5814 209.668 49.9894 209.71 50.3254 209.71C51.9334 209.71 52.7374 208.936 52.7374 207.388V206.182C52.4854 206.674 52.0954 207.064 51.5674 207.352C51.0514 207.64 50.4754 207.784 49.8394 207.784C49.0474 207.784 48.3574 207.604 47.7694 207.244C47.1814 206.872 46.7254 206.356 46.4014 205.696C46.0774 205.036 45.9154 204.268 45.9154 203.392C45.9154 202.516 46.0774 201.754 46.4014 201.106C46.7254 200.446 47.1814 199.936 47.7694 199.576C48.3574 199.204 49.0474 199.018 49.8394 199.018C50.4754 199.018 51.0514 199.156 51.5674 199.432C52.0834 199.708 52.4614 200.086 52.7014 200.566V200.188C52.7014 199.816 52.7974 199.534 52.9894 199.342C53.1934 199.15 53.4694 199.054 53.8174 199.054C54.5614 199.054 54.9334 199.432 54.9334 200.188V207.118C54.9334 208.546 54.5554 209.62 53.7994 210.34C53.0434 211.06 51.9454 211.42 50.5054 211.42ZM50.4514 206.074C51.1474 206.074 51.6994 205.834 52.1074 205.354C52.5154 204.874 52.7194 204.22 52.7194 203.392C52.7194 202.564 52.5154 201.916 52.1074 201.448C51.6994 200.968 51.1474 200.728 50.4514 200.728C49.7554 200.728 49.2034 200.968 48.7954 201.448C48.3874 201.916 48.1834 202.564 48.1834 203.392C48.1834 204.22 48.3874 204.874 48.7954 205.354C49.2034 205.834 49.7554 206.074 50.4514 206.074ZM60.1627 208.18C59.5267 208.18 58.9567 208.06 58.4527 207.82C57.9607 207.568 57.5707 207.232 57.2827 206.812C57.0067 206.392 56.8687 205.918 56.8687 205.39C56.8687 204.742 57.0367 204.232 57.3727 203.86C57.7087 203.476 58.2547 203.2 59.0107 203.032C59.7667 202.864 60.7807 202.78 62.0527 202.78H62.6827V202.402C62.6827 201.802 62.5507 201.37 62.2867 201.106C62.0227 200.842 61.5787 200.71 60.9547 200.71C60.6067 200.71 60.2287 200.752 59.8207 200.836C59.4247 200.92 59.0047 201.064 58.5607 201.268C58.2727 201.4 58.0327 201.418 57.8407 201.322C57.6487 201.214 57.5167 201.052 57.4447 200.836C57.3847 200.608 57.3967 200.38 57.4807 200.152C57.5767 199.924 57.7627 199.756 58.0387 199.648C58.5907 199.42 59.1187 199.258 59.6227 199.162C60.1387 199.066 60.6067 199.018 61.0267 199.018C62.3107 199.018 63.2647 199.318 63.8887 199.918C64.5127 200.506 64.8247 201.424 64.8247 202.672V206.992C64.8247 207.76 64.4767 208.144 63.7807 208.144C63.0727 208.144 62.7187 207.76 62.7187 206.992V206.596C62.5147 207.088 62.1907 207.478 61.7467 207.766C61.3027 208.042 60.7747 208.18 60.1627 208.18ZM60.6307 206.632C61.2187 206.632 61.7047 206.428 62.0887 206.02C62.4847 205.612 62.6827 205.096 62.6827 204.472V204.076H62.0707C60.9427 204.076 60.1567 204.166 59.7127 204.346C59.2807 204.514 59.0647 204.826 59.0647 205.282C59.0647 205.678 59.2027 206.002 59.4787 206.254C59.7547 206.506 60.1387 206.632 60.6307 206.632ZM76.3332 208.18C75.3372 208.18 74.4792 207.994 73.7592 207.622C73.0392 207.25 72.4812 206.722 72.0852 206.038C71.7012 205.354 71.5092 204.544 71.5092 203.608C71.5092 202.696 71.6952 201.898 72.0672 201.214C72.4512 200.53 72.9732 199.996 73.6332 199.612C74.3052 199.216 75.0672 199.018 75.9192 199.018C77.1672 199.018 78.1512 199.414 78.8712 200.206C79.6032 200.998 79.9692 202.078 79.9692 203.446C79.9692 203.89 79.6812 204.112 79.1052 204.112H73.6692C73.8372 205.684 74.7372 206.47 76.3692 206.47C76.6812 206.47 77.0292 206.434 77.4132 206.362C77.8092 206.278 78.1812 206.14 78.5292 205.948C78.8412 205.768 79.1052 205.714 79.3212 205.786C79.5372 205.846 79.6872 205.972 79.7712 206.164C79.8672 206.356 79.8792 206.572 79.8072 206.812C79.7472 207.04 79.5792 207.238 79.3032 207.406C78.8832 207.67 78.3972 207.868 77.8452 208C77.3052 208.12 76.8012 208.18 76.3332 208.18ZM76.0092 200.548C75.3492 200.548 74.8152 200.752 74.4072 201.16C73.9992 201.568 73.7532 202.12 73.6692 202.816H78.0972C78.0492 202.084 77.8452 201.526 77.4852 201.142C77.1372 200.746 76.6452 200.548 76.0092 200.548ZM82.8671 208.144C82.1231 208.144 81.7511 207.76 81.7511 206.992V200.188C81.7511 199.432 82.1171 199.054 82.8491 199.054C83.5811 199.054 83.9471 199.432 83.9471 200.188V200.566C84.2471 200.062 84.6491 199.678 85.1531 199.414C85.6691 199.15 86.2451 199.018 86.8811 199.018C88.9571 199.018 89.9951 200.224 89.9951 202.636V206.992C89.9951 207.76 89.6231 208.144 88.8791 208.144C88.1231 208.144 87.7451 207.76 87.7451 206.992V202.744C87.7451 202.06 87.6131 201.562 87.3491 201.25C87.0971 200.938 86.7011 200.782 86.1611 200.782C85.5011 200.782 84.9731 200.992 84.5771 201.412C84.1931 201.82 84.0011 202.366 84.0011 203.05V206.992C84.0011 207.76 83.6231 208.144 82.8671 208.144ZM98.3191 208.144C97.5751 208.144 97.2031 207.76 97.2031 206.992V200.188C97.2031 199.432 97.5691 199.054 98.3011 199.054C99.0331 199.054 99.3991 199.432 99.3991 200.188V200.548C99.6631 200.068 100.029 199.696 100.497 199.432C100.965 199.156 101.505 199.018 102.117 199.018C103.437 199.018 104.301 199.594 104.709 200.746C104.985 200.206 105.381 199.786 105.897 199.486C106.413 199.174 107.001 199.018 107.661 199.018C109.641 199.018 110.631 200.224 110.631 202.636V206.992C110.631 207.76 110.253 208.144 109.497 208.144C108.753 208.144 108.381 207.76 108.381 206.992V202.726C108.381 202.054 108.267 201.562 108.039 201.25C107.823 200.938 107.451 200.782 106.923 200.782C106.335 200.782 105.873 200.992 105.537 201.412C105.201 201.82 105.033 202.39 105.033 203.122V206.992C105.033 207.76 104.661 208.144 103.917 208.144C103.161 208.144 102.783 207.76 102.783 206.992V202.726C102.783 202.054 102.669 201.562 102.441 201.25C102.225 200.938 101.859 200.782 101.343 200.782C100.755 200.782 100.293 200.992 99.9571 201.412C99.6211 201.82 99.4531 202.39 99.4531 203.122V206.992C99.4531 207.76 99.0751 208.144 98.3191 208.144ZM117.29 208.18C116.294 208.18 115.436 207.994 114.716 207.622C113.996 207.25 113.438 206.722 113.042 206.038C112.658 205.354 112.466 204.544 112.466 203.608C112.466 202.696 112.652 201.898 113.024 201.214C113.408 200.53 113.93 199.996 114.59 199.612C115.262 199.216 116.024 199.018 116.876 199.018C118.124 199.018 119.108 199.414 119.828 200.206C120.56 200.998 120.926 202.078 120.926 203.446C120.926 203.89 120.638 204.112 120.062 204.112H114.626C114.794 205.684 115.694 206.47 117.326 206.47C117.638 206.47 117.986 206.434 118.37 206.362C118.766 206.278 119.138 206.14 119.486 205.948C119.798 205.768 120.062 205.714 120.278 205.786C120.494 205.846 120.644 205.972 120.728 206.164C120.824 206.356 120.836 206.572 120.764 206.812C120.704 207.04 120.536 207.238 120.26 207.406C119.84 207.67 119.354 207.868 118.802 208C118.262 208.12 117.758 208.18 117.29 208.18ZM116.966 200.548C116.306 200.548 115.772 200.752 115.364 201.16C114.956 201.568 114.71 202.12 114.626 202.816H119.054C119.006 202.084 118.802 201.526 118.442 201.142C118.094 200.746 117.602 200.548 116.966 200.548ZM123.824 208.144C123.08 208.144 122.708 207.76 122.708 206.992V200.188C122.708 199.432 123.074 199.054 123.806 199.054C124.538 199.054 124.904 199.432 124.904 200.188V200.566C125.204 200.062 125.606 199.678 126.11 199.414C126.626 199.15 127.202 199.018 127.838 199.018C129.914 199.018 130.952 200.224 130.952 202.636V206.992C130.952 207.76 130.58 208.144 129.836 208.144C129.08 208.144 128.702 207.76 128.702 206.992V202.744C128.702 202.06 128.57 201.562 128.306 201.25C128.054 200.938 127.658 200.782 127.118 200.782C126.458 200.782 125.93 200.992 125.534 201.412C125.15 201.82 124.958 202.366 124.958 203.05V206.992C124.958 207.76 124.58 208.144 123.824 208.144ZM137.251 208.18C136.339 208.18 135.547 207.994 134.875 207.622C134.203 207.25 133.681 206.722 133.309 206.038C132.937 205.342 132.751 204.526 132.751 203.59C132.751 202.654 132.937 201.844 133.309 201.16C133.681 200.476 134.203 199.948 134.875 199.576C135.547 199.204 136.339 199.018 137.251 199.018C138.163 199.018 138.955 199.204 139.627 199.576C140.299 199.948 140.821 200.476 141.193 201.16C141.565 201.844 141.751 202.654 141.751 203.59C141.751 204.526 141.565 205.342 141.193 206.038C140.821 206.722 140.299 207.25 139.627 207.622C138.955 207.994 138.163 208.18 137.251 208.18ZM137.251 206.47C137.923 206.47 138.463 206.23 138.871 205.75C139.279 205.258 139.483 204.538 139.483 203.59C139.483 202.63 139.279 201.916 138.871 201.448C138.463 200.968 137.923 200.728 137.251 200.728C136.579 200.728 136.039 200.968 135.631 201.448C135.223 201.916 135.019 202.63 135.019 203.59C135.019 204.538 135.223 205.258 135.631 205.75C136.039 206.23 136.579 206.47 137.251 206.47ZM146.83 208.18C146.314 208.18 145.768 208.126 145.192 208.018C144.616 207.91 144.1 207.724 143.644 207.46C143.392 207.316 143.236 207.142 143.176 206.938C143.116 206.722 143.122 206.524 143.194 206.344C143.278 206.152 143.41 206.014 143.59 205.93C143.782 205.846 144.004 205.864 144.256 205.984C144.736 206.212 145.186 206.374 145.606 206.47C146.026 206.554 146.44 206.596 146.848 206.596C147.424 206.596 147.85 206.5 148.126 206.308C148.414 206.104 148.558 205.84 148.558 205.516C148.558 205.012 148.186 204.688 147.442 204.544L145.642 204.202C144.118 203.914 143.356 203.122 143.356 201.826C143.356 201.25 143.512 200.752 143.824 200.332C144.148 199.912 144.592 199.588 145.156 199.36C145.72 199.132 146.368 199.018 147.1 199.018C148.156 199.018 149.098 199.252 149.926 199.72C150.154 199.84 150.286 200.008 150.322 200.224C150.37 200.428 150.346 200.626 150.25 200.818C150.166 200.998 150.028 201.13 149.836 201.214C149.644 201.286 149.422 201.262 149.17 201.142C148.798 200.95 148.438 200.812 148.09 200.728C147.754 200.644 147.43 200.602 147.118 200.602C146.53 200.602 146.092 200.704 145.804 200.908C145.528 201.112 145.39 201.382 145.39 201.718C145.39 202.246 145.732 202.57 146.416 202.69L148.216 203.032C148.996 203.176 149.584 203.44 149.98 203.824C150.388 204.208 150.592 204.724 150.592 205.372C150.592 206.248 150.25 206.938 149.566 207.442C148.882 207.934 147.97 208.18 146.83 208.18ZM160.668 208.18C159.9 208.18 159.222 207.994 158.634 207.622C158.058 207.25 157.608 206.722 157.284 206.038C156.96 205.342 156.798 204.526 156.798 203.59C156.798 202.642 156.96 201.832 157.284 201.16C157.608 200.476 158.058 199.948 158.634 199.576C159.222 199.204 159.9 199.018 160.668 199.018C161.292 199.018 161.856 199.156 162.36 199.432C162.864 199.708 163.242 200.074 163.494 200.53V196.3C163.494 195.544 163.866 195.166 164.61 195.166C165.366 195.166 165.744 195.544 165.744 196.3V206.992C165.744 207.76 165.372 208.144 164.628 208.144C163.884 208.144 163.512 207.76 163.512 206.992V206.614C163.26 207.094 162.882 207.478 162.378 207.766C161.874 208.042 161.304 208.18 160.668 208.18ZM161.298 206.47C161.97 206.47 162.51 206.23 162.918 205.75C163.326 205.258 163.53 204.538 163.53 203.59C163.53 202.63 163.326 201.916 162.918 201.448C162.51 200.968 161.97 200.728 161.298 200.728C160.626 200.728 160.086 200.968 159.678 201.448C159.27 201.916 159.066 202.63 159.066 203.59C159.066 204.538 159.27 205.258 159.678 205.75C160.086 206.23 160.626 206.47 161.298 206.47ZM172.415 208.18C171.419 208.18 170.561 207.994 169.841 207.622C169.121 207.25 168.563 206.722 168.167 206.038C167.783 205.354 167.591 204.544 167.591 203.608C167.591 202.696 167.777 201.898 168.149 201.214C168.533 200.53 169.055 199.996 169.715 199.612C170.387 199.216 171.149 199.018 172.001 199.018C173.249 199.018 174.233 199.414 174.953 200.206C175.685 200.998 176.051 202.078 176.051 203.446C176.051 203.89 175.763 204.112 175.187 204.112H169.751C169.919 205.684 170.819 206.47 172.451 206.47C172.763 206.47 173.111 206.434 173.495 206.362C173.891 206.278 174.263 206.14 174.611 205.948C174.923 205.768 175.187 205.714 175.403 205.786C175.619 205.846 175.769 205.972 175.853 206.164C175.949 206.356 175.961 206.572 175.889 206.812C175.829 207.04 175.661 207.238 175.385 207.406C174.965 207.67 174.479 207.868 173.927 208C173.387 208.12 172.883 208.18 172.415 208.18ZM172.091 200.548C171.431 200.548 170.897 200.752 170.489 201.16C170.081 201.568 169.835 202.12 169.751 202.816H174.179C174.131 202.084 173.927 201.526 173.567 201.142C173.219 200.746 172.727 200.548 172.091 200.548ZM183.944 208C183.56 208 183.278 207.916 183.098 207.748C182.93 207.568 182.846 207.31 182.846 206.974C182.846 206.77 182.9 206.572 183.008 206.38C183.116 206.188 183.272 205.984 183.476 205.768L187.094 201.916C187.646 201.34 188.042 200.818 188.282 200.35C188.522 199.87 188.642 199.39 188.642 198.91C188.642 197.686 187.904 197.074 186.428 197.074C186.02 197.074 185.612 197.134 185.204 197.254C184.796 197.362 184.382 197.554 183.962 197.83C183.698 198.01 183.452 198.064 183.224 197.992C182.996 197.92 182.822 197.776 182.702 197.56C182.582 197.332 182.54 197.092 182.576 196.84C182.624 196.588 182.78 196.372 183.044 196.192C183.56 195.844 184.136 195.58 184.772 195.4C185.42 195.22 186.068 195.13 186.716 195.13C188.072 195.13 189.11 195.436 189.83 196.048C190.562 196.66 190.928 197.536 190.928 198.676C190.928 199.444 190.742 200.182 190.37 200.89C190.01 201.598 189.44 202.36 188.66 203.176L185.87 206.092H190.568C191.228 206.092 191.558 206.404 191.558 207.028C191.558 207.676 191.228 208 190.568 208H183.944ZM199.515 208.144C198.771 208.144 198.399 207.76 198.399 206.992V196.3C198.399 195.544 198.771 195.166 199.515 195.166C200.271 195.166 200.649 195.544 200.649 196.3V200.476C200.949 199.996 201.351 199.636 201.855 199.396C202.359 199.144 202.917 199.018 203.529 199.018C205.605 199.018 206.643 200.224 206.643 202.636V206.992C206.643 207.76 206.271 208.144 205.527 208.144C204.771 208.144 204.393 207.76 204.393 206.992V202.744C204.393 202.06 204.261 201.562 203.997 201.25C203.745 200.938 203.349 200.782 202.809 200.782C202.149 200.782 201.621 200.992 201.225 201.412C200.841 201.82 200.649 202.366 200.649 203.05V206.992C200.649 207.76 200.271 208.144 199.515 208.144ZM212.943 208.18C212.031 208.18 211.239 207.994 210.567 207.622C209.895 207.25 209.373 206.722 209.001 206.038C208.629 205.342 208.443 204.526 208.443 203.59C208.443 202.654 208.629 201.844 209.001 201.16C209.373 200.476 209.895 199.948 210.567 199.576C211.239 199.204 212.031 199.018 212.943 199.018C213.855 199.018 214.647 199.204 215.319 199.576C215.991 199.948 216.513 200.476 216.885 201.16C217.257 201.844 217.443 202.654 217.443 203.59C217.443 204.526 217.257 205.342 216.885 206.038C216.513 206.722 215.991 207.25 215.319 207.622C214.647 207.994 213.855 208.18 212.943 208.18ZM212.943 206.47C213.615 206.47 214.155 206.23 214.563 205.75C214.971 205.258 215.175 204.538 215.175 203.59C215.175 202.63 214.971 201.916 214.563 201.448C214.155 200.968 213.615 200.728 212.943 200.728C212.271 200.728 211.731 200.968 211.323 201.448C210.915 201.916 210.711 202.63 210.711 203.59C210.711 204.538 210.915 205.258 211.323 205.75C211.731 206.23 212.271 206.47 212.943 206.47ZM220.452 208.144C219.684 208.144 219.3 207.76 219.3 206.992V200.188C219.3 199.432 219.666 199.054 220.398 199.054C221.13 199.054 221.496 199.432 221.496 200.188V200.746C221.928 199.714 222.852 199.138 224.268 199.018C224.784 198.958 225.072 199.252 225.132 199.9C225.192 200.536 224.88 200.89 224.196 200.962L223.8 200.998C222.324 201.142 221.586 201.898 221.586 203.266V206.992C221.586 207.76 221.208 208.144 220.452 208.144ZM229.159 208.18C228.523 208.18 227.953 208.06 227.449 207.82C226.957 207.568 226.567 207.232 226.279 206.812C226.003 206.392 225.865 205.918 225.865 205.39C225.865 204.742 226.033 204.232 226.369 203.86C226.705 203.476 227.251 203.2 228.007 203.032C228.763 202.864 229.777 202.78 231.049 202.78H231.679V202.402C231.679 201.802 231.547 201.37 231.283 201.106C231.019 200.842 230.575 200.71 229.951 200.71C229.603 200.71 229.225 200.752 228.817 200.836C228.421 200.92 228.001 201.064 227.557 201.268C227.269 201.4 227.029 201.418 226.837 201.322C226.645 201.214 226.513 201.052 226.441 200.836C226.381 200.608 226.393 200.38 226.477 200.152C226.573 199.924 226.759 199.756 227.035 199.648C227.587 199.42 228.115 199.258 228.619 199.162C229.135 199.066 229.603 199.018 230.023 199.018C231.307 199.018 232.261 199.318 232.885 199.918C233.509 200.506 233.821 201.424 233.821 202.672V206.992C233.821 207.76 233.473 208.144 232.777 208.144C232.069 208.144 231.715 207.76 231.715 206.992V206.596C231.511 207.088 231.187 207.478 230.743 207.766C230.299 208.042 229.771 208.18 229.159 208.18ZM229.627 206.632C230.215 206.632 230.701 206.428 231.085 206.02C231.481 205.612 231.679 205.096 231.679 204.472V204.076H231.067C229.939 204.076 229.153 204.166 228.709 204.346C228.277 204.514 228.061 204.826 228.061 205.282C228.061 205.678 228.199 206.002 228.475 206.254C228.751 206.506 229.135 206.632 229.627 206.632ZM239.327 208.18C238.811 208.18 238.265 208.126 237.689 208.018C237.113 207.91 236.597 207.724 236.141 207.46C235.889 207.316 235.733 207.142 235.673 206.938C235.613 206.722 235.619 206.524 235.691 206.344C235.775 206.152 235.907 206.014 236.087 205.93C236.279 205.846 236.501 205.864 236.753 205.984C237.233 206.212 237.683 206.374 238.103 206.47C238.523 206.554 238.937 206.596 239.345 206.596C239.921 206.596 240.347 206.5 240.623 206.308C240.911 206.104 241.055 205.84 241.055 205.516C241.055 205.012 240.683 204.688 239.939 204.544L238.139 204.202C236.615 203.914 235.853 203.122 235.853 201.826C235.853 201.25 236.009 200.752 236.321 200.332C236.645 199.912 237.089 199.588 237.653 199.36C238.217 199.132 238.865 199.018 239.597 199.018C240.653 199.018 241.595 199.252 242.423 199.72C242.651 199.84 242.783 200.008 242.819 200.224C242.867 200.428 242.843 200.626 242.747 200.818C242.663 200.998 242.525 201.13 242.333 201.214C242.141 201.286 241.919 201.262 241.667 201.142C241.295 200.95 240.935 200.812 240.587 200.728C240.251 200.644 239.927 200.602 239.615 200.602C239.027 200.602 238.589 200.704 238.301 200.908C238.025 201.112 237.887 201.382 237.887 201.718C237.887 202.246 238.229 202.57 238.913 202.69L240.713 203.032C241.493 203.176 242.081 203.44 242.477 203.824C242.885 204.208 243.089 204.724 243.089 205.372C243.089 206.248 242.747 206.938 242.063 207.442C241.379 207.934 240.467 208.18 239.327 208.18Z" fill="black"/>
<circle cx="124" cy="80" r="79.5" fill="#F8F8F8" stroke="#444444"/>
<path d="M120.623 68.46L110.291 64.4C109.134 63.952 108.555 63.1307 108.555 61.936C108.555 61.3387 108.695 60.844 108.975 60.452C109.274 60.06 109.712 59.752 110.291 59.528L120.623 55.468C121.071 55.3 121.463 55.272 121.799 55.384C122.135 55.496 122.396 55.7013 122.583 56C122.788 56.28 122.9 56.5973 122.919 56.952C122.956 57.3067 122.882 57.6427 122.695 57.96C122.527 58.2587 122.228 58.492 121.799 58.66L110.011 63.196V60.76L121.799 65.296C122.228 65.464 122.527 65.7067 122.695 66.024C122.882 66.3227 122.956 66.6493 122.919 67.004C122.9 67.34 122.788 67.6573 122.583 67.956C122.396 68.236 122.135 68.432 121.799 68.544C121.463 68.656 121.071 68.628 120.623 68.46ZM128.032 70C127.211 70 126.613 69.8133 126.24 69.44C125.885 69.048 125.708 68.4787 125.708 67.732C125.708 67.2093 125.82 66.7427 126.044 66.332C126.287 65.9213 126.595 65.52 126.968 65.128L131.868 60.004C132.596 59.22 133.109 58.548 133.408 57.988C133.725 57.428 133.884 56.868 133.884 56.308C133.884 55.5987 133.651 55.0667 133.184 54.712C132.717 54.3573 132.045 54.18 131.168 54.18C130.72 54.18 130.244 54.2453 129.74 54.376C129.236 54.488 128.695 54.6933 128.116 54.992C127.612 55.216 127.155 55.2813 126.744 55.188C126.352 55.0947 126.016 54.8893 125.736 54.572C125.475 54.2547 125.307 53.8907 125.232 53.48C125.176 53.0693 125.241 52.668 125.428 52.276C125.615 51.8653 125.951 51.5293 126.436 51.268C127.295 50.8013 128.181 50.4653 129.096 50.26C130.029 50.0547 130.963 49.952 131.896 49.952C133.427 49.952 134.705 50.176 135.732 50.624C136.777 51.072 137.571 51.7253 138.112 52.584C138.653 53.424 138.924 54.4693 138.924 55.72C138.924 56.504 138.803 57.2693 138.56 58.016C138.336 58.7627 137.963 59.5093 137.44 60.256C136.936 61.0027 136.255 61.796 135.396 62.636L130.86 67.116V65.828H137.776C138.467 65.828 138.989 66.0053 139.344 66.36C139.717 66.7147 139.904 67.228 139.904 67.9C139.904 68.572 139.717 69.0947 139.344 69.468C138.989 69.8227 138.467 70 137.776 70H128.032ZM90.1036 108.252C89.3196 108.252 88.7129 108.037 88.2836 107.608C87.8543 107.179 87.6396 106.553 87.6396 105.732V90.528C87.6396 89.7067 87.8543 89.0813 88.2836 88.652C88.7129 88.2227 89.3196 88.008 90.1036 88.008C90.9063 88.008 91.5223 88.2227 91.9516 88.652C92.3996 89.0813 92.6236 89.7067 92.6236 90.528V96.632H92.1756C92.6236 95.7547 93.2583 95.0827 94.0796 94.616C94.9196 94.1493 95.8716 93.916 96.9356 93.916C98.0369 93.916 98.9423 94.1307 99.6516 94.56C100.361 94.9707 100.893 95.624 101.248 96.52C101.602 97.3973 101.78 98.508 101.78 99.852V105.732C101.78 106.553 101.565 107.179 101.136 107.608C100.706 108.037 100.09 108.252 99.2876 108.252C98.4849 108.252 97.8689 108.037 97.4396 107.608C97.0103 107.179 96.7956 106.553 96.7956 105.732V100.048C96.7956 99.208 96.6463 98.6107 96.3476 98.256C96.0676 97.9013 95.6476 97.724 95.0876 97.724C94.3409 97.724 93.7436 97.9667 93.2956 98.452C92.8476 98.9187 92.6236 99.5533 92.6236 100.356V105.732C92.6236 107.412 91.7836 108.252 90.1036 108.252ZM111.592 108.308C110.061 108.308 108.727 108.019 107.588 107.44C106.449 106.861 105.563 106.031 104.928 104.948C104.293 103.865 103.976 102.587 103.976 101.112C103.976 99.992 104.153 98.9933 104.508 98.116C104.863 97.22 105.376 96.464 106.048 95.848C106.72 95.2133 107.523 94.7373 108.456 94.42C109.389 94.084 110.435 93.916 111.592 93.916C113.123 93.916 114.457 94.2053 115.596 94.784C116.735 95.3627 117.612 96.1933 118.228 97.276C118.863 98.34 119.18 99.6187 119.18 101.112C119.18 102.213 119.003 103.212 118.648 104.108C118.293 105.004 117.78 105.769 117.108 106.404C116.455 107.02 115.652 107.496 114.7 107.832C113.767 108.149 112.731 108.308 111.592 108.308ZM111.592 104.64C112.096 104.64 112.544 104.519 112.936 104.276C113.328 104.015 113.627 103.632 113.832 103.128C114.056 102.605 114.168 101.933 114.168 101.112C114.168 99.8613 113.925 98.9653 113.44 98.424C112.955 97.864 112.339 97.584 111.592 97.584C111.088 97.584 110.64 97.7053 110.248 97.948C109.856 98.1907 109.548 98.5733 109.324 99.096C109.1 99.6 108.988 100.272 108.988 101.112C108.988 102.344 109.231 103.24 109.716 103.8C110.201 104.36 110.827 104.64 111.592 104.64ZM124.012 108.252C123.19 108.252 122.556 108.037 122.108 107.608C121.678 107.179 121.464 106.553 121.464 105.732V96.464C121.464 95.6613 121.669 95.0453 122.08 94.616C122.509 94.1867 123.116 93.972 123.9 93.972C124.684 93.972 125.281 94.1867 125.692 94.616C126.102 95.0453 126.308 95.6613 126.308 96.464V97.612H126.028C126.214 96.492 126.69 95.6053 127.456 94.952C128.24 94.2987 129.21 93.9533 130.368 93.916C130.909 93.8973 131.31 94.0373 131.572 94.336C131.852 94.616 132.001 95.148 132.02 95.932C132.02 96.604 131.88 97.136 131.6 97.528C131.32 97.92 130.788 98.1533 130.004 98.228L129.36 98.284C128.37 98.3773 127.652 98.6573 127.204 99.124C126.756 99.572 126.532 100.244 126.532 101.14V105.732C126.532 106.553 126.317 107.179 125.888 107.608C125.458 108.037 124.833 108.252 124.012 108.252ZM138.256 108.308C137.192 108.308 136.249 108.112 135.428 107.72C134.625 107.328 133.99 106.796 133.524 106.124C133.076 105.433 132.852 104.649 132.852 103.772C132.852 102.764 133.113 101.971 133.636 101.392C134.158 100.813 134.998 100.403 136.156 100.16C137.313 99.8987 138.853 99.768 140.776 99.768H142.316V102.12H140.776C140.048 102.12 139.441 102.176 138.956 102.288C138.489 102.381 138.144 102.54 137.92 102.764C137.696 102.969 137.584 103.24 137.584 103.576C137.584 104.005 137.733 104.36 138.032 104.64C138.349 104.92 138.797 105.06 139.376 105.06C139.842 105.06 140.253 104.957 140.608 104.752C140.981 104.547 141.28 104.267 141.504 103.912C141.728 103.539 141.84 103.109 141.84 102.624V99.376C141.84 98.704 141.662 98.228 141.308 97.948C140.972 97.668 140.384 97.528 139.544 97.528C139.096 97.528 138.592 97.584 138.032 97.696C137.472 97.7893 136.846 97.9667 136.156 98.228C135.652 98.4147 135.222 98.4427 134.868 98.312C134.513 98.1813 134.233 97.9573 134.028 97.64C133.841 97.3227 133.748 96.9773 133.748 96.604C133.766 96.2307 133.888 95.876 134.112 95.54C134.354 95.204 134.718 94.9427 135.204 94.756C136.1 94.42 136.921 94.196 137.668 94.084C138.433 93.972 139.133 93.916 139.768 93.916C141.298 93.916 142.558 94.14 143.548 94.588C144.556 95.0173 145.302 95.6893 145.788 96.604C146.292 97.5 146.544 98.6573 146.544 100.076V105.732C146.544 106.553 146.348 107.179 145.956 107.608C145.564 108.037 144.994 108.252 144.248 108.252C143.482 108.252 142.894 108.037 142.484 107.608C142.092 107.179 141.896 106.553 141.896 105.732V105.004L142.064 105.396C141.97 105.993 141.756 106.507 141.42 106.936C141.084 107.365 140.645 107.701 140.104 107.944C139.562 108.187 138.946 108.308 138.256 108.308ZM154.87 108.308C154.048 108.308 153.208 108.243 152.35 108.112C151.51 108 150.744 107.785 150.054 107.468C149.587 107.281 149.251 107.029 149.046 106.712C148.859 106.395 148.766 106.059 148.766 105.704C148.784 105.349 148.887 105.032 149.074 104.752C149.279 104.453 149.54 104.248 149.858 104.136C150.194 104.005 150.567 104.015 150.978 104.164C151.762 104.444 152.462 104.649 153.078 104.78C153.712 104.892 154.319 104.948 154.898 104.948C155.588 104.948 156.083 104.855 156.382 104.668C156.68 104.463 156.83 104.201 156.83 103.884C156.83 103.604 156.727 103.389 156.522 103.24C156.335 103.091 156.064 102.988 155.71 102.932L152.602 102.428C151.444 102.223 150.548 101.803 149.914 101.168C149.279 100.515 148.962 99.6653 148.962 98.62C148.962 97.6493 149.232 96.8187 149.774 96.128C150.334 95.4187 151.09 94.8773 152.042 94.504C153.012 94.112 154.123 93.916 155.374 93.916C156.214 93.916 156.979 93.9813 157.67 94.112C158.36 94.224 159.032 94.4387 159.686 94.756C160.096 94.924 160.386 95.1667 160.554 95.484C160.722 95.8013 160.787 96.1373 160.75 96.492C160.712 96.828 160.591 97.1453 160.386 97.444C160.199 97.724 159.938 97.92 159.602 98.032C159.266 98.1253 158.874 98.0973 158.426 97.948C157.81 97.7053 157.259 97.528 156.774 97.416C156.307 97.304 155.868 97.248 155.458 97.248C154.692 97.248 154.151 97.3507 153.834 97.556C153.516 97.7613 153.358 98.0227 153.358 98.34C153.358 98.5827 153.442 98.788 153.61 98.956C153.778 99.1053 154.039 99.208 154.394 99.264L157.502 99.796C158.696 99.9827 159.611 100.393 160.246 101.028C160.899 101.644 161.226 102.484 161.226 103.548C161.226 105.06 160.647 106.236 159.49 107.076C158.332 107.897 156.792 108.308 154.87 108.308Z" fill="#D96581"/>
</svg>
