<svg width="160" height="215" viewBox="0 0 160 215" fill="none" xmlns="http://www.w3.org/2000/svg">
<path d="M22.9505 208.144C22.5305 208.144 22.2305 208 22.0505 207.712C21.8705 207.424 21.8765 207.076 22.0685 206.668L26.8205 196.138C26.9765 195.79 27.1625 195.544 27.3785 195.4C27.6065 195.244 27.8645 195.166 28.1525 195.166C28.4285 195.166 28.6745 195.244 28.8905 195.4C29.1185 195.544 29.3105 195.79 29.4665 196.138L34.2365 206.668C34.4285 207.088 34.4405 207.442 34.2725 207.73C34.1045 208.006 33.8165 208.144 33.4085 208.144C33.0725 208.144 32.8085 208.066 32.6165 207.91C32.4365 207.742 32.2745 207.49 32.1305 207.154L31.2305 205.066H25.0385L24.1565 207.154C24.0005 207.502 23.8385 207.754 23.6705 207.91C23.5025 208.066 23.2625 208.144 22.9505 208.144ZM28.1165 197.812L25.8305 203.23H30.4385L28.1525 197.812H28.1165ZM39.7713 208.18C37.4433 208.18 36.2793 207.028 36.2793 204.724V200.89H35.3433C34.7433 200.89 34.4433 200.608 34.4433 200.044C34.4433 199.48 34.7433 199.198 35.3433 199.198H36.2793V197.56C36.2793 196.804 36.6573 196.426 37.4133 196.426C38.1573 196.426 38.5293 196.804 38.5293 197.56V199.198H40.4373C41.0373 199.198 41.3373 199.48 41.3373 200.044C41.3373 200.608 41.0373 200.89 40.4373 200.89H38.5293V204.598C38.5293 205.174 38.6553 205.606 38.9073 205.894C39.1593 206.182 39.5673 206.326 40.1313 206.326C40.3353 206.326 40.5153 206.308 40.6713 206.272C40.8273 206.236 40.9653 206.212 41.0853 206.2C41.2293 206.188 41.3493 206.236 41.4453 206.344C41.5413 206.44 41.5893 206.644 41.5893 206.956C41.5893 207.196 41.5473 207.412 41.4633 207.604C41.3913 207.784 41.2533 207.91 41.0493 207.982C40.8933 208.03 40.6893 208.072 40.4373 208.108C40.1853 208.156 39.9633 208.18 39.7713 208.18ZM46.8976 208.18C45.9016 208.18 45.0436 207.994 44.3236 207.622C43.6036 207.25 43.0456 206.722 42.6496 206.038C42.2656 205.354 42.0736 204.544 42.0736 203.608C42.0736 202.696 42.2596 201.898 42.6316 201.214C43.0156 200.53 43.5376 199.996 44.1976 199.612C44.8696 199.216 45.6316 199.018 46.4836 199.018C47.7316 199.018 48.7156 199.414 49.4356 200.206C50.1676 200.998 50.5336 202.078 50.5336 203.446C50.5336 203.89 50.2456 204.112 49.6696 204.112H44.2336C44.4016 205.684 45.3016 206.47 46.9336 206.47C47.2456 206.47 47.5936 206.434 47.9776 206.362C48.3736 206.278 48.7456 206.14 49.0936 205.948C49.4056 205.768 49.6696 205.714 49.8856 205.786C50.1016 205.846 50.2516 205.972 50.3356 206.164C50.4316 206.356 50.4436 206.572 50.3716 206.812C50.3116 207.04 50.1436 207.238 49.8676 207.406C49.4476 207.67 48.9616 207.868 48.4096 208C47.8696 208.12 47.3656 208.18 46.8976 208.18ZM46.5736 200.548C45.9136 200.548 45.3796 200.752 44.9716 201.16C44.5636 201.568 44.3176 202.12 44.2336 202.816H48.6616C48.6136 202.084 48.4096 201.526 48.0496 201.142C47.7016 200.746 47.2096 200.548 46.5736 200.548ZM53.4315 208.144C52.6875 208.144 52.3155 207.76 52.3155 206.992V200.188C52.3155 199.432 52.6815 199.054 53.4135 199.054C54.1455 199.054 54.5115 199.432 54.5115 200.188V200.566C54.8115 200.062 55.2135 199.678 55.7175 199.414C56.2335 199.15 56.8095 199.018 57.4455 199.018C59.5215 199.018 60.5595 200.224 60.5595 202.636V206.992C60.5595 207.76 60.1875 208.144 59.4435 208.144C58.6875 208.144 58.3095 207.76 58.3095 206.992V202.744C58.3095 202.06 58.1775 201.562 57.9135 201.25C57.6615 200.938 57.2655 200.782 56.7255 200.782C56.0655 200.782 55.5375 200.992 55.1415 201.412C54.7575 201.82 54.5655 202.366 54.5655 203.05V206.992C54.5655 207.76 54.1875 208.144 53.4315 208.144ZM66.9128 208.18C65.9888 208.18 65.1848 207.994 64.5008 207.622C63.8168 207.238 63.2888 206.698 62.9168 206.002C62.5448 205.306 62.3588 204.49 62.3588 203.554C62.3588 202.618 62.5448 201.814 62.9168 201.142C63.2888 200.458 63.8168 199.936 64.5008 199.576C65.1848 199.204 65.9888 199.018 66.9128 199.018C67.3088 199.018 67.7348 199.072 68.1908 199.18C68.6588 199.288 69.0968 199.468 69.5048 199.72C69.7448 199.864 69.8828 200.05 69.9188 200.278C69.9668 200.506 69.9368 200.716 69.8288 200.908C69.7328 201.1 69.5828 201.238 69.3788 201.322C69.1868 201.406 68.9648 201.376 68.7128 201.232C68.1608 200.92 67.6268 200.764 67.1108 200.764C66.3308 200.764 65.7248 201.01 65.2928 201.502C64.8728 201.982 64.6628 202.672 64.6628 203.572C64.6628 204.46 64.8728 205.162 65.2928 205.678C65.7248 206.182 66.3308 206.434 67.1108 206.434C67.6268 206.434 68.1608 206.284 68.7128 205.984C68.9648 205.84 69.1868 205.81 69.3788 205.894C69.5708 205.978 69.7088 206.122 69.7928 206.326C69.8768 206.518 69.8948 206.728 69.8468 206.956C69.7988 207.172 69.6608 207.352 69.4328 207.496C69.0368 207.736 68.6168 207.91 68.1728 208.018C67.7288 208.126 67.3088 208.18 66.9128 208.18ZM72.451 197.398C72.031 197.398 71.701 197.296 71.461 197.092C71.233 196.876 71.119 196.582 71.119 196.21C71.119 195.826 71.233 195.532 71.461 195.328C71.701 195.124 72.031 195.022 72.451 195.022C73.339 195.022 73.783 195.418 73.783 196.21C73.783 197.002 73.339 197.398 72.451 197.398ZM72.451 208.126C72.091 208.126 71.815 208.018 71.623 207.802C71.431 207.586 71.335 207.286 71.335 206.902V200.296C71.335 199.48 71.707 199.072 72.451 199.072C73.207 199.072 73.585 199.48 73.585 200.296V206.902C73.585 207.286 73.489 207.586 73.297 207.802C73.105 208.018 72.823 208.126 72.451 208.126ZM79.9369 208.18C79.0249 208.18 78.2329 207.994 77.5609 207.622C76.8889 207.25 76.3669 206.722 75.9949 206.038C75.6229 205.342 75.4369 204.526 75.4369 203.59C75.4369 202.654 75.6229 201.844 75.9949 201.16C76.3669 200.476 76.8889 199.948 77.5609 199.576C78.2329 199.204 79.0249 199.018 79.9369 199.018C80.8489 199.018 81.6409 199.204 82.3129 199.576C82.9849 199.948 83.5069 200.476 83.8789 201.16C84.2509 201.844 84.4369 202.654 84.4369 203.59C84.4369 204.526 84.2509 205.342 83.8789 206.038C83.5069 206.722 82.9849 207.25 82.3129 207.622C81.6409 207.994 80.8489 208.18 79.9369 208.18ZM79.9369 206.47C80.6089 206.47 81.1489 206.23 81.5569 205.75C81.9649 205.258 82.1689 204.538 82.1689 203.59C82.1689 202.63 81.9649 201.916 81.5569 201.448C81.1489 200.968 80.6089 200.728 79.9369 200.728C79.2649 200.728 78.7249 200.968 78.3169 201.448C77.9089 201.916 77.7049 202.63 77.7049 203.59C77.7049 204.538 77.9089 205.258 78.3169 205.75C78.7249 206.23 79.2649 206.47 79.9369 206.47ZM80.7829 197.92C80.6629 198.088 80.5189 198.184 80.3509 198.208C80.1829 198.232 80.0209 198.202 79.8649 198.118C79.7089 198.034 79.5949 197.914 79.5229 197.758C79.4629 197.602 79.4809 197.428 79.5769 197.236L80.9449 194.554C81.0769 194.278 81.2629 194.122 81.5029 194.086C81.7429 194.038 81.9709 194.074 82.1869 194.194C82.4149 194.314 82.5709 194.488 82.6549 194.716C82.7389 194.932 82.6969 195.16 82.5289 195.4L80.7829 197.92ZM87.41 208.144C86.666 208.144 86.294 207.76 86.294 206.992V200.188C86.294 199.432 86.66 199.054 87.392 199.054C88.124 199.054 88.49 199.432 88.49 200.188V200.566C88.79 200.062 89.192 199.678 89.696 199.414C90.212 199.15 90.788 199.018 91.424 199.018C93.5 199.018 94.538 200.224 94.538 202.636V206.992C94.538 207.76 94.166 208.144 93.422 208.144C92.666 208.144 92.288 207.76 92.288 206.992V202.744C92.288 202.06 92.156 201.562 91.892 201.25C91.64 200.938 91.244 200.782 90.704 200.782C90.044 200.782 89.516 200.992 89.12 201.412C88.736 201.82 88.544 202.366 88.544 203.05V206.992C88.544 207.76 88.166 208.144 87.41 208.144ZM102.934 208C102.55 208 102.268 207.916 102.088 207.748C101.92 207.568 101.836 207.31 101.836 206.974C101.836 206.77 101.89 206.572 101.998 206.38C102.106 206.188 102.262 205.984 102.466 205.768L106.084 201.916C106.636 201.34 107.032 200.818 107.272 200.35C107.512 199.87 107.632 199.39 107.632 198.91C107.632 197.686 106.894 197.074 105.418 197.074C105.01 197.074 104.602 197.134 104.194 197.254C103.786 197.362 103.372 197.554 102.952 197.83C102.688 198.01 102.442 198.064 102.214 197.992C101.986 197.92 101.812 197.776 101.692 197.56C101.572 197.332 101.53 197.092 101.566 196.84C101.614 196.588 101.77 196.372 102.034 196.192C102.55 195.844 103.126 195.58 103.762 195.4C104.41 195.22 105.058 195.13 105.706 195.13C107.062 195.13 108.1 195.436 108.82 196.048C109.552 196.66 109.918 197.536 109.918 198.676C109.918 199.444 109.732 200.182 109.36 200.89C109 201.598 108.43 202.36 107.65 203.176L104.86 206.092H109.558C110.218 206.092 110.548 206.404 110.548 207.028C110.548 207.676 110.218 208 109.558 208H102.934ZM118.767 208.144C118.407 208.144 118.125 208.048 117.921 207.856C117.717 207.652 117.615 207.364 117.615 206.992V205.588H113.169C112.797 205.588 112.497 205.51 112.269 205.354C112.053 205.198 111.945 204.958 111.945 204.634C111.945 204.43 111.993 204.214 112.089 203.986C112.197 203.758 112.383 203.458 112.647 203.086L117.579 195.94C117.747 195.688 117.933 195.496 118.137 195.364C118.341 195.232 118.575 195.166 118.839 195.166C119.151 195.166 119.409 195.262 119.613 195.454C119.817 195.634 119.919 195.922 119.919 196.318V203.68H120.801C121.497 203.68 121.845 203.998 121.845 204.634C121.845 205.27 121.497 205.588 120.801 205.588H119.919V206.992C119.919 207.364 119.817 207.652 119.613 207.856C119.409 208.048 119.127 208.144 118.767 208.144ZM117.615 203.68V198.838L114.303 203.68H117.615ZM123.71 208.522C123.626 208.81 123.47 208.996 123.242 209.08C123.026 209.176 122.804 209.188 122.576 209.116C122.36 209.056 122.192 208.93 122.072 208.738C121.94 208.546 121.922 208.3 122.018 208L126.176 195.094C126.272 194.806 126.428 194.614 126.644 194.518C126.86 194.422 127.076 194.41 127.292 194.482C127.52 194.542 127.694 194.674 127.814 194.878C127.946 195.07 127.964 195.31 127.868 195.598L123.71 208.522ZM130.865 208.144C130.445 208.144 130.145 208 129.965 207.712C129.785 207.424 129.803 207.076 130.019 206.668L135.041 197.236H129.623C128.951 197.236 128.615 196.918 128.615 196.282C128.615 195.634 128.951 195.31 129.623 195.31H136.589C136.913 195.31 137.177 195.394 137.381 195.562C137.585 195.73 137.687 195.97 137.687 196.282C137.687 196.546 137.651 196.78 137.579 196.984C137.507 197.176 137.411 197.386 137.291 197.614L132.179 207.388C131.915 207.892 131.477 208.144 130.865 208.144Z" fill="black"/>
<circle cx="80" cy="80" r="79.5" fill="#F8F8F8" stroke="#444444"/>
<path fill-rule="evenodd" clip-rule="evenodd" d="M83.6365 43.6364V47.4546C82.4365 47.3455 81.2365 47.2727 80.0001 47.2727C78.7637 47.2727 77.5637 47.3455 76.3637 47.4546V43.6364C76.3637 42.6719 76.7468 41.747 77.4288 41.0651C78.1107 40.3831 79.0357 40 80.0001 40C80.9645 40 81.8894 40.3831 82.5714 41.0651C83.2533 41.747 83.6365 42.6719 83.6365 43.6364ZM43.3819 71.1274C47.4448 62.0098 54.737 54.7175 63.8547 50.6546C61.2494 48.4616 57.9509 47.2633 54.5455 47.2728C50.6878 47.2728 46.9881 48.8053 44.2603 51.5331C41.5325 54.2609 40.0001 57.9606 40.0001 61.8183C39.9905 65.2237 41.1888 68.5222 43.3819 71.1274ZM116.618 71.1274C118.811 68.5222 120.009 65.2237 120 61.8183C120 57.9606 118.467 54.2609 115.74 51.5331C113.012 48.8053 109.312 47.2728 105.454 47.2728C102.049 47.2633 98.7506 48.4616 96.1454 50.6546C105.263 54.7175 112.555 62.0098 116.618 71.1274ZM61.8178 60.061C67.1997 56.4649 73.5272 54.5455 80.0001 54.5455C88.6799 54.5455 97.0043 57.9935 103.142 64.1311C109.279 70.2687 112.727 78.593 112.727 87.2728C112.727 93.7457 110.808 100.073 107.212 105.455C103.616 110.837 98.5045 115.032 92.5243 117.509C86.5442 119.986 79.9638 120.634 73.6153 119.371C67.2668 118.109 61.4354 114.992 56.8584 110.415C52.2814 105.838 49.1644 100.006 47.9016 93.6576C46.6388 87.3091 47.2869 80.7288 49.764 74.7486C52.241 68.7685 56.4358 63.6572 61.8178 60.061ZM82.571 89.8437C83.253 89.1619 83.6363 88.2372 83.6365 87.2728V65.4546C83.6365 64.4902 83.2534 63.5652 82.5714 62.8833C81.8895 62.2013 80.9645 61.8182 80.0001 61.8182C79.0357 61.8182 78.1107 62.2013 77.4288 62.8833C76.7468 63.5652 76.3637 64.4902 76.3637 65.4546V85.7674L66.5201 95.611C65.8577 96.2969 65.4912 97.2154 65.4994 98.1689C65.5077 99.1223 65.8902 100.034 66.5644 100.709C67.2386 101.383 68.1506 101.765 69.1041 101.773C70.0575 101.782 70.9761 101.415 71.6619 100.753L82.571 89.8437Z" fill="#D96581"/>
</svg>
