<svg width="225" height="240" viewBox="0 0 225 240" fill="none" xmlns="http://www.w3.org/2000/svg">
<path d="M11.7753 208.144C11.4033 208.144 11.1153 208.042 10.9113 207.838C10.7193 207.622 10.6233 207.328 10.6233 206.956V196.48C10.6233 196.096 10.7253 195.808 10.9293 195.616C11.1333 195.412 11.4213 195.31 11.7933 195.31H16.1313C17.5233 195.31 18.5973 195.646 19.3533 196.318C20.1093 196.978 20.4873 197.908 20.4873 199.108C20.4873 199.888 20.3133 200.56 19.9653 201.124C19.6293 201.688 19.1373 202.12 18.4893 202.42C17.8413 202.72 17.0553 202.87 16.1313 202.87L16.2933 202.6H16.8873C17.3793 202.6 17.8053 202.72 18.1653 202.96C18.5373 203.2 18.8613 203.578 19.1373 204.094L20.4873 206.596C20.6313 206.848 20.6973 207.094 20.6853 207.334C20.6733 207.574 20.5833 207.772 20.4153 207.928C20.2473 208.072 20.0013 208.144 19.6773 208.144C19.3533 208.144 19.0893 208.078 18.8853 207.946C18.6813 207.802 18.5013 207.586 18.3453 207.298L16.5273 203.95C16.3113 203.542 16.0533 203.272 15.7533 203.14C15.4653 202.996 15.0933 202.924 14.6373 202.924H12.9273V206.956C12.9273 207.328 12.8313 207.622 12.6393 207.838C12.4473 208.042 12.1593 208.144 11.7753 208.144ZM12.9273 201.214H15.7353C16.5633 201.214 17.1873 201.046 17.6073 200.71C18.0393 200.362 18.2553 199.846 18.2553 199.162C18.2553 198.49 18.0393 197.986 17.6073 197.65C17.1873 197.302 16.5633 197.128 15.7353 197.128H12.9273V201.214ZM26.8566 208.18C25.8606 208.18 25.0026 207.994 24.2826 207.622C23.5626 207.25 23.0046 206.722 22.6086 206.038C22.2246 205.354 22.0326 204.544 22.0326 203.608C22.0326 202.696 22.2186 201.898 22.5906 201.214C22.9746 200.53 23.4966 199.996 24.1566 199.612C24.8286 199.216 25.5906 199.018 26.4426 199.018C27.0666 199.018 27.6246 199.12 28.1166 199.324C28.6206 199.528 29.0466 199.822 29.3946 200.206C29.7546 200.59 30.0246 201.058 30.2046 201.61C30.3966 202.15 30.4926 202.762 30.4926 203.446C30.4926 203.662 30.4146 203.83 30.2586 203.95C30.1146 204.058 29.9046 204.112 29.6286 204.112H23.8506V202.816H28.9086L28.6206 203.086C28.6206 202.534 28.5366 202.072 28.3686 201.7C28.2126 201.328 27.9786 201.046 27.6666 200.854C27.3666 200.65 26.9886 200.548 26.5326 200.548C26.0286 200.548 25.5966 200.668 25.2366 200.908C24.8886 201.136 24.6186 201.466 24.4266 201.898C24.2466 202.318 24.1566 202.822 24.1566 203.41V203.536C24.1566 204.52 24.3846 205.258 24.8406 205.75C25.3086 206.23 25.9926 206.47 26.8926 206.47C27.2046 206.47 27.5526 206.434 27.9366 206.362C28.3326 206.278 28.7046 206.14 29.0526 205.948C29.3046 205.804 29.5266 205.744 29.7186 205.768C29.9106 205.78 30.0606 205.846 30.1686 205.966C30.2886 206.086 30.3606 206.236 30.3846 206.416C30.4086 206.584 30.3726 206.758 30.2766 206.938C30.1926 207.118 30.0426 207.274 29.8266 207.406C29.4066 207.67 28.9206 207.868 28.3686 208C27.8286 208.12 27.3246 208.18 26.8566 208.18ZM36.3425 208.18C35.4185 208.18 34.6145 207.994 33.9305 207.622C33.2465 207.238 32.7185 206.698 32.3465 206.002C31.9745 205.306 31.7885 204.49 31.7885 203.554C31.7885 202.846 31.8905 202.216 32.0945 201.664C32.3105 201.1 32.6165 200.626 33.0125 200.242C33.4085 199.846 33.8885 199.546 34.4525 199.342C35.0165 199.126 35.6465 199.018 36.3425 199.018C36.7385 199.018 37.1645 199.072 37.6205 199.18C38.0885 199.288 38.5265 199.468 38.9345 199.72C39.1265 199.84 39.2525 199.984 39.3125 200.152C39.3725 200.32 39.3845 200.494 39.3485 200.674C39.3125 200.842 39.2345 200.992 39.1145 201.124C39.0065 201.244 38.8685 201.322 38.7005 201.358C38.5325 201.382 38.3465 201.34 38.1425 201.232C37.8785 201.076 37.6085 200.962 37.3325 200.89C37.0565 200.806 36.7925 200.764 36.5405 200.764C36.1445 200.764 35.7965 200.83 35.4965 200.962C35.1965 201.082 34.9385 201.262 34.7225 201.502C34.5185 201.73 34.3625 202.018 34.2545 202.366C34.1465 202.714 34.0925 203.116 34.0925 203.572C34.0925 204.46 34.3025 205.162 34.7225 205.678C35.1545 206.182 35.7605 206.434 36.5405 206.434C36.7925 206.434 37.0505 206.398 37.3145 206.326C37.5905 206.254 37.8665 206.14 38.1425 205.984C38.3465 205.876 38.5265 205.84 38.6825 205.876C38.8505 205.912 38.9885 205.996 39.0965 206.128C39.2045 206.248 39.2705 206.398 39.2945 206.578C39.3185 206.746 39.2945 206.914 39.2225 207.082C39.1625 207.25 39.0425 207.388 38.8625 207.496C38.4665 207.736 38.0465 207.91 37.6025 208.018C37.1585 208.126 36.7385 208.18 36.3425 208.18ZM44.6029 208.18C43.6909 208.18 42.8989 207.994 42.2269 207.622C41.5549 207.25 41.0329 206.722 40.6609 206.038C40.2889 205.342 40.1029 204.526 40.1029 203.59C40.1029 202.882 40.2049 202.252 40.4089 201.7C40.6249 201.136 40.9309 200.656 41.3269 200.26C41.7229 199.852 42.1969 199.546 42.7489 199.342C43.3009 199.126 43.9189 199.018 44.6029 199.018C45.5149 199.018 46.3069 199.204 46.9789 199.576C47.6509 199.948 48.1729 200.476 48.5449 201.16C48.9169 201.844 49.1029 202.654 49.1029 203.59C49.1029 204.298 48.9949 204.934 48.7789 205.498C48.5749 206.062 48.2749 206.548 47.8789 206.956C47.4829 207.352 47.0089 207.658 46.4569 207.874C45.9049 208.078 45.2869 208.18 44.6029 208.18ZM44.6029 206.47C45.0469 206.47 45.4369 206.362 45.7729 206.146C46.1089 205.93 46.3669 205.612 46.5469 205.192C46.7389 204.76 46.8349 204.226 46.8349 203.59C46.8349 202.63 46.6309 201.916 46.2229 201.448C45.8149 200.968 45.2749 200.728 44.6029 200.728C44.1589 200.728 43.7689 200.836 43.4329 201.052C43.0969 201.256 42.8329 201.574 42.6409 202.006C42.4609 202.426 42.3709 202.954 42.3709 203.59C42.3709 204.538 42.5749 205.258 42.9829 205.75C43.3909 206.23 43.9309 206.47 44.6029 206.47ZM52.112 208.144C51.74 208.144 51.452 208.048 51.248 207.856C51.056 207.652 50.96 207.364 50.96 206.992V200.188C50.96 199.816 51.056 199.534 51.248 199.342C51.44 199.15 51.71 199.054 52.058 199.054C52.406 199.054 52.676 199.15 52.868 199.342C53.06 199.534 53.156 199.816 53.156 200.188V201.322H52.976C53.144 200.602 53.474 200.056 53.966 199.684C54.458 199.312 55.112 199.09 55.928 199.018C56.18 198.994 56.378 199.06 56.522 199.216C56.678 199.36 56.768 199.588 56.792 199.9C56.816 200.2 56.744 200.446 56.576 200.638C56.42 200.818 56.18 200.926 55.856 200.962L55.46 200.998C54.728 201.07 54.176 201.298 53.804 201.682C53.432 202.054 53.246 202.582 53.246 203.266V206.992C53.246 207.364 53.15 207.652 52.958 207.856C52.766 208.048 52.484 208.144 52.112 208.144ZM61.2522 208.18C60.4842 208.18 59.8062 207.994 59.2182 207.622C58.6422 207.25 58.1922 206.722 57.8682 206.038C57.5442 205.342 57.3822 204.526 57.3822 203.59C57.3822 202.642 57.5442 201.832 57.8682 201.16C58.1922 200.476 58.6422 199.948 59.2182 199.576C59.8062 199.204 60.4842 199.018 61.2522 199.018C61.9842 199.018 62.6202 199.198 63.1602 199.558C63.7122 199.918 64.0842 200.392 64.2762 200.98H64.0782V196.3C64.0782 195.928 64.1742 195.646 64.3662 195.454C64.5582 195.262 64.8342 195.166 65.1942 195.166C65.5542 195.166 65.8302 195.262 66.0222 195.454C66.2262 195.646 66.3282 195.928 66.3282 196.3V206.992C66.3282 207.364 66.2322 207.652 66.0402 207.856C65.8482 208.048 65.5722 208.144 65.2122 208.144C64.8522 208.144 64.5762 208.048 64.3842 207.856C64.1922 207.652 64.0962 207.364 64.0962 206.992V205.588L64.2942 206.128C64.1142 206.752 63.7482 207.25 63.1962 207.622C62.6442 207.994 61.9962 208.18 61.2522 208.18ZM61.8822 206.47C62.3262 206.47 62.7162 206.362 63.0522 206.146C63.3882 205.93 63.6462 205.612 63.8262 205.192C64.0182 204.76 64.1142 204.226 64.1142 203.59C64.1142 202.63 63.9102 201.916 63.5022 201.448C63.0942 200.968 62.5542 200.728 61.8822 200.728C61.4382 200.728 61.0482 200.836 60.7122 201.052C60.3762 201.256 60.1122 201.574 59.9202 202.006C59.7402 202.426 59.6502 202.954 59.6502 203.59C59.6502 204.538 59.8542 205.258 60.2622 205.75C60.6702 206.23 61.2102 206.47 61.8822 206.47ZM71.5592 208.18C70.9232 208.18 70.3532 208.06 69.8492 207.82C69.3572 207.568 68.9672 207.232 68.6792 206.812C68.4032 206.392 68.2652 205.918 68.2652 205.39C68.2652 204.742 68.4332 204.232 68.7692 203.86C69.1052 203.476 69.6512 203.2 70.4072 203.032C71.1632 202.864 72.1772 202.78 73.4492 202.78H74.3492V204.076H73.4672C72.7232 204.076 72.1292 204.112 71.6852 204.184C71.2412 204.256 70.9232 204.382 70.7312 204.562C70.5512 204.73 70.4612 204.97 70.4612 205.282C70.4612 205.678 70.5992 206.002 70.8752 206.254C71.1512 206.506 71.5352 206.632 72.0272 206.632C72.4232 206.632 72.7712 206.542 73.0712 206.362C73.3832 206.17 73.6292 205.912 73.8092 205.588C73.9892 205.264 74.0792 204.892 74.0792 204.472V202.402C74.0792 201.802 73.9472 201.37 73.6832 201.106C73.4192 200.842 72.9752 200.71 72.3512 200.71C72.0032 200.71 71.6252 200.752 71.2172 200.836C70.8212 200.92 70.4012 201.064 69.9572 201.268C69.7292 201.376 69.5252 201.406 69.3452 201.358C69.1772 201.31 69.0452 201.214 68.9492 201.07C68.8532 200.914 68.8052 200.746 68.8052 200.566C68.8052 200.386 68.8532 200.212 68.9492 200.044C69.0452 199.864 69.2072 199.732 69.4352 199.648C69.9872 199.42 70.5152 199.258 71.0192 199.162C71.5352 199.066 72.0032 199.018 72.4232 199.018C73.2872 199.018 73.9952 199.15 74.5472 199.414C75.1112 199.678 75.5312 200.08 75.8072 200.62C76.0832 201.148 76.2212 201.832 76.2212 202.672V206.992C76.2212 207.364 76.1312 207.652 75.9512 207.856C75.7712 208.048 75.5132 208.144 75.1772 208.144C74.8412 208.144 74.5772 208.048 74.3852 207.856C74.2052 207.652 74.1152 207.364 74.1152 206.992V206.128H74.2592C74.1752 206.548 74.0072 206.914 73.7552 207.226C73.5152 207.526 73.2092 207.76 72.8372 207.928C72.4652 208.096 72.0392 208.18 71.5592 208.18ZM82.537 208.18C81.757 208.18 81.103 208.048 80.575 207.784C80.059 207.52 79.675 207.136 79.423 206.632C79.171 206.116 79.045 205.48 79.045 204.724V200.89H78.109C77.821 200.89 77.599 200.818 77.443 200.674C77.287 200.518 77.209 200.308 77.209 200.044C77.209 199.768 77.287 199.558 77.443 199.414C77.599 199.27 77.821 199.198 78.109 199.198H79.045V197.56C79.045 197.188 79.141 196.906 79.333 196.714C79.537 196.522 79.819 196.426 80.179 196.426C80.539 196.426 80.815 196.522 81.007 196.714C81.199 196.906 81.295 197.188 81.295 197.56V199.198H83.203C83.491 199.198 83.713 199.27 83.869 199.414C84.025 199.558 84.103 199.768 84.103 200.044C84.103 200.308 84.025 200.518 83.869 200.674C83.713 200.818 83.491 200.89 83.203 200.89H81.295V204.598C81.295 205.174 81.421 205.606 81.673 205.894C81.925 206.182 82.333 206.326 82.897 206.326C83.101 206.326 83.281 206.308 83.437 206.272C83.593 206.236 83.731 206.212 83.851 206.2C83.995 206.188 84.115 206.236 84.211 206.344C84.307 206.44 84.355 206.644 84.355 206.956C84.355 207.196 84.313 207.412 84.229 207.604C84.157 207.784 84.019 207.91 83.815 207.982C83.659 208.03 83.455 208.072 83.203 208.108C82.951 208.156 82.729 208.18 82.537 208.18ZM89.3393 208.18C88.4273 208.18 87.6353 207.994 86.9633 207.622C86.2913 207.25 85.7693 206.722 85.3973 206.038C85.0253 205.342 84.8393 204.526 84.8393 203.59C84.8393 202.882 84.9413 202.252 85.1453 201.7C85.3613 201.136 85.6673 200.656 86.0633 200.26C86.4593 199.852 86.9333 199.546 87.4853 199.342C88.0373 199.126 88.6553 199.018 89.3393 199.018C90.2513 199.018 91.0433 199.204 91.7153 199.576C92.3873 199.948 92.9093 200.476 93.2813 201.16C93.6533 201.844 93.8393 202.654 93.8393 203.59C93.8393 204.298 93.7313 204.934 93.5153 205.498C93.3113 206.062 93.0113 206.548 92.6153 206.956C92.2193 207.352 91.7453 207.658 91.1933 207.874C90.6413 208.078 90.0233 208.18 89.3393 208.18ZM89.3393 206.47C89.7833 206.47 90.1733 206.362 90.5093 206.146C90.8453 205.93 91.1033 205.612 91.2833 205.192C91.4753 204.76 91.5713 204.226 91.5713 203.59C91.5713 202.63 91.3673 201.916 90.9593 201.448C90.5513 200.968 90.0113 200.728 89.3393 200.728C88.8953 200.728 88.5053 200.836 88.1693 201.052C87.8333 201.256 87.5693 201.574 87.3773 202.006C87.1973 202.426 87.1073 202.954 87.1073 203.59C87.1073 204.538 87.3113 205.258 87.7193 205.75C88.1273 206.23 88.6673 206.47 89.3393 206.47ZM96.8484 208.144C96.4764 208.144 96.1884 208.048 95.9844 207.856C95.7924 207.652 95.6964 207.364 95.6964 206.992V200.188C95.6964 199.816 95.7924 199.534 95.9844 199.342C96.1764 199.15 96.4464 199.054 96.7944 199.054C97.1424 199.054 97.4124 199.15 97.6044 199.342C97.7964 199.534 97.8924 199.816 97.8924 200.188V201.322H97.7124C97.8804 200.602 98.2104 200.056 98.7024 199.684C99.1944 199.312 99.8484 199.09 100.664 199.018C100.916 198.994 101.114 199.06 101.258 199.216C101.414 199.36 101.504 199.588 101.528 199.9C101.552 200.2 101.48 200.446 101.312 200.638C101.156 200.818 100.916 200.926 100.592 200.962L100.196 200.998C99.4644 201.07 98.9124 201.298 98.5404 201.682C98.1684 202.054 97.9824 202.582 97.9824 203.266V206.992C97.9824 207.364 97.8864 207.652 97.6944 207.856C97.5024 208.048 97.2204 208.144 96.8484 208.144ZM103.861 208.126C103.501 208.126 103.225 208.018 103.033 207.802C102.841 207.586 102.745 207.286 102.745 206.902V200.296C102.745 199.9 102.841 199.6 103.033 199.396C103.225 199.18 103.501 199.072 103.861 199.072C104.221 199.072 104.497 199.18 104.689 199.396C104.893 199.6 104.995 199.9 104.995 200.296V206.902C104.995 207.286 104.899 207.586 104.707 207.802C104.515 208.018 104.233 208.126 103.861 208.126ZM103.861 197.398C103.441 197.398 103.111 197.296 102.871 197.092C102.643 196.876 102.529 196.582 102.529 196.21C102.529 195.826 102.643 195.532 102.871 195.328C103.111 195.124 103.441 195.022 103.861 195.022C104.293 195.022 104.623 195.124 104.851 195.328C105.079 195.532 105.193 195.826 105.193 196.21C105.193 196.582 105.079 196.876 104.851 197.092C104.623 197.296 104.293 197.398 103.861 197.398ZM111.347 208.18C110.435 208.18 109.643 207.994 108.971 207.622C108.299 207.25 107.777 206.722 107.405 206.038C107.033 205.342 106.847 204.526 106.847 203.59C106.847 202.882 106.949 202.252 107.153 201.7C107.369 201.136 107.675 200.656 108.071 200.26C108.467 199.852 108.941 199.546 109.493 199.342C110.045 199.126 110.663 199.018 111.347 199.018C112.259 199.018 113.051 199.204 113.723 199.576C114.395 199.948 114.917 200.476 115.289 201.16C115.661 201.844 115.847 202.654 115.847 203.59C115.847 204.298 115.739 204.934 115.523 205.498C115.319 206.062 115.019 206.548 114.623 206.956C114.227 207.352 113.753 207.658 113.201 207.874C112.649 208.078 112.031 208.18 111.347 208.18ZM111.347 206.47C111.791 206.47 112.181 206.362 112.517 206.146C112.853 205.93 113.111 205.612 113.291 205.192C113.483 204.76 113.579 204.226 113.579 203.59C113.579 202.63 113.375 201.916 112.967 201.448C112.559 200.968 112.019 200.728 111.347 200.728C110.903 200.728 110.513 200.836 110.177 201.052C109.841 201.256 109.577 201.574 109.385 202.006C109.205 202.426 109.115 202.954 109.115 203.59C109.115 204.538 109.319 205.258 109.727 205.75C110.135 206.23 110.675 206.47 111.347 206.47ZM120.926 208.18C120.41 208.18 119.864 208.126 119.288 208.018C118.712 207.91 118.196 207.724 117.74 207.46C117.548 207.34 117.41 207.202 117.326 207.046C117.254 206.878 117.224 206.716 117.236 206.56C117.26 206.392 117.32 206.248 117.416 206.128C117.524 206.008 117.656 205.93 117.812 205.894C117.98 205.858 118.16 205.888 118.352 205.984C118.832 206.212 119.282 206.374 119.702 206.47C120.122 206.554 120.536 206.596 120.944 206.596C121.52 206.596 121.946 206.5 122.222 206.308C122.51 206.104 122.654 205.84 122.654 205.516C122.654 205.24 122.558 205.03 122.366 204.886C122.186 204.73 121.91 204.616 121.538 204.544L119.738 204.202C118.994 204.058 118.424 203.788 118.028 203.392C117.644 202.984 117.452 202.462 117.452 201.826C117.452 201.25 117.608 200.752 117.92 200.332C118.244 199.912 118.688 199.588 119.252 199.36C119.816 199.132 120.464 199.018 121.196 199.018C121.724 199.018 122.216 199.078 122.672 199.198C123.14 199.306 123.59 199.48 124.022 199.72C124.202 199.816 124.322 199.942 124.382 200.098C124.454 200.254 124.472 200.416 124.436 200.584C124.4 200.74 124.328 200.884 124.22 201.016C124.112 201.136 123.974 201.214 123.806 201.25C123.65 201.274 123.47 201.238 123.266 201.142C122.894 200.95 122.534 200.812 122.186 200.728C121.85 200.644 121.526 200.602 121.214 200.602C120.626 200.602 120.188 200.704 119.9 200.908C119.624 201.112 119.486 201.382 119.486 201.718C119.486 201.97 119.57 202.18 119.738 202.348C119.906 202.516 120.164 202.63 120.512 202.69L122.312 203.032C123.092 203.176 123.68 203.44 124.076 203.824C124.484 204.208 124.688 204.724 124.688 205.372C124.688 206.248 124.346 206.938 123.662 207.442C122.978 207.934 122.066 208.18 120.926 208.18ZM132.82 208C132.424 208 132.118 207.898 131.902 207.694C131.698 207.478 131.596 207.172 131.596 206.776V196.534C131.596 196.138 131.698 195.838 131.902 195.634C132.118 195.418 132.424 195.31 132.82 195.31H136.312C138.436 195.31 140.074 195.856 141.226 196.948C142.39 198.04 142.972 199.606 142.972 201.646C142.972 202.666 142.822 203.572 142.522 204.364C142.234 205.144 141.802 205.804 141.226 206.344C140.662 206.884 139.966 207.298 139.138 207.586C138.322 207.862 137.38 208 136.312 208H132.82ZM133.9 206.092H136.168C136.912 206.092 137.554 206.002 138.094 205.822C138.646 205.63 139.102 205.354 139.462 204.994C139.834 204.622 140.11 204.16 140.29 203.608C140.47 203.044 140.56 202.39 140.56 201.646C140.56 200.158 140.194 199.048 139.462 198.316C138.73 197.584 137.632 197.218 136.168 197.218H133.9V206.092ZM149.429 208.18C148.433 208.18 147.575 207.994 146.855 207.622C146.135 207.25 145.577 206.722 145.181 206.038C144.797 205.354 144.605 204.544 144.605 203.608C144.605 202.696 144.791 201.898 145.163 201.214C145.547 200.53 146.069 199.996 146.729 199.612C147.401 199.216 148.163 199.018 149.015 199.018C149.639 199.018 150.197 199.12 150.689 199.324C151.193 199.528 151.619 199.822 151.967 200.206C152.327 200.59 152.597 201.058 152.777 201.61C152.969 202.15 153.065 202.762 153.065 203.446C153.065 203.662 152.987 203.83 152.831 203.95C152.687 204.058 152.477 204.112 152.201 204.112H146.423V202.816H151.481L151.193 203.086C151.193 202.534 151.109 202.072 150.941 201.7C150.785 201.328 150.551 201.046 150.239 200.854C149.939 200.65 149.561 200.548 149.105 200.548C148.601 200.548 148.169 200.668 147.809 200.908C147.461 201.136 147.191 201.466 146.999 201.898C146.819 202.318 146.729 202.822 146.729 203.41V203.536C146.729 204.52 146.957 205.258 147.413 205.75C147.881 206.23 148.565 206.47 149.465 206.47C149.777 206.47 150.125 206.434 150.509 206.362C150.905 206.278 151.277 206.14 151.625 205.948C151.877 205.804 152.099 205.744 152.291 205.768C152.483 205.78 152.633 205.846 152.741 205.966C152.861 206.086 152.933 206.236 152.957 206.416C152.981 206.584 152.945 206.758 152.849 206.938C152.765 207.118 152.615 207.274 152.399 207.406C151.979 207.67 151.493 207.868 150.941 208C150.401 208.12 149.897 208.18 149.429 208.18ZM161.137 208.144C160.765 208.144 160.471 208.042 160.255 207.838C160.051 207.622 159.949 207.316 159.949 206.92V196.534C159.949 196.138 160.051 195.838 160.255 195.634C160.471 195.418 160.777 195.31 161.173 195.31H167.455C167.767 195.31 168.001 195.388 168.157 195.544C168.313 195.7 168.391 195.922 168.391 196.21C168.391 196.51 168.313 196.744 168.157 196.912C168.001 197.068 167.767 197.146 167.455 197.146H162.253V200.728H167.077C167.377 200.728 167.605 200.806 167.761 200.962C167.929 201.118 168.013 201.34 168.013 201.628C168.013 201.928 167.929 202.162 167.761 202.33C167.605 202.486 167.377 202.564 167.077 202.564H162.253V206.92C162.253 207.736 161.881 208.144 161.137 208.144ZM173.862 208.18C172.866 208.18 172.008 207.994 171.288 207.622C170.568 207.25 170.01 206.722 169.614 206.038C169.23 205.354 169.038 204.544 169.038 203.608C169.038 202.696 169.224 201.898 169.596 201.214C169.98 200.53 170.502 199.996 171.162 199.612C171.834 199.216 172.596 199.018 173.448 199.018C174.072 199.018 174.63 199.12 175.122 199.324C175.626 199.528 176.052 199.822 176.4 200.206C176.76 200.59 177.03 201.058 177.21 201.61C177.402 202.15 177.498 202.762 177.498 203.446C177.498 203.662 177.42 203.83 177.264 203.95C177.12 204.058 176.91 204.112 176.634 204.112H170.856V202.816H175.914L175.626 203.086C175.626 202.534 175.542 202.072 175.374 201.7C175.218 201.328 174.984 201.046 174.672 200.854C174.372 200.65 173.994 200.548 173.538 200.548C173.034 200.548 172.602 200.668 172.242 200.908C171.894 201.136 171.624 201.466 171.432 201.898C171.252 202.318 171.162 202.822 171.162 203.41V203.536C171.162 204.52 171.39 205.258 171.846 205.75C172.314 206.23 172.998 206.47 173.898 206.47C174.21 206.47 174.558 206.434 174.942 206.362C175.338 206.278 175.71 206.14 176.058 205.948C176.31 205.804 176.532 205.744 176.724 205.768C176.916 205.78 177.066 205.846 177.174 205.966C177.294 206.086 177.366 206.236 177.39 206.416C177.414 206.584 177.378 206.758 177.282 206.938C177.198 207.118 177.048 207.274 176.832 207.406C176.412 207.67 175.926 207.868 175.374 208C174.834 208.12 174.33 208.18 173.862 208.18ZM183.348 208.18C182.424 208.18 181.62 207.994 180.936 207.622C180.252 207.238 179.724 206.698 179.352 206.002C178.98 205.306 178.794 204.49 178.794 203.554C178.794 202.846 178.896 202.216 179.1 201.664C179.316 201.1 179.622 200.626 180.018 200.242C180.414 199.846 180.894 199.546 181.458 199.342C182.022 199.126 182.652 199.018 183.348 199.018C183.744 199.018 184.17 199.072 184.626 199.18C185.094 199.288 185.532 199.468 185.94 199.72C186.132 199.84 186.258 199.984 186.318 200.152C186.378 200.32 186.39 200.494 186.354 200.674C186.318 200.842 186.24 200.992 186.12 201.124C186.012 201.244 185.874 201.322 185.706 201.358C185.538 201.382 185.352 201.34 185.148 201.232C184.884 201.076 184.614 200.962 184.338 200.89C184.062 200.806 183.798 200.764 183.546 200.764C183.15 200.764 182.802 200.83 182.502 200.962C182.202 201.082 181.944 201.262 181.728 201.502C181.524 201.73 181.368 202.018 181.26 202.366C181.152 202.714 181.098 203.116 181.098 203.572C181.098 204.46 181.308 205.162 181.728 205.678C182.16 206.182 182.766 206.434 183.546 206.434C183.798 206.434 184.056 206.398 184.32 206.326C184.596 206.254 184.872 206.14 185.148 205.984C185.352 205.876 185.532 205.84 185.688 205.876C185.856 205.912 185.994 205.996 186.102 206.128C186.21 206.248 186.276 206.398 186.3 206.578C186.324 206.746 186.3 206.914 186.228 207.082C186.168 207.25 186.048 207.388 185.868 207.496C185.472 207.736 185.052 207.91 184.608 208.018C184.164 208.126 183.744 208.18 183.348 208.18ZM188.887 208.144C188.527 208.144 188.251 208.048 188.059 207.856C187.867 207.652 187.771 207.364 187.771 206.992V196.3C187.771 195.928 187.867 195.646 188.059 195.454C188.251 195.262 188.527 195.166 188.887 195.166C189.247 195.166 189.523 195.262 189.715 195.454C189.919 195.646 190.021 195.928 190.021 196.3V200.962H189.769C190.033 200.326 190.441 199.846 190.993 199.522C191.557 199.186 192.193 199.018 192.901 199.018C193.609 199.018 194.191 199.15 194.647 199.414C195.103 199.678 195.445 200.08 195.673 200.62C195.901 201.148 196.015 201.82 196.015 202.636V206.992C196.015 207.364 195.919 207.652 195.727 207.856C195.535 208.048 195.259 208.144 194.899 208.144C194.539 208.144 194.257 208.048 194.053 207.856C193.861 207.652 193.765 207.364 193.765 206.992V202.744C193.765 202.06 193.633 201.562 193.369 201.25C193.117 200.938 192.721 200.782 192.181 200.782C191.521 200.782 190.993 200.992 190.597 201.412C190.213 201.82 190.021 202.366 190.021 203.05V206.992C190.021 207.76 189.643 208.144 188.887 208.144ZM201.198 208.18C200.562 208.18 199.992 208.06 199.488 207.82C198.996 207.568 198.606 207.232 198.318 206.812C198.042 206.392 197.904 205.918 197.904 205.39C197.904 204.742 198.072 204.232 198.408 203.86C198.744 203.476 199.29 203.2 200.046 203.032C200.802 202.864 201.816 202.78 203.088 202.78H203.988V204.076H203.106C202.362 204.076 201.768 204.112 201.324 204.184C200.88 204.256 200.562 204.382 200.37 204.562C200.19 204.73 200.1 204.97 200.1 205.282C200.1 205.678 200.238 206.002 200.514 206.254C200.79 206.506 201.174 206.632 201.666 206.632C202.062 206.632 202.41 206.542 202.71 206.362C203.022 206.17 203.268 205.912 203.448 205.588C203.628 205.264 203.718 204.892 203.718 204.472V202.402C203.718 201.802 203.586 201.37 203.322 201.106C203.058 200.842 202.614 200.71 201.99 200.71C201.642 200.71 201.264 200.752 200.856 200.836C200.46 200.92 200.04 201.064 199.596 201.268C199.368 201.376 199.164 201.406 198.984 201.358C198.816 201.31 198.684 201.214 198.588 201.07C198.492 200.914 198.444 200.746 198.444 200.566C198.444 200.386 198.492 200.212 198.588 200.044C198.684 199.864 198.846 199.732 199.074 199.648C199.626 199.42 200.154 199.258 200.658 199.162C201.174 199.066 201.642 199.018 202.062 199.018C202.926 199.018 203.634 199.15 204.186 199.414C204.75 199.678 205.17 200.08 205.446 200.62C205.722 201.148 205.86 201.832 205.86 202.672V206.992C205.86 207.364 205.77 207.652 205.59 207.856C205.41 208.048 205.152 208.144 204.816 208.144C204.48 208.144 204.216 208.048 204.024 207.856C203.844 207.652 203.754 207.364 203.754 206.992V206.128H203.898C203.814 206.548 203.646 206.914 203.394 207.226C203.154 207.526 202.848 207.76 202.476 207.928C202.104 208.096 201.678 208.18 201.198 208.18ZM211.366 208.18C210.85 208.18 210.304 208.126 209.728 208.018C209.152 207.91 208.636 207.724 208.18 207.46C207.988 207.34 207.85 207.202 207.766 207.046C207.694 206.878 207.664 206.716 207.676 206.56C207.7 206.392 207.76 206.248 207.856 206.128C207.964 206.008 208.096 205.93 208.252 205.894C208.42 205.858 208.6 205.888 208.792 205.984C209.272 206.212 209.722 206.374 210.142 206.47C210.562 206.554 210.976 206.596 211.384 206.596C211.96 206.596 212.386 206.5 212.662 206.308C212.95 206.104 213.094 205.84 213.094 205.516C213.094 205.24 212.998 205.03 212.806 204.886C212.626 204.73 212.35 204.616 211.978 204.544L210.178 204.202C209.434 204.058 208.864 203.788 208.468 203.392C208.084 202.984 207.892 202.462 207.892 201.826C207.892 201.25 208.048 200.752 208.36 200.332C208.684 199.912 209.128 199.588 209.692 199.36C210.256 199.132 210.904 199.018 211.636 199.018C212.164 199.018 212.656 199.078 213.112 199.198C213.58 199.306 214.03 199.48 214.462 199.72C214.642 199.816 214.762 199.942 214.822 200.098C214.894 200.254 214.912 200.416 214.876 200.584C214.84 200.74 214.768 200.884 214.66 201.016C214.552 201.136 214.414 201.214 214.246 201.25C214.09 201.274 213.91 201.238 213.706 201.142C213.334 200.95 212.974 200.812 212.626 200.728C212.29 200.644 211.966 200.602 211.654 200.602C211.066 200.602 210.628 200.704 210.34 200.908C210.064 201.112 209.926 201.382 209.926 201.718C209.926 201.97 210.01 202.18 210.178 202.348C210.346 202.516 210.604 202.63 210.952 202.69L212.752 203.032C213.532 203.176 214.12 203.44 214.516 203.824C214.924 204.208 215.128 204.724 215.128 205.372C215.128 206.248 214.786 206.938 214.102 207.442C213.418 207.934 212.506 208.18 211.366 208.18ZM63.9208 233.144C63.5488 233.144 63.2608 233.042 63.0568 232.838C62.8648 232.622 62.7688 232.328 62.7688 231.956V221.354C62.7688 220.97 62.8648 220.676 63.0568 220.472C63.2608 220.268 63.5488 220.166 63.9208 220.166C64.2928 220.166 64.5748 220.268 64.7668 220.472C64.9708 220.676 65.0728 220.97 65.0728 221.354V231.956C65.0728 232.328 64.9768 232.622 64.7848 232.838C64.5928 233.042 64.3048 233.144 63.9208 233.144ZM68.7849 233.144C68.4249 233.144 68.1489 233.048 67.9569 232.856C67.7649 232.652 67.6689 232.364 67.6689 231.992V225.188C67.6689 224.816 67.7649 224.534 67.9569 224.342C68.1489 224.15 68.4189 224.054 68.7669 224.054C69.1149 224.054 69.3849 224.15 69.5769 224.342C69.7689 224.534 69.8649 224.816 69.8649 225.188V226.502L69.6669 225.962C69.9069 225.362 70.2789 224.888 70.7829 224.54C71.2869 224.192 71.8869 224.018 72.5829 224.018C73.2909 224.018 73.8729 224.186 74.3289 224.522C74.7849 224.858 75.1029 225.374 75.2829 226.07H75.0309C75.2709 225.434 75.6669 224.936 76.2189 224.576C76.7709 224.204 77.4069 224.018 78.1269 224.018C78.7989 224.018 79.3509 224.15 79.7829 224.414C80.2269 224.678 80.5569 225.08 80.7729 225.62C80.9889 226.148 81.0969 226.82 81.0969 227.636V231.992C81.0969 232.364 80.9949 232.652 80.7909 232.856C80.5989 233.048 80.3229 233.144 79.9629 233.144C79.6029 233.144 79.3269 233.048 79.1349 232.856C78.9429 232.652 78.8469 232.364 78.8469 231.992V227.726C78.8469 227.054 78.7329 226.562 78.5049 226.25C78.2889 225.938 77.9169 225.782 77.3889 225.782C76.8009 225.782 76.3389 225.992 76.0029 226.412C75.6669 226.82 75.4989 227.39 75.4989 228.122V231.992C75.4989 232.364 75.4029 232.652 75.2109 232.856C75.0189 233.048 74.7429 233.144 74.3829 233.144C74.0229 233.144 73.7409 233.048 73.5369 232.856C73.3449 232.652 73.2489 232.364 73.2489 231.992V227.726C73.2489 227.054 73.1349 226.562 72.9069 226.25C72.6909 225.938 72.3249 225.782 71.8089 225.782C71.2209 225.782 70.7589 225.992 70.4229 226.412C70.0869 226.82 69.9189 227.39 69.9189 228.122V231.992C69.9189 232.76 69.5409 233.144 68.7849 233.144ZM84.534 236.384C84.174 236.384 83.898 236.288 83.706 236.096C83.514 235.904 83.418 235.622 83.418 235.25V225.188C83.418 224.816 83.514 224.534 83.706 224.342C83.898 224.15 84.168 224.054 84.516 224.054C84.876 224.054 85.152 224.15 85.344 224.342C85.536 224.534 85.632 224.816 85.632 225.188V226.592L85.434 226.052C85.614 225.44 85.98 224.948 86.532 224.576C87.096 224.204 87.75 224.018 88.494 224.018C89.262 224.018 89.934 224.204 90.51 224.576C91.098 224.948 91.554 225.476 91.878 226.16C92.202 226.832 92.364 227.642 92.364 228.59C92.364 229.526 92.202 230.342 91.878 231.038C91.554 231.722 91.104 232.25 90.528 232.622C89.952 232.994 89.274 233.18 88.494 233.18C87.762 233.18 87.12 233 86.568 232.64C86.016 232.268 85.644 231.788 85.452 231.2H85.668V235.25C85.668 235.622 85.566 235.904 85.362 236.096C85.17 236.288 84.894 236.384 84.534 236.384ZM87.864 231.47C88.308 231.47 88.698 231.362 89.034 231.146C89.37 230.93 89.628 230.612 89.808 230.192C90 229.76 90.096 229.226 90.096 228.59C90.096 227.63 89.892 226.916 89.484 226.448C89.076 225.968 88.536 225.728 87.864 225.728C87.42 225.728 87.03 225.836 86.694 226.052C86.358 226.256 86.094 226.574 85.902 227.006C85.722 227.426 85.632 227.954 85.632 228.59C85.632 229.538 85.836 230.258 86.244 230.75C86.652 231.23 87.192 231.47 87.864 231.47ZM98.225 233.18C97.313 233.18 96.521 232.994 95.849 232.622C95.177 232.25 94.655 231.722 94.283 231.038C93.911 230.342 93.725 229.526 93.725 228.59C93.725 227.882 93.827 227.252 94.031 226.7C94.247 226.136 94.553 225.656 94.949 225.26C95.345 224.852 95.819 224.546 96.371 224.342C96.923 224.126 97.541 224.018 98.225 224.018C99.137 224.018 99.929 224.204 100.601 224.576C101.273 224.948 101.795 225.476 102.167 226.16C102.539 226.844 102.725 227.654 102.725 228.59C102.725 229.298 102.617 229.934 102.401 230.498C102.197 231.062 101.897 231.548 101.501 231.956C101.105 232.352 100.631 232.658 100.079 232.874C99.527 233.078 98.909 233.18 98.225 233.18ZM98.225 231.47C98.669 231.47 99.059 231.362 99.395 231.146C99.731 230.93 99.989 230.612 100.169 230.192C100.361 229.76 100.457 229.226 100.457 228.59C100.457 227.63 100.253 226.916 99.845 226.448C99.437 225.968 98.897 225.728 98.225 225.728C97.781 225.728 97.391 225.836 97.055 226.052C96.719 226.256 96.455 226.574 96.263 227.006C96.083 227.426 95.993 227.954 95.993 228.59C95.993 229.538 96.197 230.258 96.605 230.75C97.013 231.23 97.553 231.47 98.225 231.47ZM105.734 233.144C105.362 233.144 105.074 233.048 104.87 232.856C104.678 232.652 104.582 232.364 104.582 231.992V225.188C104.582 224.816 104.678 224.534 104.87 224.342C105.062 224.15 105.332 224.054 105.68 224.054C106.028 224.054 106.298 224.15 106.49 224.342C106.682 224.534 106.778 224.816 106.778 225.188V226.322H106.598C106.766 225.602 107.096 225.056 107.588 224.684C108.08 224.312 108.734 224.09 109.55 224.018C109.802 223.994 110 224.06 110.144 224.216C110.3 224.36 110.39 224.588 110.414 224.9C110.438 225.2 110.366 225.446 110.198 225.638C110.042 225.818 109.802 225.926 109.478 225.962L109.082 225.998C108.35 226.07 107.798 226.298 107.426 226.682C107.054 227.054 106.868 227.582 106.868 228.266V231.992C106.868 232.364 106.772 232.652 106.58 232.856C106.388 233.048 106.106 233.144 105.734 233.144ZM116.173 233.18C115.393 233.18 114.739 233.048 114.211 232.784C113.695 232.52 113.311 232.136 113.059 231.632C112.807 231.116 112.681 230.48 112.681 229.724V225.89H111.745C111.457 225.89 111.235 225.818 111.079 225.674C110.923 225.518 110.845 225.308 110.845 225.044C110.845 224.768 110.923 224.558 111.079 224.414C111.235 224.27 111.457 224.198 111.745 224.198H112.681V222.56C112.681 222.188 112.777 221.906 112.969 221.714C113.173 221.522 113.455 221.426 113.815 221.426C114.175 221.426 114.451 221.522 114.643 221.714C114.835 221.906 114.931 222.188 114.931 222.56V224.198H116.839C117.127 224.198 117.349 224.27 117.505 224.414C117.661 224.558 117.739 224.768 117.739 225.044C117.739 225.308 117.661 225.518 117.505 225.674C117.349 225.818 117.127 225.89 116.839 225.89H114.931V229.598C114.931 230.174 115.057 230.606 115.309 230.894C115.561 231.182 115.969 231.326 116.533 231.326C116.737 231.326 116.917 231.308 117.073 231.272C117.229 231.236 117.367 231.212 117.487 231.2C117.631 231.188 117.751 231.236 117.847 231.344C117.943 231.44 117.991 231.644 117.991 231.956C117.991 232.196 117.949 232.412 117.865 232.604C117.793 232.784 117.655 232.91 117.451 232.982C117.295 233.03 117.091 233.072 116.839 233.108C116.587 233.156 116.365 233.18 116.173 233.18ZM121.947 233.18C121.311 233.18 120.741 233.06 120.237 232.82C119.745 232.568 119.355 232.232 119.067 231.812C118.791 231.392 118.653 230.918 118.653 230.39C118.653 229.742 118.821 229.232 119.157 228.86C119.493 228.476 120.039 228.2 120.795 228.032C121.551 227.864 122.565 227.78 123.837 227.78H124.737V229.076H123.855C123.111 229.076 122.517 229.112 122.073 229.184C121.629 229.256 121.311 229.382 121.119 229.562C120.939 229.73 120.849 229.97 120.849 230.282C120.849 230.678 120.987 231.002 121.263 231.254C121.539 231.506 121.923 231.632 122.415 231.632C122.811 231.632 123.159 231.542 123.459 231.362C123.771 231.17 124.017 230.912 124.197 230.588C124.377 230.264 124.467 229.892 124.467 229.472V227.402C124.467 226.802 124.335 226.37 124.071 226.106C123.807 225.842 123.363 225.71 122.739 225.71C122.391 225.71 122.013 225.752 121.605 225.836C121.209 225.92 120.789 226.064 120.345 226.268C120.117 226.376 119.913 226.406 119.733 226.358C119.565 226.31 119.433 226.214 119.337 226.07C119.241 225.914 119.193 225.746 119.193 225.566C119.193 225.386 119.241 225.212 119.337 225.044C119.433 224.864 119.595 224.732 119.823 224.648C120.375 224.42 120.903 224.258 121.407 224.162C121.923 224.066 122.391 224.018 122.811 224.018C123.675 224.018 124.383 224.15 124.935 224.414C125.499 224.678 125.919 225.08 126.195 225.62C126.471 226.148 126.609 226.832 126.609 227.672V231.992C126.609 232.364 126.519 232.652 126.339 232.856C126.159 233.048 125.901 233.144 125.565 233.144C125.229 233.144 124.965 233.048 124.773 232.856C124.593 232.652 124.503 232.364 124.503 231.992V231.128H124.647C124.563 231.548 124.395 231.914 124.143 232.226C123.903 232.526 123.597 232.76 123.225 232.928C122.853 233.096 122.427 233.18 121.947 233.18ZM130.009 233.144C129.649 233.144 129.373 233.048 129.181 232.856C128.989 232.652 128.893 232.364 128.893 231.992V225.188C128.893 224.816 128.989 224.534 129.181 224.342C129.373 224.15 129.643 224.054 129.991 224.054C130.339 224.054 130.609 224.15 130.801 224.342C130.993 224.534 131.089 224.816 131.089 225.188V226.412L130.891 225.962C131.155 225.326 131.563 224.846 132.115 224.522C132.679 224.186 133.315 224.018 134.023 224.018C134.731 224.018 135.313 224.15 135.769 224.414C136.225 224.678 136.567 225.08 136.795 225.62C137.023 226.148 137.137 226.82 137.137 227.636V231.992C137.137 232.364 137.041 232.652 136.849 232.856C136.657 233.048 136.381 233.144 136.021 233.144C135.661 233.144 135.379 233.048 135.175 232.856C134.983 232.652 134.887 232.364 134.887 231.992V227.744C134.887 227.06 134.755 226.562 134.491 226.25C134.239 225.938 133.843 225.782 133.303 225.782C132.643 225.782 132.115 225.992 131.719 226.412C131.335 226.82 131.143 227.366 131.143 228.05V231.992C131.143 232.76 130.765 233.144 130.009 233.144ZM143.454 233.18C142.674 233.18 142.02 233.048 141.492 232.784C140.976 232.52 140.592 232.136 140.34 231.632C140.088 231.116 139.962 230.48 139.962 229.724V225.89H139.026C138.738 225.89 138.516 225.818 138.36 225.674C138.204 225.518 138.126 225.308 138.126 225.044C138.126 224.768 138.204 224.558 138.36 224.414C138.516 224.27 138.738 224.198 139.026 224.198H139.962V222.56C139.962 222.188 140.058 221.906 140.25 221.714C140.454 221.522 140.736 221.426 141.096 221.426C141.456 221.426 141.732 221.522 141.924 221.714C142.116 221.906 142.212 222.188 142.212 222.56V224.198H144.12C144.408 224.198 144.63 224.27 144.786 224.414C144.942 224.558 145.02 224.768 145.02 225.044C145.02 225.308 144.942 225.518 144.786 225.674C144.63 225.818 144.408 225.89 144.12 225.89H142.212V229.598C142.212 230.174 142.338 230.606 142.59 230.894C142.842 231.182 143.25 231.326 143.814 231.326C144.018 231.326 144.198 231.308 144.354 231.272C144.51 231.236 144.648 231.212 144.768 231.2C144.912 231.188 145.032 231.236 145.128 231.344C145.224 231.44 145.272 231.644 145.272 231.956C145.272 232.196 145.23 232.412 145.146 232.604C145.074 232.784 144.936 232.91 144.732 232.982C144.576 233.03 144.372 233.072 144.12 233.108C143.868 233.156 143.646 233.18 143.454 233.18ZM150.58 233.18C149.584 233.18 148.726 232.994 148.006 232.622C147.286 232.25 146.728 231.722 146.332 231.038C145.948 230.354 145.756 229.544 145.756 228.608C145.756 227.696 145.942 226.898 146.314 226.214C146.698 225.53 147.22 224.996 147.88 224.612C148.552 224.216 149.314 224.018 150.166 224.018C150.79 224.018 151.348 224.12 151.84 224.324C152.344 224.528 152.77 224.822 153.118 225.206C153.478 225.59 153.748 226.058 153.928 226.61C154.12 227.15 154.216 227.762 154.216 228.446C154.216 228.662 154.138 228.83 153.982 228.95C153.838 229.058 153.628 229.112 153.352 229.112H147.574V227.816H152.632L152.344 228.086C152.344 227.534 152.26 227.072 152.092 226.7C151.936 226.328 151.702 226.046 151.39 225.854C151.09 225.65 150.712 225.548 150.256 225.548C149.752 225.548 149.32 225.668 148.96 225.908C148.612 226.136 148.342 226.466 148.15 226.898C147.97 227.318 147.88 227.822 147.88 228.41V228.536C147.88 229.52 148.108 230.258 148.564 230.75C149.032 231.23 149.716 231.47 150.616 231.47C150.928 231.47 151.276 231.434 151.66 231.362C152.056 231.278 152.428 231.14 152.776 230.948C153.028 230.804 153.25 230.744 153.442 230.768C153.634 230.78 153.784 230.846 153.892 230.966C154.012 231.086 154.084 231.236 154.108 231.416C154.132 231.584 154.096 231.758 154 231.938C153.916 232.118 153.766 232.274 153.55 232.406C153.13 232.67 152.644 232.868 152.092 233C151.552 233.12 151.048 233.18 150.58 233.18ZM159.22 233.18C158.704 233.18 158.158 233.126 157.582 233.018C157.006 232.91 156.49 232.724 156.034 232.46C155.842 232.34 155.704 232.202 155.62 232.046C155.548 231.878 155.518 231.716 155.53 231.56C155.554 231.392 155.614 231.248 155.71 231.128C155.818 231.008 155.95 230.93 156.106 230.894C156.274 230.858 156.454 230.888 156.646 230.984C157.126 231.212 157.576 231.374 157.996 231.47C158.416 231.554 158.83 231.596 159.238 231.596C159.814 231.596 160.24 231.5 160.516 231.308C160.804 231.104 160.948 230.84 160.948 230.516C160.948 230.24 160.852 230.03 160.66 229.886C160.48 229.73 160.204 229.616 159.832 229.544L158.032 229.202C157.288 229.058 156.718 228.788 156.322 228.392C155.938 227.984 155.746 227.462 155.746 226.826C155.746 226.25 155.902 225.752 156.214 225.332C156.538 224.912 156.982 224.588 157.546 224.36C158.11 224.132 158.758 224.018 159.49 224.018C160.018 224.018 160.51 224.078 160.966 224.198C161.434 224.306 161.884 224.48 162.316 224.72C162.496 224.816 162.616 224.942 162.676 225.098C162.748 225.254 162.766 225.416 162.73 225.584C162.694 225.74 162.622 225.884 162.514 226.016C162.406 226.136 162.268 226.214 162.1 226.25C161.944 226.274 161.764 226.238 161.56 226.142C161.188 225.95 160.828 225.812 160.48 225.728C160.144 225.644 159.82 225.602 159.508 225.602C158.92 225.602 158.482 225.704 158.194 225.908C157.918 226.112 157.78 226.382 157.78 226.718C157.78 226.97 157.864 227.18 158.032 227.348C158.2 227.516 158.458 227.63 158.806 227.69L160.606 228.032C161.386 228.176 161.974 228.44 162.37 228.824C162.778 229.208 162.982 229.724 162.982 230.372C162.982 231.248 162.64 231.938 161.956 232.442C161.272 232.934 160.36 233.18 159.22 233.18Z" fill="black"/>
<circle cx="112" cy="80" r="79.5" fill="#F8F8F8" stroke="#444444"/>
<path fill-rule="evenodd" clip-rule="evenodd" d="M133 46.6667H136.333C140.752 46.672 144.988 48.4296 148.113 51.5541C151.237 54.6785 152.995 58.9147 153 63.3333V66.6667H73V63.3333C73.0053 58.9147 74.7629 54.6785 77.8874 51.5541C81.0119 48.4296 85.248 46.672 89.6667 46.6667H93V43.3333C93 42.4493 93.3512 41.6014 93.9763 40.9763C94.6014 40.3512 95.4493 40 96.3333 40C97.2174 40 98.0652 40.3512 98.6904 40.9763C99.3155 41.6014 99.6667 42.4493 99.6667 43.3333V46.6667H126.333V43.3333C126.333 42.4493 126.685 41.6014 127.31 40.9763C127.935 40.3512 128.783 40 129.667 40C130.551 40 131.399 40.3512 132.024 40.9763C132.649 41.6014 133 42.4493 133 43.3333V46.6667ZM77.8874 115.113C74.7629 111.988 73.0053 107.752 73 103.333V73.3333H153V103.333C152.995 107.752 151.237 111.988 148.113 115.113C144.988 118.237 140.752 119.995 136.333 120H89.6667C85.248 119.995 81.0119 118.237 77.8874 115.113ZM132.445 89.176C131.622 88.6266 130.656 88.3333 129.667 88.3333C128.341 88.3333 127.069 88.8601 126.131 89.7978C125.193 90.7355 124.667 92.0073 124.667 93.3333C124.667 94.3222 124.96 95.2889 125.509 96.1112C126.059 96.9334 126.84 97.5743 127.753 97.9527C128.667 98.3312 129.672 98.4302 130.642 98.2373C131.612 98.0443 132.503 97.5681 133.202 96.8689C133.901 96.1696 134.378 95.2787 134.571 94.3088C134.764 93.3389 134.664 92.3335 134.286 91.4199C133.908 90.5063 133.267 89.7254 132.445 89.176ZM115.778 89.176C114.956 88.6266 113.989 88.3333 113 88.3333C111.674 88.3333 110.402 88.8601 109.464 89.7978C108.527 90.7355 108 92.0073 108 93.3333C108 94.3222 108.293 95.2889 108.843 96.1112C109.392 96.9334 110.173 97.5743 111.087 97.9527C112 98.3312 113.006 98.4302 113.975 98.2373C114.945 98.0443 115.836 97.5681 116.536 96.8689C117.235 96.1696 117.711 95.2787 117.904 94.3088C118.097 93.3389 117.998 92.3335 117.619 91.4199C117.241 90.5063 116.6 89.7254 115.778 89.176ZM99.1112 89.176C98.2889 88.6266 97.3222 88.3333 96.3333 88.3333C95.0072 88.3333 93.7355 88.8601 92.7978 89.7978C91.8601 90.7355 91.3333 92.0073 91.3333 93.3333C91.3333 94.3222 91.6266 95.2889 92.176 96.1112C92.7254 96.9334 93.5063 97.5743 94.4199 97.9527C95.3335 98.3312 96.3389 98.4302 97.3088 98.2373C98.2787 98.0443 99.1696 97.5681 99.8689 96.8689C100.568 96.1696 101.044 95.2787 101.237 94.3088C101.43 93.3389 101.331 92.3335 100.953 91.4199C100.574 90.5063 99.9334 89.7254 99.1112 89.176Z" fill="#D96581"/>
</svg>
