<svg width="290" height="51" viewBox="0 0 290 51" fill="none" xmlns="http://www.w3.org/2000/svg">
<rect y="26" width="290" height="4" rx="2" fill="#E5E5E5"/>
<rect x="30" y="26" width="170" height="4" rx="2" fill="#D96581"/>
<path d="M3.72 48.476C3.544 48.476 3.4 48.416 3.288 48.296C3.176 48.184 3.12 48.044 3.12 47.876V46.808L3.396 47.072C2.844 47.056 2.352 46.984 1.92 46.856C1.496 46.728 1.136 46.58 0.84 46.412C0.696 46.324 0.596 46.216 0.54 46.088C0.484 45.952 0.464 45.816 0.48 45.68C0.496 45.544 0.544 45.428 0.624 45.332C0.712 45.228 0.82 45.164 0.948 45.14C1.076 45.108 1.224 45.14 1.392 45.236C1.616 45.364 1.908 45.488 2.268 45.608C2.636 45.72 3.076 45.776 3.588 45.776C3.988 45.776 4.312 45.728 4.56 45.632C4.808 45.536 4.988 45.404 5.1 45.236C5.22 45.068 5.28 44.876 5.28 44.66C5.28 44.484 5.24 44.332 5.16 44.204C5.08 44.068 4.948 43.952 4.764 43.856C4.58 43.752 4.332 43.668 4.02 43.604L2.748 43.328C2.02 43.168 1.476 42.9 1.116 42.524C0.756 42.148 0.576 41.656 0.576 41.048C0.576 40.576 0.692 40.156 0.924 39.788C1.156 39.412 1.48 39.112 1.896 38.888C2.312 38.664 2.8 38.532 3.36 38.492L3.12 38.672V37.664C3.12 37.496 3.176 37.356 3.288 37.244C3.4 37.124 3.544 37.064 3.72 37.064C3.888 37.064 4.028 37.124 4.14 37.244C4.26 37.356 4.32 37.496 4.32 37.664V38.672L4.068 38.48C4.412 38.488 4.788 38.556 5.196 38.684C5.612 38.812 5.968 38.992 6.264 39.224C6.384 39.32 6.464 39.432 6.504 39.56C6.544 39.68 6.548 39.8 6.516 39.92C6.484 40.032 6.424 40.128 6.336 40.208C6.248 40.288 6.136 40.336 6 40.352C5.872 40.36 5.724 40.316 5.556 40.22C5.324 40.084 5.064 39.976 4.776 39.896C4.488 39.808 4.144 39.764 3.744 39.764C3.232 39.764 2.828 39.88 2.532 40.112C2.244 40.336 2.1 40.632 2.1 41C2.1 41.272 2.188 41.492 2.364 41.66C2.54 41.82 2.84 41.948 3.264 42.044L4.572 42.332C5.34 42.5 5.904 42.768 6.264 43.136C6.624 43.496 6.804 43.972 6.804 44.564C6.804 45.028 6.688 45.44 6.456 45.8C6.224 46.152 5.904 46.436 5.496 46.652C5.096 46.86 4.628 46.992 4.092 47.048L4.32 46.796V47.876C4.32 48.044 4.264 48.184 4.152 48.296C4.04 48.416 3.896 48.476 3.72 48.476ZM9.06731 47C8.85931 47 8.69531 46.944 8.57531 46.832C8.46331 46.712 8.40731 46.552 8.40731 46.352C8.40731 46.144 8.46331 45.988 8.57531 45.884C8.69531 45.78 8.85931 45.728 9.06731 45.728H10.4113V39.836H11.1553L9.39131 40.904C9.23931 40.992 9.09531 41.028 8.95931 41.012C8.83131 40.988 8.71931 40.932 8.62331 40.844C8.53531 40.748 8.47531 40.636 8.44331 40.508C8.41131 40.38 8.41931 40.252 8.46731 40.124C8.52331 39.988 8.62731 39.876 8.77931 39.788L10.4353 38.792C10.5953 38.696 10.7553 38.616 10.9153 38.552C11.0753 38.48 11.2233 38.444 11.3593 38.444C11.5273 38.444 11.6673 38.492 11.7793 38.588C11.8913 38.676 11.9473 38.824 11.9473 39.032V45.728H13.1713C13.3793 45.728 13.5393 45.78 13.6513 45.884C13.7713 45.988 13.8313 46.144 13.8313 46.352C13.8313 46.56 13.7713 46.72 13.6513 46.832C13.5393 46.944 13.3793 47 13.1713 47H9.06731ZM15.8906 47.06C15.6186 47.06 15.3986 46.976 15.2306 46.808C15.0706 46.64 14.9906 46.424 14.9906 46.16C14.9906 45.904 15.0706 45.696 15.2306 45.536C15.3986 45.368 15.6186 45.284 15.8906 45.284C16.1706 45.284 16.3866 45.368 16.5386 45.536C16.6986 45.696 16.7786 45.904 16.7786 46.16C16.7786 46.424 16.6986 46.64 16.5386 46.808C16.3866 46.976 16.1706 47.06 15.8906 47.06ZM20.9672 47.12C19.9672 47.12 19.2032 46.744 18.6752 45.992C18.1472 45.232 17.8832 44.152 17.8832 42.752C17.8832 41.808 17.9992 41.016 18.2312 40.376C18.4712 39.728 18.8192 39.24 19.2752 38.912C19.7392 38.584 20.3032 38.42 20.9672 38.42C21.9752 38.42 22.7392 38.788 23.2592 39.524C23.7872 40.26 24.0512 41.332 24.0512 42.74C24.0512 43.676 23.9312 44.472 23.6912 45.128C23.4592 45.776 23.1152 46.272 22.6592 46.616C22.2032 46.952 21.6392 47.12 20.9672 47.12ZM20.9672 45.86C21.5112 45.86 21.9112 45.608 22.1672 45.104C22.4312 44.6 22.5632 43.812 22.5632 42.74C22.5632 41.668 22.4312 40.892 22.1672 40.412C21.9112 39.924 21.5112 39.68 20.9672 39.68C20.4312 39.68 20.0312 39.924 19.7672 40.412C19.5032 40.892 19.3712 41.668 19.3712 42.74C19.3712 43.812 19.5032 44.6 19.7672 45.104C20.0312 45.608 20.4312 45.86 20.9672 45.86ZM28.1625 47.12C27.1625 47.12 26.3985 46.744 25.8705 45.992C25.3425 45.232 25.0785 44.152 25.0785 42.752C25.0785 41.808 25.1945 41.016 25.4265 40.376C25.6665 39.728 26.0145 39.24 26.4705 38.912C26.9345 38.584 27.4985 38.42 28.1625 38.42C29.1705 38.42 29.9345 38.788 30.4545 39.524C30.9825 40.26 31.2465 41.332 31.2465 42.74C31.2465 43.676 31.1265 44.472 30.8865 45.128C30.6545 45.776 30.3105 46.272 29.8545 46.616C29.3985 46.952 28.8345 47.12 28.1625 47.12ZM28.1625 45.86C28.7065 45.86 29.1065 45.608 29.3625 45.104C29.6265 44.6 29.7585 43.812 29.7585 42.74C29.7585 41.668 29.6265 40.892 29.3625 40.412C29.1065 39.924 28.7065 39.68 28.1625 39.68C27.6265 39.68 27.2265 39.924 26.9625 40.412C26.6985 40.892 26.5665 41.668 26.5665 42.74C26.5665 43.812 26.6985 44.6 26.9625 45.104C27.2265 45.608 27.6265 45.86 28.1625 45.86ZM35.3578 47.12C34.3578 47.12 33.5938 46.744 33.0658 45.992C32.5378 45.232 32.2738 44.152 32.2738 42.752C32.2738 41.808 32.3898 41.016 32.6218 40.376C32.8618 39.728 33.2098 39.24 33.6658 38.912C34.1298 38.584 34.6938 38.42 35.3578 38.42C36.3658 38.42 37.1298 38.788 37.6498 39.524C38.1778 40.26 38.4418 41.332 38.4418 42.74C38.4418 43.676 38.3218 44.472 38.0818 45.128C37.8498 45.776 37.5058 46.272 37.0498 46.616C36.5938 46.952 36.0298 47.12 35.3578 47.12ZM35.3578 45.86C35.9018 45.86 36.3018 45.608 36.5578 45.104C36.8218 44.6 36.9538 43.812 36.9538 42.74C36.9538 41.668 36.8218 40.892 36.5578 40.412C36.3018 39.924 35.9018 39.68 35.3578 39.68C34.8218 39.68 34.4218 39.924 34.1578 40.412C33.8938 40.892 33.7618 41.668 33.7618 42.74C33.7618 43.812 33.8938 44.6 34.1578 45.104C34.4218 45.608 34.8218 45.86 35.3578 45.86Z" fill="#9BABBF"/>
<path d="M247.572 48.476C247.396 48.476 247.252 48.416 247.14 48.296C247.028 48.184 246.972 48.044 246.972 47.876V46.808L247.248 47.072C246.696 47.056 246.204 46.984 245.772 46.856C245.348 46.728 244.988 46.58 244.692 46.412C244.548 46.324 244.448 46.216 244.392 46.088C244.336 45.952 244.316 45.816 244.332 45.68C244.348 45.544 244.396 45.428 244.476 45.332C244.564 45.228 244.672 45.164 244.8 45.14C244.928 45.108 245.076 45.14 245.244 45.236C245.468 45.364 245.76 45.488 246.12 45.608C246.488 45.72 246.928 45.776 247.44 45.776C247.84 45.776 248.164 45.728 248.412 45.632C248.66 45.536 248.84 45.404 248.952 45.236C249.072 45.068 249.132 44.876 249.132 44.66C249.132 44.484 249.092 44.332 249.012 44.204C248.932 44.068 248.8 43.952 248.616 43.856C248.432 43.752 248.184 43.668 247.872 43.604L246.6 43.328C245.872 43.168 245.328 42.9 244.968 42.524C244.608 42.148 244.428 41.656 244.428 41.048C244.428 40.576 244.544 40.156 244.776 39.788C245.008 39.412 245.332 39.112 245.748 38.888C246.164 38.664 246.652 38.532 247.212 38.492L246.972 38.672V37.664C246.972 37.496 247.028 37.356 247.14 37.244C247.252 37.124 247.396 37.064 247.572 37.064C247.74 37.064 247.88 37.124 247.992 37.244C248.112 37.356 248.172 37.496 248.172 37.664V38.672L247.92 38.48C248.264 38.488 248.64 38.556 249.048 38.684C249.464 38.812 249.82 38.992 250.116 39.224C250.236 39.32 250.316 39.432 250.356 39.56C250.396 39.68 250.4 39.8 250.368 39.92C250.336 40.032 250.276 40.128 250.188 40.208C250.1 40.288 249.988 40.336 249.852 40.352C249.724 40.36 249.576 40.316 249.408 40.22C249.176 40.084 248.916 39.976 248.628 39.896C248.34 39.808 247.996 39.764 247.596 39.764C247.084 39.764 246.68 39.88 246.384 40.112C246.096 40.336 245.952 40.632 245.952 41C245.952 41.272 246.04 41.492 246.216 41.66C246.392 41.82 246.692 41.948 247.116 42.044L248.424 42.332C249.192 42.5 249.756 42.768 250.116 43.136C250.476 43.496 250.656 43.972 250.656 44.564C250.656 45.028 250.54 45.44 250.308 45.8C250.076 46.152 249.756 46.436 249.348 46.652C248.948 46.86 248.48 46.992 247.944 47.048L248.172 46.796V47.876C248.172 48.044 248.116 48.184 248.004 48.296C247.892 48.416 247.748 48.476 247.572 48.476ZM252.919 47C252.711 47 252.547 46.944 252.427 46.832C252.315 46.712 252.259 46.552 252.259 46.352C252.259 46.144 252.315 45.988 252.427 45.884C252.547 45.78 252.711 45.728 252.919 45.728H254.263V39.836H255.007L253.243 40.904C253.091 40.992 252.947 41.028 252.811 41.012C252.683 40.988 252.571 40.932 252.475 40.844C252.387 40.748 252.327 40.636 252.295 40.508C252.263 40.38 252.271 40.252 252.319 40.124C252.375 39.988 252.479 39.876 252.631 39.788L254.287 38.792C254.447 38.696 254.607 38.616 254.767 38.552C254.927 38.48 255.075 38.444 255.211 38.444C255.379 38.444 255.519 38.492 255.631 38.588C255.743 38.676 255.799 38.824 255.799 39.032V45.728H257.023C257.231 45.728 257.391 45.78 257.503 45.884C257.623 45.988 257.683 46.144 257.683 46.352C257.683 46.56 257.623 46.72 257.503 46.832C257.391 46.944 257.231 47 257.023 47H252.919ZM261.842 47.12C260.842 47.12 260.078 46.744 259.55 45.992C259.022 45.232 258.758 44.152 258.758 42.752C258.758 41.808 258.874 41.016 259.106 40.376C259.346 39.728 259.694 39.24 260.15 38.912C260.614 38.584 261.178 38.42 261.842 38.42C262.85 38.42 263.614 38.788 264.134 39.524C264.662 40.26 264.926 41.332 264.926 42.74C264.926 43.676 264.806 44.472 264.566 45.128C264.334 45.776 263.99 46.272 263.534 46.616C263.078 46.952 262.514 47.12 261.842 47.12ZM261.842 45.86C262.386 45.86 262.786 45.608 263.042 45.104C263.306 44.6 263.438 43.812 263.438 42.74C263.438 41.668 263.306 40.892 263.042 40.412C262.786 39.924 262.386 39.68 261.842 39.68C261.306 39.68 260.906 39.924 260.642 40.412C260.378 40.892 260.246 41.668 260.246 42.74C260.246 43.812 260.378 44.6 260.642 45.104C260.906 45.608 261.306 45.86 261.842 45.86ZM266.938 47.06C266.666 47.06 266.446 46.976 266.278 46.808C266.118 46.64 266.038 46.424 266.038 46.16C266.038 45.904 266.118 45.696 266.278 45.536C266.446 45.368 266.666 45.284 266.938 45.284C267.218 45.284 267.434 45.368 267.586 45.536C267.746 45.696 267.826 45.904 267.826 46.16C267.826 46.424 267.746 46.64 267.586 46.808C267.434 46.976 267.218 47.06 266.938 47.06ZM272.014 47.12C271.014 47.12 270.25 46.744 269.722 45.992C269.194 45.232 268.93 44.152 268.93 42.752C268.93 41.808 269.046 41.016 269.278 40.376C269.518 39.728 269.866 39.24 270.322 38.912C270.786 38.584 271.35 38.42 272.014 38.42C273.022 38.42 273.786 38.788 274.306 39.524C274.834 40.26 275.098 41.332 275.098 42.74C275.098 43.676 274.978 44.472 274.738 45.128C274.506 45.776 274.162 46.272 273.706 46.616C273.25 46.952 272.686 47.12 272.014 47.12ZM272.014 45.86C272.558 45.86 272.958 45.608 273.214 45.104C273.478 44.6 273.61 43.812 273.61 42.74C273.61 41.668 273.478 40.892 273.214 40.412C272.958 39.924 272.558 39.68 272.014 39.68C271.478 39.68 271.078 39.924 270.814 40.412C270.55 40.892 270.418 41.668 270.418 42.74C270.418 43.812 270.55 44.6 270.814 45.104C271.078 45.608 271.478 45.86 272.014 45.86ZM279.209 47.12C278.209 47.12 277.445 46.744 276.917 45.992C276.389 45.232 276.125 44.152 276.125 42.752C276.125 41.808 276.241 41.016 276.473 40.376C276.713 39.728 277.061 39.24 277.517 38.912C277.981 38.584 278.545 38.42 279.209 38.42C280.217 38.42 280.981 38.788 281.501 39.524C282.029 40.26 282.293 41.332 282.293 42.74C282.293 43.676 282.173 44.472 281.933 45.128C281.701 45.776 281.357 46.272 280.901 46.616C280.445 46.952 279.881 47.12 279.209 47.12ZM279.209 45.86C279.753 45.86 280.153 45.608 280.409 45.104C280.673 44.6 280.805 43.812 280.805 42.74C280.805 41.668 280.673 40.892 280.409 40.412C280.153 39.924 279.753 39.68 279.209 39.68C278.673 39.68 278.273 39.924 278.009 40.412C277.745 40.892 277.613 41.668 277.613 42.74C277.613 43.812 277.745 44.6 278.009 45.104C278.273 45.608 278.673 45.86 279.209 45.86ZM286.405 47.12C285.405 47.12 284.641 46.744 284.113 45.992C283.585 45.232 283.321 44.152 283.321 42.752C283.321 41.808 283.437 41.016 283.669 40.376C283.909 39.728 284.257 39.24 284.713 38.912C285.177 38.584 285.741 38.42 286.405 38.42C287.413 38.42 288.177 38.788 288.697 39.524C289.225 40.26 289.489 41.332 289.489 42.74C289.489 43.676 289.369 44.472 289.129 45.128C288.897 45.776 288.553 46.272 288.097 46.616C287.641 46.952 287.077 47.12 286.405 47.12ZM286.405 45.86C286.949 45.86 287.349 45.608 287.605 45.104C287.869 44.6 288.001 43.812 288.001 42.74C288.001 41.668 287.869 40.892 287.605 40.412C287.349 39.924 286.949 39.68 286.405 39.68C285.869 39.68 285.469 39.924 285.205 40.412C284.941 40.892 284.809 41.668 284.809 42.74C284.809 43.812 284.941 44.6 285.205 45.104C285.469 45.608 285.869 45.86 286.405 45.86Z" fill="#9BABBF"/>
<path d="M176.743 13.476C176.567 13.476 176.423 13.416 176.311 13.296C176.199 13.184 176.143 13.044 176.143 12.876V11.808L176.419 12.072C175.867 12.056 175.375 11.984 174.943 11.856C174.519 11.728 174.159 11.58 173.863 11.412C173.719 11.324 173.619 11.216 173.563 11.088C173.507 10.952 173.487 10.816 173.503 10.68C173.519 10.544 173.567 10.428 173.647 10.332C173.735 10.228 173.843 10.164 173.971 10.14C174.099 10.108 174.247 10.14 174.415 10.236C174.639 10.364 174.931 10.488 175.291 10.608C175.659 10.72 176.099 10.776 176.611 10.776C177.011 10.776 177.335 10.728 177.583 10.632C177.831 10.536 178.011 10.404 178.123 10.236C178.243 10.068 178.303 9.876 178.303 9.66C178.303 9.484 178.263 9.332 178.183 9.204C178.103 9.068 177.971 8.952 177.787 8.856C177.603 8.752 177.355 8.668 177.043 8.604L175.771 8.328C175.043 8.168 174.499 7.9 174.139 7.524C173.779 7.148 173.599 6.656 173.599 6.048C173.599 5.576 173.715 5.156 173.947 4.788C174.179 4.412 174.503 4.112 174.919 3.888C175.335 3.664 175.823 3.532 176.383 3.492L176.143 3.672V2.664C176.143 2.496 176.199 2.356 176.311 2.244C176.423 2.124 176.567 2.064 176.743 2.064C176.911 2.064 177.051 2.124 177.163 2.244C177.283 2.356 177.343 2.496 177.343 2.664V3.672L177.091 3.48C177.435 3.488 177.811 3.556 178.219 3.684C178.635 3.812 178.991 3.992 179.287 4.224C179.407 4.32 179.487 4.432 179.527 4.56C179.567 4.68 179.571 4.8 179.539 4.92C179.507 5.032 179.447 5.128 179.359 5.208C179.271 5.288 179.159 5.336 179.023 5.352C178.895 5.36 178.747 5.316 178.579 5.22C178.347 5.084 178.087 4.976 177.799 4.896C177.511 4.808 177.167 4.764 176.767 4.764C176.255 4.764 175.851 4.88 175.555 5.112C175.267 5.336 175.123 5.632 175.123 6C175.123 6.272 175.211 6.492 175.387 6.66C175.563 6.82 175.863 6.948 176.287 7.044L177.595 7.332C178.363 7.5 178.927 7.768 179.287 8.136C179.647 8.496 179.827 8.972 179.827 9.564C179.827 10.028 179.711 10.44 179.479 10.8C179.247 11.152 178.927 11.436 178.519 11.652C178.119 11.86 177.651 11.992 177.115 12.048L177.343 11.796V12.876C177.343 13.044 177.287 13.184 177.175 13.296C177.063 13.416 176.919 13.476 176.743 13.476ZM184.131 12.12C183.435 12.12 182.839 11.956 182.343 11.628C181.855 11.292 181.483 10.812 181.227 10.188C180.971 9.564 180.843 8.808 180.843 7.92C180.843 7.2 180.923 6.564 181.083 6.012C181.251 5.452 181.491 4.98 181.803 4.596C182.115 4.212 182.495 3.92 182.943 3.72C183.399 3.52 183.911 3.42 184.479 3.42C184.831 3.42 185.187 3.476 185.547 3.588C185.915 3.692 186.259 3.852 186.579 4.068C186.707 4.148 186.791 4.252 186.831 4.38C186.871 4.508 186.875 4.636 186.843 4.764C186.819 4.884 186.763 4.992 186.675 5.088C186.595 5.176 186.491 5.232 186.363 5.256C186.235 5.272 186.095 5.236 185.943 5.148C185.671 4.988 185.415 4.876 185.175 4.812C184.935 4.748 184.695 4.716 184.455 4.716C183.991 4.716 183.599 4.824 183.279 5.04C182.959 5.256 182.715 5.58 182.547 6.012C182.387 6.444 182.307 6.984 182.307 7.632V8.532H182.163C182.227 8.124 182.359 7.776 182.559 7.488C182.767 7.192 183.031 6.968 183.351 6.816C183.671 6.656 184.027 6.576 184.419 6.576C184.907 6.576 185.339 6.692 185.715 6.924C186.091 7.156 186.387 7.476 186.603 7.884C186.819 8.292 186.927 8.76 186.927 9.288C186.927 9.832 186.807 10.32 186.567 10.752C186.335 11.176 186.007 11.512 185.583 11.76C185.167 12 184.683 12.12 184.131 12.12ZM184.047 10.896C184.335 10.896 184.587 10.832 184.803 10.704C185.027 10.576 185.199 10.396 185.319 10.164C185.439 9.924 185.499 9.652 185.499 9.348C185.499 9.036 185.439 8.764 185.319 8.532C185.199 8.3 185.027 8.12 184.803 7.992C184.587 7.856 184.335 7.788 184.047 7.788C183.759 7.788 183.507 7.856 183.291 7.992C183.075 8.12 182.903 8.3 182.775 8.532C182.655 8.764 182.595 9.036 182.595 9.348C182.595 9.652 182.655 9.924 182.775 10.164C182.903 10.396 183.075 10.576 183.291 10.704C183.507 10.832 183.759 10.896 184.047 10.896ZM188.914 12.06C188.642 12.06 188.422 11.976 188.254 11.808C188.094 11.64 188.014 11.424 188.014 11.16C188.014 10.904 188.094 10.696 188.254 10.536C188.422 10.368 188.642 10.284 188.914 10.284C189.194 10.284 189.41 10.368 189.562 10.536C189.722 10.696 189.802 10.904 189.802 11.16C189.802 11.424 189.722 11.64 189.562 11.808C189.41 11.976 189.194 12.06 188.914 12.06ZM193.991 12.12C192.991 12.12 192.227 11.744 191.699 10.992C191.171 10.232 190.907 9.152 190.907 7.752C190.907 6.808 191.023 6.016 191.255 5.376C191.495 4.728 191.843 4.24 192.299 3.912C192.763 3.584 193.327 3.42 193.991 3.42C194.999 3.42 195.763 3.788 196.283 4.524C196.811 5.26 197.075 6.332 197.075 7.74C197.075 8.676 196.955 9.472 196.715 10.128C196.483 10.776 196.139 11.272 195.683 11.616C195.227 11.952 194.663 12.12 193.991 12.12ZM193.991 10.86C194.535 10.86 194.935 10.608 195.191 10.104C195.455 9.6 195.587 8.812 195.587 7.74C195.587 6.668 195.455 5.892 195.191 5.412C194.935 4.924 194.535 4.68 193.991 4.68C193.455 4.68 193.055 4.924 192.791 5.412C192.527 5.892 192.395 6.668 192.395 7.74C192.395 8.812 192.527 9.6 192.791 10.104C193.055 10.608 193.455 10.86 193.991 10.86ZM201.186 12.12C200.186 12.12 199.422 11.744 198.894 10.992C198.366 10.232 198.102 9.152 198.102 7.752C198.102 6.808 198.218 6.016 198.45 5.376C198.69 4.728 199.038 4.24 199.494 3.912C199.958 3.584 200.522 3.42 201.186 3.42C202.194 3.42 202.958 3.788 203.478 4.524C204.006 5.26 204.27 6.332 204.27 7.74C204.27 8.676 204.15 9.472 203.91 10.128C203.678 10.776 203.334 11.272 202.878 11.616C202.422 11.952 201.858 12.12 201.186 12.12ZM201.186 10.86C201.73 10.86 202.13 10.608 202.386 10.104C202.65 9.6 202.782 8.812 202.782 7.74C202.782 6.668 202.65 5.892 202.386 5.412C202.13 4.924 201.73 4.68 201.186 4.68C200.65 4.68 200.25 4.924 199.986 5.412C199.722 5.892 199.59 6.668 199.59 7.74C199.59 8.812 199.722 9.6 199.986 10.104C200.25 10.608 200.65 10.86 201.186 10.86ZM208.381 12.12C207.381 12.12 206.617 11.744 206.089 10.992C205.561 10.232 205.297 9.152 205.297 7.752C205.297 6.808 205.413 6.016 205.645 5.376C205.885 4.728 206.233 4.24 206.689 3.912C207.153 3.584 207.717 3.42 208.381 3.42C209.389 3.42 210.153 3.788 210.673 4.524C211.201 5.26 211.465 6.332 211.465 7.74C211.465 8.676 211.345 9.472 211.105 10.128C210.873 10.776 210.529 11.272 210.073 11.616C209.617 11.952 209.053 12.12 208.381 12.12ZM208.381 10.86C208.925 10.86 209.325 10.608 209.581 10.104C209.845 9.6 209.977 8.812 209.977 7.74C209.977 6.668 209.845 5.892 209.581 5.412C209.325 4.924 208.925 4.68 208.381 4.68C207.845 4.68 207.445 4.924 207.181 5.412C206.917 5.892 206.785 6.668 206.785 7.74C206.785 8.812 206.917 9.6 207.181 10.104C207.445 10.608 207.845 10.86 208.381 10.86Z" fill="#D96581"/>
<path d="M22.7317 13.476C22.5557 13.476 22.4117 13.416 22.2997 13.296C22.1877 13.184 22.1317 13.044 22.1317 12.876V11.808L22.4077 12.072C21.8557 12.056 21.3637 11.984 20.9317 11.856C20.5077 11.728 20.1477 11.58 19.8517 11.412C19.7077 11.324 19.6077 11.216 19.5517 11.088C19.4957 10.952 19.4757 10.816 19.4917 10.68C19.5077 10.544 19.5557 10.428 19.6357 10.332C19.7237 10.228 19.8317 10.164 19.9597 10.14C20.0877 10.108 20.2357 10.14 20.4037 10.236C20.6277 10.364 20.9197 10.488 21.2797 10.608C21.6477 10.72 22.0877 10.776 22.5997 10.776C22.9997 10.776 23.3237 10.728 23.5717 10.632C23.8197 10.536 23.9997 10.404 24.1117 10.236C24.2317 10.068 24.2917 9.876 24.2917 9.66C24.2917 9.484 24.2517 9.332 24.1717 9.204C24.0917 9.068 23.9597 8.952 23.7757 8.856C23.5917 8.752 23.3437 8.668 23.0317 8.604L21.7597 8.328C21.0317 8.168 20.4877 7.9 20.1277 7.524C19.7677 7.148 19.5877 6.656 19.5877 6.048C19.5877 5.576 19.7037 5.156 19.9357 4.788C20.1677 4.412 20.4917 4.112 20.9077 3.888C21.3237 3.664 21.8117 3.532 22.3717 3.492L22.1317 3.672V2.664C22.1317 2.496 22.1877 2.356 22.2997 2.244C22.4117 2.124 22.5557 2.064 22.7317 2.064C22.8997 2.064 23.0397 2.124 23.1517 2.244C23.2717 2.356 23.3317 2.496 23.3317 2.664V3.672L23.0797 3.48C23.4237 3.488 23.7997 3.556 24.2077 3.684C24.6237 3.812 24.9797 3.992 25.2757 4.224C25.3957 4.32 25.4757 4.432 25.5157 4.56C25.5557 4.68 25.5597 4.8 25.5277 4.92C25.4957 5.032 25.4357 5.128 25.3477 5.208C25.2597 5.288 25.1477 5.336 25.0117 5.352C24.8837 5.36 24.7357 5.316 24.5677 5.22C24.3357 5.084 24.0757 4.976 23.7877 4.896C23.4997 4.808 23.1557 4.764 22.7557 4.764C22.2437 4.764 21.8397 4.88 21.5437 5.112C21.2557 5.336 21.1117 5.632 21.1117 6C21.1117 6.272 21.1997 6.492 21.3757 6.66C21.5517 6.82 21.8517 6.948 22.2757 7.044L23.5837 7.332C24.3517 7.5 24.9157 7.768 25.2757 8.136C25.6357 8.496 25.8157 8.972 25.8157 9.564C25.8157 10.028 25.6997 10.44 25.4677 10.8C25.2357 11.152 24.9157 11.436 24.5077 11.652C24.1077 11.86 23.6397 11.992 23.1037 12.048L23.3317 11.796V12.876C23.3317 13.044 23.2757 13.184 23.1637 13.296C23.0517 13.416 22.9077 13.476 22.7317 13.476ZM29.639 12.12C29.207 12.12 28.759 12.064 28.295 11.952C27.831 11.84 27.427 11.672 27.083 11.448C26.923 11.344 26.815 11.224 26.759 11.088C26.703 10.952 26.687 10.824 26.711 10.704C26.743 10.576 26.803 10.468 26.891 10.38C26.987 10.292 27.103 10.24 27.239 10.224C27.383 10.208 27.539 10.244 27.707 10.332C28.035 10.508 28.351 10.636 28.655 10.716C28.959 10.788 29.271 10.824 29.591 10.824C29.943 10.824 30.239 10.776 30.479 10.68C30.719 10.584 30.899 10.44 31.019 10.248C31.147 10.056 31.211 9.824 31.211 9.552C31.211 9.152 31.075 8.856 30.803 8.664C30.539 8.464 30.151 8.364 29.639 8.364H28.871C28.647 8.364 28.475 8.308 28.355 8.196C28.243 8.084 28.187 7.928 28.187 7.728C28.187 7.528 28.243 7.372 28.355 7.26C28.475 7.148 28.647 7.092 28.871 7.092H29.495C29.799 7.092 30.059 7.044 30.275 6.948C30.491 6.844 30.659 6.7 30.779 6.516C30.899 6.332 30.959 6.108 30.959 5.844C30.959 5.476 30.835 5.196 30.587 5.004C30.347 4.812 29.995 4.716 29.531 4.716C29.235 4.716 28.955 4.752 28.691 4.824C28.435 4.888 28.151 5.012 27.839 5.196C27.695 5.284 27.555 5.32 27.419 5.304C27.291 5.288 27.183 5.236 27.095 5.148C27.007 5.06 26.947 4.956 26.915 4.836C26.883 4.708 26.891 4.58 26.939 4.452C26.987 4.316 27.087 4.2 27.239 4.104C27.583 3.88 27.963 3.712 28.379 3.6C28.795 3.48 29.223 3.42 29.663 3.42C30.247 3.42 30.747 3.512 31.163 3.696C31.579 3.872 31.895 4.128 32.111 4.464C32.335 4.792 32.447 5.192 32.447 5.664C32.447 6 32.383 6.308 32.255 6.588C32.127 6.86 31.947 7.092 31.715 7.284C31.483 7.476 31.203 7.612 30.875 7.692V7.548C31.451 7.644 31.899 7.884 32.219 8.268C32.539 8.644 32.699 9.116 32.699 9.684C32.699 10.18 32.575 10.612 32.327 10.98C32.079 11.348 31.727 11.632 31.271 11.832C30.815 12.024 30.271 12.12 29.639 12.12ZM37.0023 12.12C36.0023 12.12 35.2383 11.744 34.7103 10.992C34.1823 10.232 33.9183 9.152 33.9183 7.752C33.9183 6.808 34.0343 6.016 34.2663 5.376C34.5063 4.728 34.8543 4.24 35.3103 3.912C35.7743 3.584 36.3383 3.42 37.0023 3.42C38.0103 3.42 38.7743 3.788 39.2943 4.524C39.8223 5.26 40.0863 6.332 40.0863 7.74C40.0863 8.676 39.9663 9.472 39.7263 10.128C39.4943 10.776 39.1503 11.272 38.6943 11.616C38.2383 11.952 37.6743 12.12 37.0023 12.12ZM37.0023 10.86C37.5463 10.86 37.9463 10.608 38.2023 10.104C38.4663 9.6 38.5983 8.812 38.5983 7.74C38.5983 6.668 38.4663 5.892 38.2023 5.412C37.9463 4.924 37.5463 4.68 37.0023 4.68C36.4663 4.68 36.0663 4.924 35.8023 5.412C35.5383 5.892 35.4063 6.668 35.4063 7.74C35.4063 8.812 35.5383 9.6 35.8023 10.104C36.0663 10.608 36.4663 10.86 37.0023 10.86ZM44.1977 12.12C43.1977 12.12 42.4337 11.744 41.9057 10.992C41.3777 10.232 41.1137 9.152 41.1137 7.752C41.1137 6.808 41.2297 6.016 41.4617 5.376C41.7017 4.728 42.0497 4.24 42.5057 3.912C42.9697 3.584 43.5337 3.42 44.1977 3.42C45.2057 3.42 45.9697 3.788 46.4897 4.524C47.0177 5.26 47.2817 6.332 47.2817 7.74C47.2817 8.676 47.1617 9.472 46.9217 10.128C46.6897 10.776 46.3457 11.272 45.8897 11.616C45.4337 11.952 44.8697 12.12 44.1977 12.12ZM44.1977 10.86C44.7417 10.86 45.1417 10.608 45.3977 10.104C45.6617 9.6 45.7937 8.812 45.7937 7.74C45.7937 6.668 45.6617 5.892 45.3977 5.412C45.1417 4.924 44.7417 4.68 44.1977 4.68C43.6617 4.68 43.2617 4.924 42.9977 5.412C42.7337 5.892 42.6017 6.668 42.6017 7.74C42.6017 8.812 42.7337 9.6 42.9977 10.104C43.2617 10.608 43.6617 10.86 44.1977 10.86ZM51.393 12.12C50.393 12.12 49.629 11.744 49.101 10.992C48.573 10.232 48.309 9.152 48.309 7.752C48.309 6.808 48.425 6.016 48.657 5.376C48.897 4.728 49.245 4.24 49.701 3.912C50.165 3.584 50.729 3.42 51.393 3.42C52.401 3.42 53.165 3.788 53.685 4.524C54.213 5.26 54.477 6.332 54.477 7.74C54.477 8.676 54.357 9.472 54.117 10.128C53.885 10.776 53.541 11.272 53.085 11.616C52.629 11.952 52.065 12.12 51.393 12.12ZM51.393 10.86C51.937 10.86 52.337 10.608 52.593 10.104C52.857 9.6 52.989 8.812 52.989 7.74C52.989 6.668 52.857 5.892 52.593 5.412C52.337 4.924 51.937 4.68 51.393 4.68C50.857 4.68 50.457 4.924 50.193 5.412C49.929 5.892 49.797 6.668 49.797 7.74C49.797 8.812 49.929 9.6 50.193 10.104C50.457 10.608 50.857 10.86 51.393 10.86Z" fill="#D96581"/>
<g filter="url(#filter0_d_2428_160)">
<circle cx="37" cy="28" r="7" fill="#D96581"/>
<circle cx="37" cy="28" r="5.5" stroke="white" stroke-width="3"/>
</g>
<g filter="url(#filter1_d_2428_160)">
<circle cx="193" cy="28" r="7" fill="#D96581"/>
<circle cx="193" cy="28" r="5.5" stroke="white" stroke-width="3"/>
</g>
<defs>
<filter id="filter0_d_2428_160" x="18" y="12" width="38" height="38" filterUnits="userSpaceOnUse" color-interpolation-filters="sRGB">
<feFlood flood-opacity="0" result="BackgroundImageFix"/>
<feColorMatrix in="SourceAlpha" type="matrix" values="0 0 0 0 0 0 0 0 0 0 0 0 0 0 0 0 0 0 127 0" result="hardAlpha"/>
<feOffset dy="3"/>
<feGaussianBlur stdDeviation="6"/>
<feComposite in2="hardAlpha" operator="out"/>
<feColorMatrix type="matrix" values="0 0 0 0 0.60625 0 0 0 0 0.672375 0 0 0 0 0.75 0 0 0 1 0"/>
<feBlend mode="normal" in2="BackgroundImageFix" result="effect1_dropShadow_2428_160"/>
<feBlend mode="normal" in="SourceGraphic" in2="effect1_dropShadow_2428_160" result="shape"/>
</filter>
<filter id="filter1_d_2428_160" x="174" y="12" width="38" height="38" filterUnits="userSpaceOnUse" color-interpolation-filters="sRGB">
<feFlood flood-opacity="0" result="BackgroundImageFix"/>
<feColorMatrix in="SourceAlpha" type="matrix" values="0 0 0 0 0 0 0 0 0 0 0 0 0 0 0 0 0 0 127 0" result="hardAlpha"/>
<feOffset dy="3"/>
<feGaussianBlur stdDeviation="6"/>
<feComposite in2="hardAlpha" operator="out"/>
<feColorMatrix type="matrix" values="0 0 0 0 0.60625 0 0 0 0 0.672375 0 0 0 0 0.75 0 0 0 1 0"/>
<feBlend mode="normal" in2="BackgroundImageFix" result="effect1_dropShadow_2428_160"/>
<feBlend mode="normal" in="SourceGraphic" in2="effect1_dropShadow_2428_160" result="shape"/>
</filter>
</defs>
</svg>
