<svg width="20" height="18" viewBox="0 0 20 18" fill="none" xmlns="http://www.w3.org/2000/svg">
<path d="M18.5969 5.57314L13.6792 0.60801C13.2933 0.218578 12.77 -0.000129777 12.2244 5.77735e-08C11.6788 0.000129892 11.1556 0.219086 10.7699 0.608702C10.3842 0.998318 10.1676 1.52668 10.1677 2.07755C10.1678 2.62842 10.3847 3.15667 10.7706 3.54611L14.1153 6.92312H2.05702C1.51147 6.92312 0.988255 7.14193 0.602488 7.53142C0.216721 7.92091 0 8.44918 0 9C0 9.55082 0.216721 10.0791 0.602488 10.4686C0.988255 10.8581 1.51147 11.0769 2.05702 11.0769H14.1153L10.7706 14.4539C10.3847 14.8433 10.1678 15.3716 10.1677 15.9225C10.1676 16.4733 10.3842 17.0017 10.7699 17.3913C11.1556 17.7809 11.6788 17.9999 12.2244 18C12.77 18.0001 13.2933 17.7814 13.6792 17.392L18.5969 12.4269C19.4954 11.5171 20 10.2848 20 9C20 7.71522 19.4954 6.48287 18.5969 5.57314Z" fill="white"/>
</svg>
