<svg width="50" height="50" viewBox="0 0 50 50" fill="none" xmlns="http://www.w3.org/2000/svg">
<rect opacity="0.2" width="50" height="50" rx="15" fill="#D96581"/>
<path fill-rule="evenodd" clip-rule="evenodd" d="M29.9838 13C32.0161 13 33.8064 13.6774 35.0645 14.9839C36.3225 16.2419 37 17.9839 37 20.0161V29.9838C37 32.0645 36.3225 33.8548 35.0161 35.1129C33.758 36.3225 32.0161 37 29.9355 37H20.0645C18.0806 37 16.3387 36.3709 15.0323 35.1129C13.6774 33.8064 13 32.0161 13 29.9355V20.0161C13 15.8064 15.8064 13 20.0161 13H29.9838ZM33.4677 33.5161C34.3387 32.6935 34.8709 31.4838 34.8709 29.9838V20.0161C34.8709 18.6129 34.3871 17.4032 33.5645 16.5323C32.6935 15.6613 31.4838 15.2258 30.0322 15.2258H20.0645C18.6129 15.2258 17.3548 15.6613 16.5323 16.4839C15.6613 17.3548 15.2258 18.5645 15.2258 20.0161V29.9355C15.2258 31.4354 15.6613 32.6451 16.5323 33.5161C17.4032 34.3387 18.6129 34.7742 20.0645 34.7742H29.9355C31.3871 34.7742 32.5967 34.3387 33.4677 33.5161ZM31.4354 20.0161C32.2104 20.0161 32.8386 19.3878 32.8386 18.6129C32.8386 17.8379 32.2104 17.2096 31.4354 17.2096C30.6604 17.2096 30.0322 17.8379 30.0322 18.6129C30.0322 19.3878 30.6604 20.0161 31.4354 20.0161ZM25 18.758C21.6129 18.758 18.8064 21.5161 18.8064 24.9515C18.8064 28.387 21.5645 31.1451 25 31.1451C28.4355 31.1451 31.1935 28.3386 31.1935 24.9515C31.1935 21.5645 28.3871 18.758 25 18.758ZM25 28.9193C22.8226 28.9193 21.0322 27.129 21.0322 24.9515C21.0322 22.7741 22.8226 20.9838 25 20.9838C27.1774 20.9838 28.9677 22.7741 28.9677 24.9515C28.9677 27.129 27.1774 28.9193 25 28.9193Z" fill="white"/>
</svg>
