<svg width="50" height="50" viewBox="0 0 50 50" fill="none" xmlns="http://www.w3.org/2000/svg">
<rect opacity="0.2" width="50" height="50" rx="15" fill="#D96581"/>
<path d="M35.9992 22.842C33.935 22.847 31.9214 22.2032 30.2429 21.0017V29.3813C30.2424 30.9333 29.768 32.4482 28.8832 33.7233C27.9985 34.9984 26.7456 35.973 25.2919 36.5168C23.8383 37.0606 22.2534 37.1477 20.7489 36.7664C19.2445 36.3851 17.8923 35.5536 16.8733 34.383C15.8542 33.2125 15.2167 31.7587 15.0462 30.2161C14.8756 28.6735 15.1801 27.1156 15.9188 25.7507C16.6576 24.3858 17.7954 23.279 19.1802 22.5782C20.565 21.8775 22.1307 21.6162 23.668 21.8293V26.0439C22.9645 25.8227 22.2091 25.8293 21.5097 26.063C20.8102 26.2966 20.2025 26.7453 19.7732 27.345C19.344 27.9446 19.1152 28.6646 19.1195 29.402C19.1239 30.1395 19.3611 30.8567 19.7974 31.4512C20.2337 32.0458 20.8467 32.4873 21.5488 32.7127C22.251 32.9381 23.0064 32.9359 23.7072 32.7063C24.408 32.4768 25.0184 32.0316 25.4511 31.4345C25.8839 30.8374 26.1169 30.1188 26.1169 29.3813V13H30.2429C30.2401 13.3484 30.2693 13.6964 30.3301 14.0395C30.4735 14.8054 30.7716 15.534 31.2062 16.1807C31.6409 16.8274 32.2028 17.3787 32.8578 17.8007C33.7896 18.4169 34.8821 18.7453 35.9992 18.745V22.842Z" fill="white"/>
</svg>
