<svg width="16" height="14" viewBox="0 0 16 14" fill="none" xmlns="http://www.w3.org/2000/svg">
<path d="M14.8775 4.33467L10.9434 0.472897C10.6346 0.170005 10.216 -0.000100937 9.77952 4.49349e-08C9.34304 0.000101027 8.92447 0.1704 8.61591 0.473435C8.30734 0.776469 8.13405 1.18742 8.13415 1.61587C8.13425 2.04432 8.30774 2.45519 8.61646 2.75808L11.2922 5.38465H1.64562C1.20917 5.38465 0.790604 5.55483 0.48199 5.85777C0.173377 6.16071 0 6.57158 0 7C0 7.42842 0.173377 7.83929 0.48199 8.14223C0.790604 8.44516 1.20917 8.61535 1.64562 8.61535H11.2922L8.61646 11.2419C8.30774 11.5448 8.13425 11.9557 8.13415 12.3841C8.13405 12.8126 8.30734 13.2235 8.61591 13.5266C8.92447 13.8296 9.34304 13.9999 9.77952 14C10.216 14.0001 10.6346 13.83 10.9434 13.5271L14.8775 9.66533C15.5963 8.95777 16 7.99927 16 7C16 6.00073 15.5963 5.04223 14.8775 4.33467Z" fill="#9BABBF"/>
</svg>
